/* XPM */
static char *granatier[] = {
/* columns rows colors chars-per-pixel */
"32 32 167 2",
"   c #000000",
".  c #010101",
"X  c #020202",
"o  c #030303",
"O  c #040404",
"+  c #050505",
"@  c #060606",
"#  c #070707",
"$  c #080808",
"%  c #090909",
"&  c #0A0A0A",
"*  c #0B0B0B",
"=  c #0C0C0C",
"-  c #0D0D0D",
";  c #0E0E0E",
":  c #0F0F0F",
">  c #101010",
",  c #111111",
"<  c #121212",
"1  c #131313",
"2  c #141413",
"3  c #141414",
"4  c #151515",
"5  c #161616",
"6  c #171717",
"7  c #181818",
"8  c #191919",
"9  c #1A1A1A",
"0  c #1B1B1B",
"q  c #1E1E19",
"w  c #1C1C1C",
"e  c #1D1D1D",
"r  c #1E1E1E",
"t  c #1F1F1F",
"y  c #202020",
"u  c #212121",
"i  c #222222",
"p  c #232323",
"a  c #252522",
"s  c #242424",
"d  c #252525",
"f  c #262626",
"g  c #272727",
"h  c #2D2C22",
"j  c #282828",
"k  c #292929",
"l  c #2A2A2A",
"z  c #2B2B2B",
"x  c #2C2C2C",
"c  c #2D2D2D",
"v  c #2E2E2E",
"b  c #2F2F2F",
"n  c #353325",
"m  c #313131",
"M  c #323232",
"N  c #333333",
"B  c #343434",
"V  c #353535",
"C  c #363636",
"Z  c #373737",
"A  c #383838",
"S  c #393939",
"D  c #3A3A3A",
"F  c #3B3B3B",
"G  c #3C3C3C",
"H  c #3D3D3D",
"J  c #3E3E3E",
"K  c #3F3F3F",
"L  c #49483C",
"P  c #404040",
"I  c #414141",
"U  c #424242",
"Y  c #444444",
"T  c #454545",
"R  c #464646",
"E  c #474747",
"W  c #494949",
"Q  c #4A4A4A",
"!  c #4B4B4B",
"~  c #4C4C4C",
"^  c #4D4D4D",
"/  c #4E4E4E",
"(  c #505050",
")  c #515151",
"_  c #525252",
"`  c #535353",
"'  c #545454",
"]  c #555555",
"[  c #575757",
"{  c #585858",
"}  c #595959",
"|  c #5A5A5A",
" . c #5C5C5C",
".. c #5D5D5D",
"X. c #5E5E5E",
"o. c #5F5F5F",
"O. c #605E46",
"+. c #6B695A",
"@. c #606060",
"#. c #616161",
"$. c #626262",
"%. c #656565",
"&. c #666666",
"*. c #676767",
"=. c #696969",
"-. c #6A6A6A",
";. c #6D6D6D",
":. c #6E6E6E",
">. c #6F6F6F",
",. c #707070",
"<. c #727272",
"1. c #737373",
"2. c #747474",
"3. c #777777",
"4. c #787878",
"5. c #797979",
"6. c #7A7A7A",
"7. c #7B7B7B",
"8. c #7E7E7E",
"9. c #7F7F7E",
"0. c #7F7F7F",
"q. c #9C801D",
"w. c #F8C50C",
"e. c #FDE93C",
"r. c #FDE945",
"t. c #828282",
"y. c #838383",
"u. c #848484",
"i. c #898989",
"p. c #8A8A8A",
"a. c #8B8B8B",
"s. c #8F8F8F",
"d. c #909090",
"f. c #929292",
"g. c #969696",
"h. c #9C9C9C",
"j. c #9D9D9D",
"k. c #9E9E9E",
"l. c #A1A1A1",
"z. c #A4A4A4",
"x. c #A6A6A6",
"c. c #A8A8A8",
"v. c #AEAEAE",
"b. c #B5B5B5",
"n. c #B6B6B6",
"m. c #B8B8B8",
"M. c #BBBBBB",
"N. c #BDBDBD",
"B. c #BFBFBF",
"V. c #C1C1C1",
"C. c #C2C2C2",
"Z. c #C4C4C4",
"A. c #C7C7C7",
"S. c #C9C9C9",
"D. c #CECECE",
"F. c #D2D2D2",
"G. c #D7D7D7",
"H. c #D8D8D8",
"J. c #DADADA",
"K. c #DDDDDD",
"L. c #DFDFDF",
"P. c #E6E6E6",
"I. c #EAEAEA",
"U. c #EEEEEE",
"Y. c #F4F4F4",
"T. c #F8F8F8",
"R. c None",
/* pixels */
"R.R.R.R.r.e.R.R.R.R.R.R.R.R.R.R.R.R.R.R.R.R.R.R.R.R.R.R.R.R.R.R.",
"R.R.R.R.R.R.w.R.R.R.R.R.R.t.4.<.;.3.4.8.R.R.R.R.R.R.R.R.R.R.R.R.",
"R.R.R.R.R.R.R.q.0.h.3.-.Y A U ] #.Y A H ^ 3.R.R.R.R.R.R.R.R.R.R.",
"R.R.R.R.R.R.R.  B &.H m ;.B.F.P.Y.I.H.z.A m ` 4.R.R.R.R.R.R.R.R.",
"R.R.R.R.R.R.R.m ^ m U i.c.C.H.I.T.U.K.A.v.<.g A &.R.R.R.R.R.R.R.",
"R.R.R.R.R.R.R.L g m -.t.h.b.S.G.P.H.D.B.z.i.#.w v | R.R.R.R.R.R.",
"R.R.R.R.R.R.O.a w Y o.3.f.z.b.B.C.C.M.c.g.8.&.H 4 k -.R.R.R.R.R.",
"R.R.R.R.R.+.h > w A ` -.8.f.h.z.z.z.h.f.t.<.] H * 4 v R.R.R.R.R.",
"R.R.R.R.R.n 2 * 7 m Y | -.3.t.i.i.i.u.4.;.o.W B * * 7 A R.R.R.R.",
"R.R.R.R.` q *   > g A W ] o.&.;.;.;.-.#.] ^ A k +   ; u | R.R.R.",
"R.R.R.R.v ; +   * 7 k B H Y ^ ` ] ] ` W U A v 7     * 4 | R.R.R.",
"R.R.R.Y 4 * +     * 7 g v B B A H A B B k g 4         > B R.R.R.",
"R.R.R.B ; +           + ; 4 7 u u w 7 4 *             * > R.R.R.",
"R.R.R.4 *                 * * * ; * * + +             + * R.R.R.",
"R.R.R.* +           + * ; > > 4 4 4 > > ; * +           + R.R.R.",
"R.R.R.> +         + ; > 4 7 w w w w w 7 4 > ; +       + + R.R.R.",
"R.R.R.R.+ +     + ; 4 7 w u u g g g u u w 7 4 ; *     + > R.R.R.",
"R.R.R.R.> + +   * 4 7 w g k v v v v v k g u 7 4 ;     * u R.R.R.",
"R.R.R.R.w *   + ; 4 w g k m B A A B B m v g u 7 ; +   * g R.R.R.",
"R.R.R.R.R.> + * > w g v B A H H U U H H B v g w 4 * * 4 R.R.R.R.",
"R.R.R.R.R.g ; ; 4 w k m A U Y W W W Y U A B k u 4 * > R.R.R.R.R.",
"R.R.R.R.R.R.7 > 4 u k m U Y ^ ` ] ` ^ W U B k u 7 ; g R.R.R.R.R.",
"R.R.R.R.R.R.R.4 7 u k B H W ` | | | ] W U B v g 4 u R.R.R.R.R.R.",
"R.R.R.R.R.R.R.v w w k B U W ] #.&.#.| ^ U B k w g R.R.R.R.R.R.R.",
"R.R.R.R.R.R.R.R.R.k u k B U ^ #.;.#.] Y A v u k R.R.R.R.R.R.R.R.",
"R.R.R.R.R.R.R.R.R.R.g g g m H Y W Y A v u g 7 R.R.R.R.R.R.R.R.R.",
"R.R.R.R.R.R.R.R.R.R.  * 7 w u u u u u w 4 +     R.R.R.R.R.R.R.R.",
"R.R.R.R.R.R.R.R.R.                              R.R.R.R.R.R.R.R.",
"R.R.R.R.R.R.R.R.R.R.R.                        R.R.R.R.R.R.R.R.R.",
"R.R.R.R.R.R.R.R.R.R.R.R.R.R.R.R.R.R.R.R.R.R.R.R.R.R.R.R.R.R.R.R.",
"R.R.R.R.R.R.R.R.R.R.R.R.R.R.R.R.R.R.R.R.R.R.R.R.R.R.R.R.R.R.R.R.",
"R.R.R.R.R.R.R.R.R.R.R.R.R.R.R.R.R.R.R.R.R.R.R.R.R.R.R.R.R.R.R.R."
};
