/* XPM */
static char *granatier___[] = {
/* columns rows colors chars-per-pixel */
"16 16 88 1",
"  c #000000",
". c #010101",
"X c #020202",
"o c #030303",
"O c #040404",
"+ c #050505",
"@ c #060606",
"# c #070707",
"$ c #080808",
"% c #090909",
"& c #0A0A0A",
"* c #0D0D0D",
"= c #0E0E0E",
"- c #0F0F0F",
"; c #121212",
": c #131313",
"> c #141414",
", c #151515",
"< c #161616",
"1 c #171717",
"2 c #181818",
"3 c #1B1B1B",
"4 c #1D1D1D",
"5 c #1E1E1E",
"6 c #1F1F1F",
"7 c #212121",
"8 c #232323",
"9 c #242424",
"0 c #252525",
"q c #262626",
"w c #2C2B25",
"e c #282828",
"r c #292929",
"t c #2A2A2A",
"y c #2B2B2B",
"u c #2C2C2C",
"i c #2D2D2D",
"p c #323232",
"a c #353535",
"s c #363636",
"d c #383838",
"f c #393939",
"g c #3A3A3A",
"h c #4A410B",
"j c #40403B",
"k c #414141",
"l c #424242",
"z c #434343",
"x c #444444",
"c c #454545",
"v c #464646",
"b c #4C4A47",
"n c #494949",
"m c #4A4A4A",
"M c #4B4B4B",
"N c #4E4E4E",
"B c #525252",
"V c #535353",
"C c #555555",
"Z c #575757",
"A c #595959",
"S c #5A5A5A",
"D c #5B5B5B",
"F c #5C5C5C",
"G c #5E5E5E",
"H c #616161",
"J c #626262",
"K c #656565",
"L c #676767",
"P c #6C6C6C",
"I c #6F6F6F",
"U c #707070",
"Y c #797979",
"T c #7C7C7C",
"R c #7F7F7F",
"E c #F8CB21",
"W c #818181",
"Q c #898989",
"! c #8E8E8E",
"~ c #A1A1A1",
"^ c #A2A2A2",
"/ c #ACACAC",
"( c #AFAFAF",
") c #BCBCBC",
"_ c #D1D1D1",
"` c #D6D6D6",
"' c #F1F1F1",
"] c None",
/* pixels */
"]]E]]]]]Y]]]]]]]",
"]]]hLGlPRNnU]]]]",
"]]]byS^_'`^0J]]]",
"]]]w5SQ/)/!S1S]]",
"]]j&1lJYWRLlO3]]",
"]]:.O8dcncs1.O]]",
"]]O....OO.....:]",
"]]....*::1*...&]",
"]]O.O:58005:O.]]",
"]]3.*5ysssi8*&]]",
"]]]*1ydcncdy10]]",
"]]]y1ylVGCci0]]]",
"]]]]]ysVUVp8]]]]",
"]]]]].O&*O..]]]]",
"]]]]]].....]]]]]",
"]]]]]]]]]]]]]]]]"
};
