/* XPM */
static char *katomic___[] = {
/* columns rows colors chars-per-pixel */
"16 16 91 1",
"  c #2E3436",
". c #2F3537",
"X c #303638",
"o c #32383A",
"O c #33393B",
"+ c #34393B",
"@ c #33393C",
"# c #353B3D",
"$ c #383E3F",
"% c #3A3F41",
"& c #3B4142",
"* c #3C4143",
"= c #3E4445",
"- c #414647",
"; c #464A4B",
": c #464C4D",
"> c #484D4E",
", c #4E5355",
"< c #4F5456",
"1 c #505657",
"2 c #575C5B",
"3 c #5F6463",
"4 c #606464",
"5 c #616565",
"6 c #626667",
"7 c #636867",
"8 c #656A68",
"9 c #6C716F",
"0 c #6D7170",
"q c #707372",
"w c #707575",
"e c #747779",
"r c #787C7C",
"t c #7B7E7C",
"y c #797C7E",
"u c #7B7E7E",
"i c #7C7F7E",
"p c #838585",
"a c #858885",
"s c #858887",
"d c #868B86",
"f c #8C8F8C",
"g c #8F918E",
"h c #8E918F",
"j c #999D99",
"k c #9DA29D",
"l c #A3A9A3",
"z c #AAAFA9",
"x c #ADAFAF",
"c c #B6B9B4",
"v c #B6BAB5",
"b c #BBBFB8",
"n c #C2C4C3",
"m c #C4C7C0",
"M c #C7CAC6",
"N c #C9CCC5",
"B c #D3D7CF",
"V c #D5D8D1",
"C c #D5D9D1",
"Z c #D6D9D1",
"A c #D6DBD2",
"S c #D7DBD3",
"D c #D6DAD5",
"F c #D7DBD7",
"G c #D8DCD4",
"H c #D8DCD5",
"J c #DADDD7",
"K c #DBDED7",
"L c #DDE0DB",
"P c #DEE1DB",
"I c #DDE0DC",
"U c #E2E4DF",
"Y c #E5E8E4",
"T c #E6E8E4",
"R c #E7EAE5",
"E c #E8EAE6",
"W c #E9EAE6",
"Q c #E9EBE7",
"! c #EBEDE9",
"~ c #ECEDE9",
"^ c #ECEEEA",
"/ c #EDEEEC",
"( c #EEEFEC",
") c #EEF0EC",
"_ c #F3F4F1",
"` c #F3F5F3",
"' c #F4F5F3",
"] c #F5F5F4",
"[ c #F6F7F5",
"{ c #F7F7F7",
"} c None",
/* pixels */
"}}}}}}}}}}}}}}}}",
"}}}}}}}}}}}}}}}}",
"}}}}}}}}}}>=}}}}",
"}}}}}Z}}}<08-}}}",
"}}}}Z/EP6pgq: }}",
"}}}Z)[~Fysi6%o}}",
"}}}HE!/[nMvw &}}",
"}}}}PU'[T{~H0+}}",
"}}}}yexK'`EGz}}}",
"}}}<fhiFEYHBc}}}",
"}}}4sy7kGZBmd}}}",
"}}}142*;lNbj}}}}",
"}}} o #;}}}}}}}}",
"}}}}o&-X}}}}}}}}",
"}}}}}}}}}}}}}}}}",
"}}}}}}}}}}}}}}}}"
};
