/* XPM */
static char *katomic[] = {
/* columns rows colors chars-per-pixel */
"32 32 66 1",
"  c #2E3436",
". c #303637",
"X c #313638",
"o c #343A3C",
"O c #393E3F",
"+ c #393E40",
"@ c #3C4243",
"# c #414647",
"$ c #424748",
"% c #444A4B",
"& c #4A4E4F",
"* c #4A4F50",
"= c #4E5354",
"- c #515556",
"; c #565A5B",
": c #5A5E5F",
"> c #5E6261",
", c #616565",
"< c #646969",
"1 c #6A6E6E",
"2 c #6E7271",
"3 c #717474",
"4 c #767B7A",
"5 c #7A7E7D",
"6 c #7D807F",
"7 c #7D8180",
"8 c #828684",
"9 c #868886",
"0 c #868A89",
"q c #8A8D8B",
"w c #8E918E",
"e c #929591",
"r c #959995",
"t c #979A9B",
"y c #9BA09C",
"u c #A1A4A4",
"i c #A6AAA5",
"p c #A7A9AA",
"a c #AAAEAA",
"s c #B7BAB6",
"d c #B8BCB6",
"f c #BABEB9",
"g c #BEC2BC",
"h c #C3C7BF",
"j c #C4C7C0",
"k c #C6CAC3",
"l c #C8CCC5",
"z c #CCCFCB",
"x c #CED2CA",
"c c #D3D7CF",
"v c #D4D7D1",
"b c #D5D9D1",
"n c #D9DDD6",
"m c #DBDED9",
"M c #DEE1DB",
"N c #E1E3DE",
"B c #E3E6E1",
"V c #E6E8E4",
"C c #E8EAE6",
"Z c #ECEEEA",
"A c #EEF0ED",
"S c #F0F2EF",
"D c #F3F5F3",
"F c #F7F8F7",
"G c #FBFBFB",
"H c None",
/* pixels */
"HHHHHHHHHHHHHHHHHHHHHHHHHHHHHHHH",
"HHHHHHHHHHHHHHHHHHHHHHHHHHHHHHHH",
"HHHHHHHHHHHHHHHHHHHHHHHHHHHHHHHH",
"HHHHHHHHHHHHHHHHHHHHHHHHHHHHHHHH",
"HHHHHHHHHHHHHHHHHHHHHHHHHHHHHHHH",
"HHHHHHHHHHHHHHHHHHH*%%%#OHHHHHHH",
"HHHHHHHHHHHHHHHHHH-;22<;$ HHHHHH",
"HHHHHHHHHbbnMmHHH:<qe83>&o HHHHH",
"HHHHHHHHbMZZCVMN1<8rw73,&o  HHHH",
"HHHHHHHbNGGDZVNn<4qw951;%   HHHH",
"HHHHHHbnAFFSZVBz569963<-@  XHHHH",
"HHHHHHnNZDSZCZZmt0653<;%O  +HHHH",
"HHHHHHnNCZZCZDFDppslgt,@X  @HHHH",
"HHHHHHnMBVVZDGGFMNCCVNc8  @OHHHH",
"HHHHHHMmMNNZDGFZVDFDZNmc4@$.HHHH",
"HHHHHHHMMMmCADZBSGFDZNmcx;XHHHHH",
"HHHHHHHH032qusBVDFDZCNbbcrHHHHHH",
"HHHHHHH>,70859MCZSZCBncccsHHHHHH",
"HHHHHH=,wtw04qMBCCCNnbccxgHHHHHH",
"HHHHH=-5rw0721nMNNMnbccclaHHHHHH",
"HHHHH$,59953<;gnnnbcbccxhwHHHHHH",
"HHHHH$>2331>;%,bccccccchdHHHHHHH",
"HHHHH@-:,>:=@@O6cxccclggHHHHHHHH",
"HHHHHo$&=&$Oo  @>jxllhiHHHHHHHHH",
"HHHHH Xoo     o$ HHHHHHHHHHHHHHH",
"HHHHHH       X%oHHHHHHHHHHHHHHHH",
"HHHHHHH o Xo@%OHHHHHHHHHHHHHHHHH",
"HHHHHHHH XOOO HHHHHHHHHHHHHHHHHH",
"HHHHHHHHHHHHHHHHHHHHHHHHHHHHHHHH",
"HHHHHHHHHHHHHHHHHHHHHHHHHHHHHHHH",
"HHHHHHHHHHHHHHHHHHHHHHHHHHHHHHHH",
"HHHHHHHHHHHHHHHHHHHHHHHHHHHHHHHH"
};
