/* XPM */
static char *kbattleship[] = {
/* columns rows colors chars-per-pixel */
"32 32 161 2",
"   c #000000",
".  c #010100",
"X  c #040404",
"o  c #060604",
"O  c #080805",
"+  c #090906",
"@  c #31312E",
"#  c #31312F",
"$  c #282A33",
"%  c #343535",
"&  c #3B3B36",
"*  c #3D3D3B",
"=  c #3D3D3C",
"-  c #3D3D3D",
";  c #494948",
":  c #494949",
">  c #4A4A49",
",  c #4D4D4C",
"<  c #4E4F4E",
"1  c #525251",
"2  c #555554",
"3  c #575755",
"4  c #585857",
"5  c #5B5B5A",
"6  c #5C5C5B",
"7  c #5F5F5D",
"8  c #595966",
"9  c #626362",
"0  c #666665",
"q  c #676766",
"w  c #686867",
"e  c #6F6F6D",
"r  c #70706E",
"t  c #70706F",
"y  c #6D7071",
"u  c #727271",
"i  c #747472",
"p  c #747473",
"a  c #717177",
"s  c #747474",
"d  c #757574",
"f  c #777776",
"g  c #73747B",
"h  c #7B7B7A",
"j  c #7C7C7B",
"k  c #7E7E7D",
"l  c #81817F",
"z  c #757581",
"x  c #767684",
"c  c #7B7B8B",
"v  c #838381",
"b  c #818383",
"n  c #848482",
"m  c #828485",
"M  c #878786",
"N  c #898987",
"B  c #87878A",
"V  c #8B8B8A",
"C  c #8B8D8B",
"Z  c #8C8C8B",
"A  c #8F8F8D",
"S  c #90908E",
"D  c #848491",
"F  c #919293",
"G  c #949493",
"H  c #949594",
"J  c #959594",
"K  c #949595",
"L  c #959895",
"P  c #989895",
"I  c #999997",
"U  c #989998",
"Y  c #999998",
"T  c #9A9A99",
"R  c #9B9B9A",
"E  c #9E9E9C",
"W  c #9F9E9E",
"Q  c #A09F9F",
"!  c #A0A09F",
"~  c #A2A2A0",
"^  c #A3A3A2",
"/  c #A4A4A3",
"(  c #A5A5A3",
")  c #A5A3A5",
"_  c #A5A5A4",
"`  c #A6A6A5",
"'  c #A7A7A6",
"]  c #A7A6A7",
"[  c #A8A8A7",
"{  c #A8A8A8",
"}  c #A9A8A8",
"|  c #A9A9A8",
" . c #AAAAA9",
".. c #AAA9AA",
"X. c #ABAAAA",
"o. c #ABABAA",
"O. c #ACA9AC",
"+. c #ACAAAC",
"@. c #ADADAC",
"#. c #ADADAD",
"$. c #AFAFAE",
"%. c #B0B0AE",
"&. c #B1B1B1",
"*. c #B2B2B2",
"=. c #B3B3B2",
"-. c #B4B4B3",
";. c #B4B4B4",
":. c #B5B5B5",
">. c #B7B7B7",
",. c #B8B8B8",
"<. c #BCBBBB",
"1. c #B8BABC",
"2. c #BBBBBC",
"3. c #BBBCBC",
"4. c #BABCBE",
"5. c #BFBFBF",
"6. c #C3C3C3",
"7. c #C3C4C6",
"8. c #C4C4C4",
"9. c #C5C5C5",
"0. c #C6C6C6",
"q. c #C5C5C8",
"w. c #C8C8C8",
"e. c #C8C8C9",
"r. c #C9C9C9",
"t. c #CBCBCB",
"y. c #C8CBCD",
"u. c #CCCCCD",
"i. c #CDCDCD",
"p. c #CDCDCE",
"a. c #CECECE",
"s. c #D0CED0",
"d. c #D0D0D0",
"f. c #D1D1D1",
"g. c #D2D2D2",
"h. c #D3D3D3",
"j. c #D5D5D5",
"k. c #D5D7D7",
"l. c #D7D7D7",
"z. c #D8D8D8",
"x. c #D9D9D9",
"c. c #DADADA",
"v. c #DBDBDB",
"b. c #DDDDDD",
"n. c #E0E0E0",
"m. c #E1E1E1",
"M. c #E2E2E2",
"N. c #E3E3E3",
"B. c #E5E5E5",
"V. c #E6E6E6",
"C. c #E7E7E7",
"Z. c #E5E7EA",
"A. c #ECECEC",
"S. c #EEEEEE",
"D. c #EFEFEF",
"F. c #F0F0F0",
"G. c #F2F2F2",
"H. c #F4F4F4",
"J. c #F6F6F6",
"K. c #FAFAFA",
"L. c None",
/* pixels */
"L.L.L.L.L.L.L.L.L.L.L.L.L.L.L.L.L.L.L.L.L.L.L.L.L.L.L.L.L.L.L.L.",
"L.L.L.L.L.L.L.L.L.L.L.L.C v e p h h % L.L.L.L.L.L.L.L.L.L.L.L.L.",
"L.L.L.L.L.L.L.L.L.L.L.q } C V ' t.[ p L.L.L.L.L.L.L.L.L.L.L.L.L.",
"L.L.L.L.L.L.L.L.L.L.L.v R S V [ w.! Z n L.L.L.L.L.L.L.L.L.L.L.L.",
"L.L.L.L.L.L.L.L.L.L.L.$.} } } } } } [ $.v L.L.L.L.L.L.L.L.L.L.L.",
"L.L.L.L.L.L.L.L.L.L.3 -.o.a.H.S.N.9.%.=.v L.L.L.L.L.L.L.L.L.L.L.",
"L.L.L.L.L.L.L.L.L.L.v ;.&.h.h.x.K.h.-.o.v L.L.L.L.L.L.L.L.L.L.L.",
"L.L.L.L.L.L.L.L.L.L.} ' E z.w.' C.v.n.} ) L.L.L.L.L.L.L.L.L.L.L.",
"L.L.L.L.L.L.L.L.L.L.,.} Q l.x.w.H.h.$.O.) L.L.L.L.L.L.L.L.L.L.L.",
"L.L.L.L.L.L.L.L.L.L.$.' w y L s.a.V ] } ) L.L.L.L.L.L.L.L.L.L.L.",
"L.L.L.L.L.L.L.L.L.= S d = % 9 E } k } $.d L.L.L.L.L.L.L.L.L.L.L.",
"L.L.L.L.L.L.L.L.L.1 P n 4 > l ' } &.9.P M L.L.L.L.L.L.L.L.L.L.L.",
"L.L.L.L.L.L.L.L.L.d M 7 3 j t u C V p 6 ~ N L.L.L.L.L.L.L.L.L.L.",
"L.L.L.L.L.L.L.L.L.G R q < ' d < G Z > d ;.J L.L.L.L.L.L.L.L.L.L.",
"L.L.L.L.L.L.L.L.L.' w.m x.x.B.N.x.h.a.m 9.' L.L.L.L.L.L.L.L.L.L.",
"L.L.L.L.L.L.L.L.L.[ h.m S.F.S.F.F.S.B.m 9.[ L.L.L.L.L.L.L.L.L.L.",
"L.L.L.L.L.L.L.L.L.~ w.m m m m m m m m m ;.' L.L.L.L.L.L.L.L.L.L.",
"L.L.L.L.L.L.L.L.L.S x.h.h.9.a.Z.9.~ 9.t.w.J L.L.L.L.L.L.L.L.L.L.",
"L.L.L.L.L.L.L.L.L.u x.a.s.4.J q.F / d.j.9.  L.L.L.L.L.L.L.L.L.L.",
"L.L.L.L.L.L.L.L.L.* N.w.3.,.{ J U h.j.b.R L.L.L.L.L.L.L.L.L.L.L.",
"L.L.L.L.L.L.L.L.L.+ 6.j.y.4.4.l.j.B.b.B.5 L.L.L.L.L.L.L.L.L.L.L.",
"L.L.L.L.L.L.L.L.L.L.s e.K.1.$.S.F.F.A.a.  L.L.L.L.L.L.L.L.L.L.L.",
"L.L.L.L.L.L.L.L.L.L.& g D B 5.N.B.A.j.3   L.L.L.L.L.L.L.L.L.L.L.",
"L.L.L.L.L.L.L.L.L.L.  8 x a.N.C.D.z.e + L.L.L.L.L.L.L.L.L.L.L.L.",
"L.L.L.L.L.L.L.L.L.L.L.c z ' &.;.=.R > L.L.L.L.L.L.L.L.L.L.L.L.L.",
"L.L.L.L.L.L.L.L.L.L.L.$ g $.~ ( ' P   L.L.L.L.L.L.L.L.L.L.L.L.L.",
"L.L.L.L.L.L.L.L.L.L.L.L.o h.K.K.N.0 L.L.L.L.L.L.L.L.L.L.L.L.L.L.",
"L.L.L.L.L.L.L.L.L.L.L.L.L.t K.K.w.  L.L.L.L.L.L.L.L.L.L.L.L.L.L.",
"L.L.L.L.L.L.L.L.L.L.L.L.L.L.B.K.7 L.L.L.L.L.L.L.L.L.L.L.L.L.L.L.",
"L.L.L.L.L.L.L.L.L.L.L.L.L.L.p F.L.L.L.L.L.L.L.L.L.L.L.L.L.L.L.L.",
"L.L.L.L.L.L.L.L.L.L.L.L.L.L.L.@ L.L.L.L.L.L.L.L.L.L.L.L.L.L.L.L.",
"L.L.L.L.L.L.L.L.L.L.L.L.L.L.L.L.L.L.L.L.L.L.L.L.L.L.L.L.L.L.L.L."
};
