/* XPM */
static char *kbattleship___[] = {
/* columns rows colors chars-per-pixel */
"16 16 62 1",
"  c #000000",
". c #262624",
"X c #363636",
"o c #585858",
"O c #5E5E5D",
"+ c #5F5F5F",
"@ c #656563",
"# c #676767",
"$ c #6D6D6D",
"% c #666672",
"& c #727272",
"* c #737573",
"= c #767674",
"- c #767675",
"; c #878886",
": c #888887",
"> c #8B8B89",
", c #8E8E8D",
"< c #90909B",
"1 c #9A9A98",
"2 c #9B9B99",
"3 c #9C9C9B",
"4 c #9E9E9C",
"5 c #9E9E9D",
"6 c #9F9F9D",
"7 c #A0A09E",
"8 c #ABABA8",
"9 c #ACACA9",
"0 c #AEAEAB",
"q c #B0B0B0",
"w c #B2B2B1",
"e c #B4B4B3",
"r c #B6B6B4",
"t c #B8B8B6",
"y c #B8B8B7",
"u c #B7B8B8",
"i c #BABAB8",
"p c #BCBCBA",
"a c #BDBDBB",
"s c #BEBEBC",
"d c #C7C7C7",
"f c #C7C7C8",
"g c #D1D1D1",
"h c #D3D3D2",
"j c #D3D3D3",
"k c #D7D7D7",
"l c #D7D7D9",
"z c #D9D9D9",
"x c #E1DFE1",
"c c #E3E1E3",
"v c #E3E3E3",
"b c #E7E7E7",
"n c #EBEBEB",
"m c #EDF1ED",
"M c #F1F1F1",
"N c #F2F2F2",
"B c #F3F3F3",
"V c #F2F2F4",
"C c #F4F4F4",
"Z c #F8F8F8",
"A c #FEFEFE",
"S c None",
/* pixels */
"SSSSSSSX.SSSSSSS",
"SSSSSS;iveSSSSSS",
"SSSSSSrdhhSSSSSS",
"SSSSSSxBCA=SSSSS",
"SSSSSOqubz:SSSSS",
"SSSSS=*#qr2SSSSS",
"SSSSS7$2=5$SSSSS",
"SSSSSrBZVnaSSSSS",
"SSSSSq55989SSSSS",
"SSSSS5mf>vjSSSSS",
"SSSSS+B,BA:SSSSS",
"SSSSSS<lAl SSSSS",
"SSSSSS%aa#SSSSSS",
"SSSSSSSzASSSSSSS",
"SSSSSSSo3SSSSSSS",
"SSSSSSSSSSSSSSSS"
};
