/* XPM */
static char *kbounce___[] = {
/* columns rows colors chars-per-pixel */
"16 16 59 1",
"  c #171C84",
". c #2C2D9E",
"X c #3533A8",
"o c #3C42AA",
"O c #3F47A9",
"+ c #4F59AC",
"@ c #464FB0",
"# c #5361B5",
"$ c #6869DE",
"% c #657DD2",
"& c #667BD9",
"* c #665DEB",
"= c #6F74EE",
"- c #727EE9",
"; c #6883C6",
": c #7980CC",
"> c #6A81D7",
", c #7F93D4",
"< c #7BA4DF",
"1 c #7787E1",
"2 c #7692E4",
"3 c #7490E7",
"4 c #7D99E5",
"5 c #7896EC",
"6 c #7EA3E1",
"7 c #8395EF",
"8 c #889FF2",
"9 c #88A4ED",
"0 c #88B5EF",
"q c #85BCEE",
"w c #95B7E3",
"e c #8EA0F2",
"r c #8EAEF2",
"t c #8CB1F0",
"y c #8EB6F2",
"u c #84BAF2",
"i c #90B6F2",
"p c #97BDF3",
"a c #9BB9F4",
"s c #A2B3F5",
"d c #A0BFF4",
"f c #B5D7EF",
"g c #B1CFF0",
"h c #A0D4F6",
"j c #ACD9F6",
"k c #BCD7F0",
"l c #B2D5F8",
"z c #BFE6F4",
"x c #C0DCF1",
"c c #C3DAF6",
"v c #D0DCF0",
"b c #C8E7F3",
"n c #CFE7F3",
"m c #D6E4F4",
"M c #D3EBF7",
"N c #D6E9F6",
"B c #DCE6F8",
"V c #E3EAF8",
"C c None",
/* pixels */
"CCCCCCCCCCCCCCCC",
"CCCCO%3>@CCCCCCC",
"CCCo5jl8-CCCCCCC",
"CCC&uhds=XCCCCCC",
"CCC3ypae*.CCCCCC",
"CCC1rit7$ CCCCCC",
"CCC:90q4#CCCCCCC",
"CCCv,6<;+CCCCCCC",
"CCVBckwCCCCCCCCC",
"CCmNMgCCCCCCCCCC",
"CCnxCCCCCCCCCCCC",
"CCbCCCCCCCCCCCCC",
"CCCfbCCCCCCCCCCC",
"CCCCCCCCCCCCCCCC",
"CCCCCCCCCCCCCCCC",
"CCCCCCCCCCCCCCCC"
};
