/* XPM */
static char *kbounce[] = {
/* columns rows colors chars-per-pixel */
"32 32 222 2",
"   c #080A64",
".  c #0A0A6A",
"X  c #0F1B6E",
"o  c #0E1170",
"O  c #141B70",
"+  c #171B75",
"@  c #1B2384",
"#  c #293480",
"$  c #343B91",
"%  c #2A2CA1",
"&  c #3531B4",
"*  c #3D3DB1",
"=  c #3C37BA",
"-  c #33408E",
";  c #3D4995",
":  c #3946A0",
">  c #3B46A2",
",  c #3D46A6",
"<  c #47599F",
"1  c #404FA4",
"2  c #4655AE",
"3  c #535EAC",
"4  c #4648BA",
"5  c #5168A8",
"6  c #5062B6",
"7  c #5362B7",
"8  c #546CB7",
"9  c #596DB2",
"0  c #6B7ABF",
"q  c #7076BC",
"w  c #4A44CB",
"e  c #4F43DC",
"r  c #5763C0",
"t  c #5E68CB",
"y  c #5C72C7",
"u  c #616DC1",
"i  c #6074C3",
"p  c #6178C1",
"a  c #647FC0",
"s  c #6B7EC5",
"d  c #6868DE",
"f  c #6B7CD4",
"g  c #594AE8",
"h  c #615BEA",
"j  c #6365E8",
"k  c #6A64E8",
"l  c #6B68EC",
"z  c #7071EE",
"x  c #767DEF",
"c  c #757FEF",
"v  c #7A7FEB",
"b  c #6683C2",
"n  c #6A84CE",
"m  c #6F8BCB",
"M  c #6D8DCC",
"N  c #7188CA",
"B  c #6D80D4",
"V  c #6C8BD0",
"C  c #6E8BD8",
"Z  c #6D88DB",
"A  c #708ED1",
"S  c #708FDB",
"D  c #7491D7",
"F  c #7598D5",
"G  c #7391D8",
"H  c #7593DD",
"J  c #7E9BDF",
"K  c #7683E2",
"L  c #7D82EF",
"P  c #7788EA",
"I  c #7697E5",
"U  c #7892E2",
"Y  c #7D99E5",
"T  c #7C93EF",
"R  c #7B9FEC",
"E  c #7882F0",
"W  c #7CA6E0",
"Q  c #7FA7E5",
"!  c #7FA5EF",
"~  c #7FADEF",
"^  c #7FAEF0",
"/  c #859FD6",
"(  c #8CA5D8",
")  c #8AA9DA",
"_  c #8094E4",
"`  c #839EE5",
"'  c #8497EF",
"]  c #8198EB",
"[  c #879FEE",
"{  c #838EF1",
"}  c #8191F1",
"|  c #8895F2",
" . c #879FF2",
".. c #899AF2",
"X. c #8A9AF2",
"o. c #8A9DF2",
"O. c #81A6E4",
"+. c #80AAE4",
"@. c #88A4ED",
"#. c #89A4EF",
"$. c #86A8EA",
"%. c #84ACEC",
"&. c #8AADEF",
"*. c #85B2EC",
"=. c #82B6EC",
"-. c #88B5EF",
";. c #84BAEE",
":. c #85BCEE",
">. c #83A8F1",
",. c #84A9F0",
"<. c #86A9F0",
"1. c #88A9F0",
"2. c #8BAAF1",
"3. c #8CA8F1",
"4. c #8FAEF2",
"5. c #91A5F3",
"6. c #94A9F3",
"7. c #91ADF2",
"8. c #9AADF3",
"9. c #8DB0F1",
"0. c #8FB2F2",
"q. c #88B5F0",
"w. c #8DB4F0",
"e. c #8CB5F1",
"r. c #8FB7F1",
"t. c #8FB4F2",
"y. c #8EB6F2",
"u. c #86B8F1",
"i. c #84BAF2",
"p. c #89B8F1",
"a. c #8BBCF2",
"s. c #91B7F2",
"d. c #94B5F3",
"f. c #99B2F3",
"g. c #92B8F3",
"h. c #95B8F3",
"j. c #94B9F3",
"k. c #94BCF3",
"l. c #97BFF5",
"z. c #98BDF3",
"x. c #9BB9F4",
"c. c #9ABCF4",
"v. c #A2B3F4",
"b. c #A3B9F5",
"n. c #A0BDF5",
"m. c #A5BCF4",
"M. c #84C0EF",
"N. c #9EC5F5",
"B. c #96CBF4",
"V. c #94CCF4",
"C. c #9BCBF5",
"Z. c #95D0F5",
"A. c #A6C1EA",
"S. c #A4C1EC",
"D. c #A1C4ED",
"F. c #A7C6EF",
"G. c #B4CDE8",
"H. c #B5D8EE",
"J. c #BEDAEF",
"K. c #A3C8F5",
"L. c #A0CEF5",
"P. c #A2CEF5",
"I. c #ABCEF3",
"U. c #B3CEF1",
"Y. c #B0CEF4",
"T. c #A5D1F6",
"R. c #A2D6F6",
"E. c #A8D2F6",
"W. c #ABDBF6",
"Q. c #ACD9F6",
"!. c #B1D1F2",
"~. c #B1D0F3",
"^. c #B5D1F2",
"/. c #BBD5F0",
"(. c #BDDBF0",
"). c #B3DBF8",
"_. c #B9DCF9",
"`. c #9EEEF3",
"'. c #B5E9F3",
"]. c #B3F2F7",
"[. c #B0F5F7",
"{. c #BEF6F6",
"}. c #C2D9EF",
"|. c #C0D7F0",
" X c #C0DFF1",
".X c #C9DBF0",
"XX c #CDDCF1",
"oX c #CDDFF2",
"OX c #CADFF5",
"+X c #D6DCF3",
"@X c #C1E4F2",
"#X c #C9E0F2",
"$X c #CEE0F2",
"%X c #CDE4F7",
"&X c #C1EFF4",
"*X c #CBE8F3",
"=X c #CBEEF7",
"-X c #CFE8FB",
";X c #D0E1F6",
":X c #D7E5F6",
">X c #D9E6F6",
",X c #D2EBF5",
"<X c #D5EAF5",
"1X c #D2EDF7",
"2X c #D5EEFB",
"3X c #DCEAFA",
"4X c #DEEEF9",
"5X c #C6F2F7",
"6X c #C7F2F7",
"7X c #C8F2F8",
"8X c #CAF6F9",
"9X c #D4F0F7",
"0X c #DDF4FB",
"qX c #DCF5FB",
"wX c #E2F6FB",
"eX c #EEF3FB",
"rX c #EDF6FB",
"tX c #EEF5FC",
"yX c #EEF6FC",
"uX c #F0F5FC",
"iX c #F8FAFD",
"pX c None",
/* pixels */
"pXpXpXpXpXpXpXpXpXpXpXpXpXpXpXpXpXpXpXpXpXpXpXpXpXpXpXpXpXpXpXpX",
"pXpXpXpXpXpXpXpXpXpXpXpXpXpXpXpXpXpXpXpXpXpXpXpXpXpXpXpXpXpXpXpX",
"pXpXpXpXpXpXpXpXpXpX8 V H G n 6 pXpXpXpXpXpXpXpXpXpXpXpXpXpXpXpX",
"pXpXpXpXpXpXpXpX, H >.C.R.>.T P i : pXpXpXpXpXpXpXpXpXpXpXpXpXpX",
"pXpXpXpXpXpXpX: I i.Q.1X_.z.o.} E r pXpXpXpXpXpXpXpXpXpXpXpXpXpX",
"pXpXpXpXpXpXpXC ^ B.W.).E.z.6.X.E j $ pXpXpXpXpXpXpXpXpXpXpXpXpX",
"pXpXpXpXpXpX2 R i.Z.R.T.K.m.v.X.x h * pXpXpXpXpXpXpXpXpXpXpXpXpX",
"pXpXpXpXpXpXy ! a.B.C.N.n.b.8.| z g = + pXpXpXpXpXpXpXpXpXpXpXpX",
"pXpXpXpXpXpXC >.y.k.z.c.x.f.5.{ l e & O pXpXpXpXpXpXpXpXpXpXpXpX",
"pXpXpXpXpXpXU 1.0.g.k.h.h.7...E k w % o pXpXpXpXpXpXpXpXpXpXpXpX",
"pXpXpXpXpXpXf #.4.y.s.y.y.2.| v d 4 @   pXpXpXpXpXpXpXpXpXpXpXpX",
"pXpXpXpXpXpXu [ 3.4.y.q.q.<.Y K t , X pXpXpXpXpXpXpXpXpXpXpXpXpX",
"pXpXpXpXpXpXq _ @.&.q.:.:.%.Y B 7 <   pXpXpXpXpXpXpXpXpXpXpXpXpX",
"pXpXpXpXpXpX+X0 ` $.*.:.=.+.G p 1 + pXpXpXpXpXpXpXpXpXpXpXpXpXpX",
"pXpXpXpXpXpXuX( s J O.+.W F b 5 1 pXpXpXpXpXpXpXpXpXpXpXpXpXpXpX",
"pXpXpXpXpX:XtXF.XXN m V M a 9 3 pXpXpXpXpXpXpXpXpXpXpXpXpXpXpXpX",
"pXpXpXpXpXeX>X;X3XD./.G.( ) S.pXpXpXpXpXpXpXpXpXpXpXpXpXpXpXpXpX",
"pXpXpXpXpXiXA.tXU.%X2X~.I.~.pXpXpXpXpXpXpXpXpXpXpXpXpXpXpXpXpXpX",
"pXpXpXpXpXeXoX4XOX0X^.Y.pXpXpXpXpXpXpXpXpXpXpXpXpXpXpXpXpXpXpXpX",
"pXpXpXpX.X$XwX|.0XpXpXpXpXpXpXpXpXpXpXpXpXpXpXpXpXpXpXpXpXpXpXpX",
"pXpXpXpX<X}.,X1XpXpXpXpXpXpXpXpXpXpXpXpXpXpXpXpXpXpXpXpXpXpXpXpX",
"pXpXpXpX#X1XJ.pXpXpXpXpXpXpXpXpXpXpXpXpXpXpXpXpXpXpXpXpXpXpXpXpX",
"pXpXpXpX*XJ.pXpXpXpXpXpXpXpXpXpXpXpXpXpXpXpXpXpXpXpXpXpXpXpXpXpX",
"pXpXpXpX@X=X@XpXpXpXpXpXpXpXpXpXpXpXpXpXpXpXpXpXpXpXpXpXpXpXpXpX",
"pXpXpXpXpXpXH.6X7XpXpXpXpXpXpXpXpXpXpXpXpXpXpXpXpXpXpXpXpXpXpXpX",
"pXpXpXpXpXpXpXpXpX5X8XpXpXpXpXpXpXpXpXpXpXpXpXpXpXpXpXpXpXpXpXpX",
"pXpXpXpXpXpXpXpXpXpXpX5X{.pXpXpXpXpXpXpXpXpXpXpXpXpXpXpXpXpXpXpX",
"pXpXpXpXpXpXpXpXpXpXpXpXpX'.[.pXpXpXpXpXpXpXpXpXpXpXpXpXpXpXpXpX",
"pXpXpXpXpXpXpXpXpXpXpXpXpXpXpXpX].pXpXpXpXpXpXpXpXpXpXpXpXpXpXpX",
"pXpXpXpXpXpXpXpXpXpXpXpXpXpXpXpXpXpX`.pXpXpXpXpXpXpXpXpXpXpXpXpX",
"pXpXpXpXpXpXpXpXpXpXpXpXpXpXpXpXpXpXpXpXpXpXpXpXpXpXpXpXpXpXpXpX",
"pXpXpXpXpXpXpXpXpXpXpXpXpXpXpXpXpXpXpXpXpXpXpXpXpXpXpXpXpXpXpXpX"
};
