/* XPM */
static char *kgoldrunner[] = {
/* columns rows colors chars-per-pixel */
"32 32 242 2",
"   c #000000",
".  c #050100",
"X  c #050400",
"o  c #050500",
"O  c #060501",
"+  c #080700",
"@  c #0A0700",
"#  c #0B0A01",
"$  c #0C0800",
"%  c #0C0901",
"&  c #131102",
"*  c #151003",
"=  c #1A1602",
"-  c #1F1500",
";  c #231F03",
":  c #251C03",
">  c #301D01",
",  c #262104",
"<  c #382602",
"1  c #352C05",
"2  c #2E3436",
"3  c #2F3536",
"4  c #363C37",
"5  c #383E38",
"6  c #412B04",
"7  c #483A05",
"8  c #513E00",
"9  c #543E04",
"0  c #5B4304",
"q  c #5E4C09",
"w  c #594211",
"e  c #6C4B06",
"r  c #764F03",
"t  c #675509",
"y  c #65550B",
"u  c #6A580B",
"i  c #7A5403",
"p  c #7E5B07",
"a  c #715108",
"s  c #7E5D0B",
"d  c #725D13",
"f  c #735E1B",
"g  c #7A630C",
"h  c #7C6616",
"j  c #73621B",
"k  c #75601D",
"l  c #7F6C1A",
"z  c #7F721F",
"x  c #57572C",
"c  c #54552F",
"v  c #5C5928",
"b  c #525433",
"n  c #5B5B30",
"m  c #6B5C24",
"M  c #6A622A",
"N  c #6D6729",
"B  c #6B6A31",
"V  c #797332",
"C  c #4E5341",
"Z  c #845B04",
"A  c #815F08",
"S  c #876203",
"D  c #8B6205",
"F  c #82640A",
"G  c #8A6B0A",
"H  c #8F6F0B",
"J  c #906908",
"K  c #976C09",
"L  c #916D0D",
"P  c #85770C",
"I  c #8B720A",
"U  c #9B7004",
"Y  c #9B7705",
"T  c #9F7404",
"R  c #9C7C07",
"E  c #94710A",
"W  c #95770C",
"Q  c #97760D",
"!  c #99780E",
"~  c #9D7A0C",
"^  c #906E11",
"/  c #8E7A17",
"(  c #937110",
")  c #867B26",
"_  c #8E7D20",
"`  c #9E800F",
"'  c #91801D",
"]  c #A4840C",
"[  c #A8820B",
"{  c #AB890C",
"}  c #AC880D",
"|  c #B38501",
" . c #B38507",
".. c #B78706",
"X. c #BA8A0A",
"o. c #AD950E",
"O. c #B6920A",
"+. c #BA9A0E",
"@. c #BA9E0E",
"#. c #A88A10",
"$. c #AE9B1C",
"%. c #B59613",
"&. c #B19615",
"*. c #B99611",
"=. c #B49912",
"-. c #BE9D13",
";. c #BC9914",
":. c #BFA212",
">. c #8C8329",
",. c #9E9727",
"<. c #B59E24",
"1. c #C79504",
"2. c #C59407",
"3. c #C99701",
"4. c #C89805",
"5. c #C19F0E",
"6. c #C29F0F",
"7. c #C09C15",
"8. c #C3A10E",
"9. c #CBAA0B",
"0. c #CAA80F",
"q. c #CBA90F",
"w. c #C9AC0F",
"e. c #D5A202",
"r. c #DAA502",
"t. c #DEA901",
"y. c #C3A610",
"u. c #C3A412",
"i. c #C2A612",
"p. c #C2A713",
"a. c #C6A910",
"s. c #C7AB11",
"d. c #C9AE13",
"f. c #C9AC14",
"g. c #C3A318",
"h. c #C6A619",
"j. c #C8A01A",
"k. c #C6AD1A",
"l. c #D9AA1D",
"z. c #CEB217",
"x. c #CBB517",
"c. c #CAB11C",
"v. c #D4B312",
"b. c #D7B811",
"n. c #D2BC11",
"m. c #D1BA14",
"M. c #D8B910",
"N. c #D8B811",
"B. c #D8BD12",
"V. c #DCBD12",
"C. c #D3B918",
"Z. c #D7BB19",
"A. c #E3AD00",
"S. c #E3AE01",
"D. c #C69D28",
"F. c #C2AE20",
"G. c #D1AE25",
"H. c #D0BD20",
"J. c #D3BC22",
"K. c #DEC112",
"L. c #DBC115",
"P. c #DAC314",
"I. c #DDC61C",
"U. c #DCC91F",
"Y. c #E4C109",
"T. c #E3CA14",
"R. c #E8CD13",
"E. c #E8CE14",
"W. c #E8CE15",
"Q. c #E8CF15",
"!. c #E3CB18",
"~. c #E0C91B",
"^. c #E0CA1A",
"/. c #E0CF18",
"(. c #EAD014",
"). c #E8D017",
"_. c #E8D117",
"`. c #E1D018",
"'. c #E4D51F",
"]. c #ECD71C",
"[. c #F2E815",
"{. c #D7C123",
"}. c #DCC927",
"|. c #D7C62B",
" X c #DCCA2B",
".X c #DED223",
"XX c #D6C236",
"oX c #E5D721",
"OX c #E7D821",
"+X c #E7D924",
"@X c #E7DC25",
"#X c #E8DC2F",
"$X c #E0D436",
"%X c #EADF32",
"&X c #E0D13A",
"*X c #E6D639",
"=X c #EEDB3A",
"-X c #E8D83F",
";X c #F2D832",
":X c #EEE525",
">X c #EEE129",
",X c #EAE22C",
"<X c #EFE13D",
"1X c #F0E23B",
"2X c #F2E53F",
"3X c #999050",
"4X c #A09C61",
"5X c #A4A369",
"6X c #D1B943",
"7X c #D1C45D",
"8X c #E1D544",
"9X c #E9D445",
"0X c #EEDB4C",
"qX c #E3D051",
"wX c #E8D551",
"eX c #F0E845",
"rX c #F4EE48",
"tX c #F0EA52",
"yX c #F0E75D",
"uX c #EBD260",
"iX c #EDDE61",
"pX c #ECDF65",
"aX c #F1E561",
"sX c #F3E968",
"dX c #F7F463",
"fX c #F5F265",
"gX c #F3ED75",
"hX c #F3EB7C",
"jX c #F5F073",
"kX c #FBFA78",
"lX c #E1D78A",
"zX c #F0E780",
"xX c #F3EF82",
"cX c #F5EF8E",
"vX c #F2E79B",
"bX c #F5F295",
"nX c #FBF3A8",
"mX c #F9F4A8",
"MX c #FDF4B8",
"NX c #FFF5C6",
"BX c #FFF6C8",
"VX c None",
/* pixels */
"VXVXVXVXVXVXVXVXVXVXVXVXVXVXVXVXVXVXVXVXVXVXVXVXVXVXVXVXVXVXVXVX",
"VXVXVXVXVXVXVXVXVXVXVXVXVXVXVXVXVXVXVXVXVXVXVXVXVXVXVXVXVXVXVXVX",
"VXVXVXVXVXVXVXVXVXVXVXVXVXVXVXVXVXVXVXVXVXVXVXVXVX' VXVXVXVXVXVX",
"VXVXVXVXVXVXVXVXVXVXVXVXVXVXVXVXVXVXVXVXVX/ v 4XBX5X4 >.VXVXVXVX",
"VXVXVXVXVXVXVXVXVXVXVXVXVXVXVXVXVXVXVXVXVXh w k 3X5 C 3 ) VXVXVX",
"VXVXVXVXVXVXVXVXVXVXVXVXVXVXVXVXVXVXVXx c n b B ,X$.l 3 N VXVXVX",
"VXVXVXVXVXVXVXVXVXVXVXVXVXVXVXVXVXVXVXVXj f m ,.xXyX8X/ VXVXVXVX",
"VXVXVXVXVXVXVXVXVXVXVXVXVXVXVXVXVXVXVXVX_ M d C.bXkX&Xm.VXVXVXVX",
"VXVXVXVXVXVXVXVXVXVXVXVXVXg.z.-XnXNXI.cX6XF p W pXfX=.VXVXVXVXVX",
"VXVXVXVXVXVXVXVXVXVXVXVXVXI.^.d.|.$X.XdXnX7.5.p.<.VXVXVXVXVXVXVX",
"VXVXVXVXVXVXVXVXVXVXVXVXVX#Xx.K Z r i #.yX9XT.VXVXVXVXVXVXVXVXVX",
"VXVXVXVXVXVXVXVXVXVXVXVXqX/.+.VXVXs e 8.].>X{.VXVXVXVXG.VXVXVXVX",
"VXVXVXVXVXlX7XVXVXVXVXVXB.+XVXVXVXE { w.<X:X XVXVXVXe.k.j.VXVXVX",
"VXVXVXF.*X`.OXVXVXVXVXVX'.^.VXVXO.V.(.m.jX@X-.VXD.l.t.1. .VXVXVX",
"VXVXH.oX,Xp.[ ^ VXVXVXM.[.Y.* V (.E.2Xp.hX@.4.uX;Xr.VXVXVXVXVXVX",
"VXVXf.} ( a a.zXVXVXVXq t 0 O   P E.E.v.h.U A.A.3.VXVXVXVXVXVXVX",
"VXVXVXVXVXVXG iXeXVX= -   8 O   O o.! VXVX..1.| VXVXVXVXVXVXVXVX",
"VXVXVXVXVXVXVXp.rXP.I $         $ $ t VXVXVXX.VXVXVXVXVXVXVXVXVX",
"VXVXVXVXVXVXVX` H.W.9.7     . > $   & VXVXVXVXVXVXVXVXVXVXVXVXVX",
"VXVXVXVXVXVXVXVX] W.b.L ; , 6 <     $ g VXVXVXVXVXVXVXVXVXVXVXVX",
"VXVXVXVXVXVXVXVXL *.VXVXVXVXVX9   : R sXc.VXVXVXVXVXVXVXVXVXVXVX",
"VXVXVXVXVXVXVXVXVXVXVXVXVXVXVXu 1 S s.=X).;.VXVXVXVXVXVXVXVXVXVX",
"VXVXVXVXVXVXVXVXVXVXVXVXVXVXVXVXVXVX~ 9.W.Z.VXVXVXVXVXVXVXVXVXVX",
"VXVXVXVXVXVXVXVXVXVXVXVXVXVXVXVXVXVXVXVXW.0XaXXXVXVXVXVXVXVXVXVX",
"VXVXVXVXVXVXVXVXVXVXVXVXVXVXVXVXVXVXVXVX5.b.E.1X XVXVXVXVXVXVXVX",
"VXVXVXVXVXVXVXVXVXVXVXVXVXVXVXVXVXVXVXVXW F Y K.(.L.VXvXMX}.VXVX",
"VXVXVXVXVXVXVXVXVXVXVXVXVXVXVXVXVXVXVXVXVXVXVXVX&.%.:.gXwXVXVXVX",
"VXVXVXVXVXVXVXVXVXVXVXVXVXVXVXVXVXVXVXVXVXVXVXVXVXD T f.VXVXVXVX",
"VXVXVXVXVXVXVXVXVXVXVXVXVXVXVXVXVXVXVXVXVXVXVXVXVXVXJ VXVXVXVXVX",
"VXVXVXVXVXVXVXVXVXVXVXVXVXVXVXVXVXVXVXVXVXVXVXVXVXVXVXVXVXVXVXVX",
"VXVXVXVXVXVXVXVXVXVXVXVXVXVXVXVXVXVXVXVXVXVXVXVXVXVXVXVXVXVXVXVX",
"VXVXVXVXVXVXVXVXVXVXVXVXVXVXVXVXVXVXVXVXVXVXVXVXVXVXVXVXVXVXVXVX"
};
