/* XPM */
static char *kigo[] = {
/* columns rows colors chars-per-pixel */
"32 32 256 2",
"   c #000200",
".  c #24360A",
"X  c #211E26",
"o  c #2E2E2D",
"O  c #333927",
"+  c #244700",
"@  c #334D0A",
"#  c #314B07",
"$  c #2E5400",
"%  c #325400",
"&  c #3A5C02",
"*  c #375707",
"=  c #436B04",
"-  c #587C1A",
";  c #445529",
":  c #4F6031",
">  c #5F7837",
",  c #3C3647",
"<  c #3B3052",
"1  c #453C56",
"2  c #50504F",
"3  c #51495F",
"4  c #535353",
"5  c #5B5B5B",
"6  c #5A585B",
"7  c #5D694A",
"8  c #626E4F",
"9  c #554F63",
"0  c #5D536F",
"q  c #655F6F",
"w  c #645974",
"e  c #626262",
"r  c #676173",
"t  c #6F7070",
"y  c #757576",
"u  c #7B7B7B",
"i  c #4A8A00",
"p  c #508700",
"a  c #578F00",
"s  c #55830C",
"d  c #588608",
"f  c #5C8D02",
"g  c #559100",
"h  c #5B9203",
"j  c #5E9C00",
"k  c #5D920C",
"l  c #5A8416",
"z  c #5D8B14",
"x  c #5B8618",
"c  c #5E8C18",
"v  c #5F9013",
"b  c #619D01",
"n  c #62960B",
"m  c #629A0A",
"M  c #618F17",
"N  c #629414",
"B  c #639318",
"V  c #6A9C1B",
"C  c #689A16",
"Z  c #6AA30E",
"A  c #6DAA0C",
"S  c #66A300",
"D  c #72AE0E",
"F  c #6DA414",
"G  c #6FA913",
"H  c #6EA41C",
"J  c #72AB14",
"K  c #72A61D",
"L  c #76AC1C",
"P  c #70A616",
"I  c #75B114",
"U  c #7AB31B",
"Y  c #5F8527",
"T  c #658A29",
"R  c #689520",
"E  c #6C9924",
"W  c #6E992A",
"Q  c #719D2C",
"!  c #658039",
"~  c #739C36",
"^  c #71933B",
"/  c #759B3A",
"(  c #73A624",
")  c #76AA22",
"_  c #79AD27",
"`  c #74A22C",
"'  c #7BAC2C",
"]  c #77AC2A",
"[  c #7FB625",
"{  c #7EAD33",
"}  c #7BA33C",
"|  c #7AA536",
" . c #7FB230",
".. c #6F8846",
"X. c #758C4C",
"o. c #749143",
"O. c #7CA441",
"+. c #7FA840",
"@. c #778065",
"#. c #80AE2E",
"$. c #81B42D",
"%. c #87BD2D",
"&. c #81AF35",
"*. c #82AC3D",
"=. c #83B234",
"-. c #89BB34",
";. c #84B13B",
":. c #8BB63E",
">. c #8BBC3B",
",. c #84B833",
"<. c #88C628",
"1. c #92D22F",
"2. c #8EC333",
"3. c #83AB43",
"4. c #84A64B",
"5. c #86AD49",
"6. c #89AD4D",
"7. c #81A647",
"8. c #85B141",
"9. c #8EBB41",
"0. c #89B249",
"q. c #8AB549",
"w. c #91BC46",
"e. c #93BF4B",
"r. c #87A952",
"t. c #89AD51",
"y. c #8BAC59",
"u. c #90AF5C",
"i. c #8CB251",
"p. c #8FB15A",
"a. c #92B55C",
"s. c #97BE58",
"d. c #95BA58",
"f. c #849664",
"g. c #808677",
"h. c #8F9A7B",
"j. c #899876",
"k. c #90AE66",
"l. c #94B465",
"z. c #98B766",
"x. c #97B867",
"c. c #9ABA66",
"v. c #9DBE6A",
"b. c #98B26C",
"n. c #95A974",
"m. c #9CB571",
"M. c #9DBA71",
"N. c #A1BF74",
"B. c #A3BC7C",
"V. c #A0B67C",
"C. c #95C348",
"Z. c #97C251",
"A. c #9DC353",
"S. c #9DCA53",
"D. c #9CC35C",
"F. c #A4DC4A",
"G. c #A0C857",
"H. c #A0CB5F",
"J. c #A9DA5D",
"K. c #ABE058",
"L. c #9EC563",
"P. c #A7CE68",
"I. c #A3CA65",
"U. c #ABD16D",
"Y. c #B2DF6A",
"T. c #A5C373",
"R. c #AECC7C",
"E. c #A6C278",
"W. c #ACD173",
"Q. c #B0D27D",
"!. c #B7E66C",
"~. c #BCE57F",
"^. c #C0E77F",
"/. c #C4EF7E",
"(. c #C3F377",
"). c #776D86",
"_. c #796F89",
"`. c #7D7785",
"'. c #7D7091",
"]. c #807591",
"[. c #848683",
"{. c #888987",
"}. c #89888A",
"|. c #87858A",
" X c #929989",
".X c #8C8693",
"XX c #8B8793",
"oX c #908C97",
"OX c #99A684",
"+X c #A6BD83",
"@X c #AABF85",
"#X c #A7B98A",
"$X c #AEB79D",
"%X c #ADBB98",
"&X c #B0BC9E",
"*X c #9283AD",
"=X c #9C92AB",
"-X c #9A95A3",
";X c #9B8AB6",
":X c #ADB4A4",
">X c #B0B5A6",
",X c #A9C284",
"<X c #AEC886",
"1X c #B0C88C",
"2X c #B5D486",
"3X c #B9D789",
"4X c #BCDB89",
"5X c #B9D688",
"6X c #AEC490",
"7X c #B6CF90",
"8X c #B5C79D",
"9X c #BACC9C",
"0X c #BDD299",
"qX c #BCE283",
"wX c #BCCDA2",
"eX c #BBC3AC",
"rX c #BBC7A5",
"tX c #BED1A3",
"yX c #C3D89F",
"uX c #C2E689",
"iX c #C7EA8D",
"pX c #C2D5A4",
"aX c #C4DBA1",
"sX c #CCDFAF",
"dX c #C6DBA8",
"fX c #C1C9B2",
"gX c #CAD7B4",
"hX c #D6F0AA",
"jX c #D4E3BD",
"kX c #D2E3B6",
"lX c #BAB4C3",
"zX c #C6BFD1",
"xX c #CED6C0",
"cX c #CFCAD8",
"vX c #DBD9DE",
"bX c #D8DED0",
"nX c #DCEDC1",
"mX c #D9E6C4",
"MX c #DEE2DA",
"NX c #ECF8D8",
"BX c #E4DCEE",
"VX c #E4D9F8",
"CX c #E8E9E7",
"ZX c #EDEDED",
"AX c #E7E7E7",
"SX c #F0F1EF",
"DX c #F3F9E9",
"FX c #EDEAF2",
"GX c #F3EBFE",
"HX c #F3E3FF",
"JX c #F3F3F3",
"KX c #F7F8F6",
"LX c #FDF3FF",
"PX c #FEFEFE",
"IX c #F6F5F7",
"UX c None",
/* pixels */
"UXUXUXUXUXUXUXUXUXUXUXUXUXUXUXUXUXUXUXUXUXUXUXUXUXUXUXUXUXUXUXUX",
"UXUXUXUXUXUXUXUXUXUXUXUXUXUXUXUXUXUXUXUXUXUXUXUXUXUXUXUXUXUXUXUX",
"UXUXUXUXUXUXUXUXUXUXUXUXUXUXUXUXUXUXUXUXUXUXUXUXUXUXUXUXUXUXUXUX",
"UXl hX2X2X5X3X3X3X3X4X4X4X4XuXuXuXuX4X4X4X4X4X4X4X5X2XR.3XiX& UX",
"UXT DX8XwXwXrXwXwXwXwXwXtXaX&X:X>X8XaXtXwXwXwXwXwXwXwXrXgXNX$ UX",
"UXT mXV.+X+X+X@X,X,X,X<X<X[.XXoXoX|.h.2X,X,X,X,X,X@X,X+X6XnX% UX",
"UX~ jXn.B.V.B.B.V.B.B.R.@.].{.{.}.}.).n.R.E.B.E.M.+XB.M.,XjX= UX",
"UXO.sXk.m.m.v.m.M.M.T.P.9 u u u u u r @.W.M.M.M.M.M.v.m.M.mXs UX",
"UX0.pXy.k.l.b.l.x.x.c.L., 2 5 e e 5 1 8 U.c.c.x.x.x.x.l.l.kXz UX",
"UXi.9X4.y.y.p.p.a.a.a.I.O 3 5 2 2 e < > P.a.a.a.p.a.p.p.y.sXV UX",
"UXs.1XO.r.6.6.i.i.i.0.D.^ X w `.`.w O Z.d.q.i.i.i.t.t.5.4.dX( UX",
"UXL.E./ 5.7.5.5.5.5.0.q.S.T O e e ; { Z.0.0.0.0.5.0.5.7.O.aX] UX",
"UXI.N.~ } 3.} 3.3.3.8.8.8.C.:.Q ` 2.C.3.8.8.8.;.3.*.3.*.| 0X$.UX",
"UXP.x.E ( H K L _ { | { &.] A J G G { ;.;.{ ;.H m m k C W 7X,.UX",
"UXU.a.j ~ h. Xj.` I ' { F V rXMXMXV.m ) { ' b | gXMXgXy.i <X2.UX",
"UXU. .! ;X=X-X=X*X^ I Z ( LXPXPXPXPXvXm ) b b.PXPXPXPXPX#Xq.9.UX",
"UX!./ _.|.[.[.g.|.'.F j vXPXSXJXSXKXPX,Xj V LXPXJXJXJXPXPX@X<.UX",
"UX!.X.9 y y u u t 0 E A BXJXJXIXJXSXLXfXb 4.GXJXJXJXJXSXGXeX<.UX",
"UX(.> , 4 6 5 5 6 1 V J cXFXCXJXZXAXGX$XS *.VXAXZXSXCXCXBX%X1.UX",
"UXiXV o r 2 4 2 w o U D h.LXKXKXIXPXVXo.U C >XLXKXKXIXPXzX6.F.UX",
"UX^.2.+ < )._.].1 = 2.$.d lXPXPXPXLX Xn -.L > BXPXPXPXHX> :.J.UX",
"UX~.] I = ; 7 : l %.=.&.$.s f.eX$X..n >.=.;.D - OXeXOX- i I.J.UX",
"# qX` F %.I F U $.#.' ' =.-.F f h L >.=.&.&.=.$.h p a P H s.J.% ",
"& uX_ F ) _ $.=.=.-.:.9.w.w.A.S.G.G.Z.e.e.w.>.w.>.>.-.$.H D.!.& ",
"@ H z B B R E Q | | 7.0.p.d.c.v.E.E.N.c.a.p.t.6.7.} ~ W R x C @ ",
"# F x B B B N N N n k k k h h h a h a h h k h k k k z N z z V @ ",
". V x x x x x l x x x x x x x x x x x x x x x x l x l x x M V . ",
"UX                                                            UX",
"UXUXUXUXUXUXUXUXUXUXUXUXUXUXUXUXUXUXUXUXUXUXUXUXUXUXUXUXUXUXUXUX",
"UXUXUXUXUXUXUXUXUXUXUXUXUXUXUXUXUXUXUXUXUXUXUXUXUXUXUXUXUXUXUXUX",
"UXUXUXUXUXUXUXUXUXUXUXUXUXUXUXUXUXUXUXUXUXUXUXUXUXUXUXUXUXUXUXUX",
"UXUXUXUXUXUXUXUXUXUXUXUXUXUXUXUXUXUXUXUXUXUXUXUXUXUXUXUXUXUXUXUX"
};
