/* XPM */
static char *kigo___[] = {
/* columns rows colors chars-per-pixel */
"16 16 188 2",
"   c #2C4F00",
".  c #3A5F09",
"X  c #354D12",
"o  c #3B6100",
"O  c #3F4F24",
"+  c #40630A",
"@  c #516F1D",
"#  c #4C7111",
"$  c #425727",
"%  c #4A5A2F",
"&  c #5B7F23",
"*  c #5D7E27",
"=  c #5B7D2F",
"-  c #536534",
";  c #586F31",
":  c #5A7131",
">  c #597331",
",  c #5A7331",
"<  c #607C31",
"1  c #393146",
"2  c #3F354C",
"3  c #46385D",
"4  c #4C4E4C",
"5  c #544E5F",
"6  c #666E56",
"7  c #504465",
"8  c #534765",
"9  c #554A68",
"0  c #5B5860",
"q  c #615F63",
"w  c #61517A",
"e  c #727179",
"r  c #548900",
"t  c #519000",
"y  c #599104",
"u  c #5B9A00",
"i  c #5B801F",
"p  c #5F9115",
"a  c #609805",
"s  c #649F05",
"d  c #609609",
"f  c #629709",
"g  c #64990E",
"h  c #669E0C",
"j  c #608B16",
"k  c #608D16",
"l  c #618F16",
"z  c #608D19",
"x  c #618D19",
"c  c #639513",
"v  c #619214",
"b  c #619315",
"n  c #629214",
"m  c #639316",
"M  c #629415",
"N  c #669A17",
"B  c #619218",
"V  c #66921A",
"C  c #66901C",
"Z  c #6C9C1F",
"A  c #61A100",
"S  c #68A10C",
"D  c #6CA80B",
"F  c #73B108",
"G  c #6FA613",
"H  c #6DA11B",
"J  c #70A51F",
"K  c #77AD19",
"L  c #74AA1C",
"P  c #6A9623",
"I  c #628233",
"U  c #618530",
"Y  c #658334",
"T  c #668635",
"R  c #688635",
"E  c #6B8C35",
"W  c #698F36",
"Q  c #68853C",
"!  c #69883E",
"~  c #719532",
"^  c #719637",
"/  c #76AC22",
"(  c #77AD22",
")  c #76AC23",
"_  c #75A924",
"`  c #77A829",
"'  c #7DAD2F",
"]  c #7FAF2F",
"[  c #7FB424",
"{  c #7EB528",
"}  c #7AA934",
"|  c #718D45",
" . c #7E9C4D",
".. c #7F965E",
"X. c #7E8176",
"o. c #85BC26",
"O. c #85BD2D",
"+. c #80AC3B",
"@. c #81B333",
"#. c #82B530",
"$. c #8ABA36",
"%. c #89BF34",
"&. c #88B53F",
"*. c #8DBB3B",
"=. c #8FCC2E",
"-. c #8FC735",
";. c #8EC537",
":. c #90C53F",
">. c #80A448",
",. c #82A748",
"<. c #87B343",
"1. c #86B344",
"2. c #8CBA42",
"3. c #90BD4B",
"4. c #8AAD51",
"5. c #8BAF52",
"6. c #8CAB5D",
"7. c #8DAC5C",
"8. c #8CB150",
"9. c #8CB152",
"0. c #8DB352",
"q. c #8B9F6B",
"w. c #8CA168",
"e. c #94B363",
"r. c #95B563",
"t. c #98B965",
"y. c #9ABA65",
"u. c #98B370",
"i. c #9DB573",
"p. c #9FB978",
"a. c #A2BB77",
"s. c #A3BE77",
"d. c #92C04A",
"f. c #99C84D",
"g. c #98C553",
"h. c #9CC357",
"j. c #99C555",
"k. c #A0CB56",
"l. c #A0CA5B",
"z. c #9CC161",
"x. c #A1C863",
"c. c #ABD668",
"v. c #A7C676",
"b. c #AAC978",
"n. c #AFD277",
"m. c #7D7487",
"M. c #7C758B",
"N. c #817B89",
"B. c #8C7BA6",
"V. c #929B82",
"C. c #9DA986",
"Z. c #9486A8",
"A. c #B1B2B2",
"S. c #B6B6B4",
"D. c #BEDE8D",
"F. c #AEC390",
"G. c #BFE288",
"H. c #CBE898",
"J. c #C5D8A7",
"K. c #C6D9A7",
"L. c #C4D5A8",
"P. c #C4D5A9",
"I. c #C8D7A9",
"U. c #C5D8A8",
"Y. c #C8DCA9",
"T. c #C9DCA9",
"R. c #C8DEA8",
"E. c #CEDDB6",
"W. c #CCE8A3",
"Q. c #CDE6A9",
"!. c #D3EDAB",
"~. c #D3DBC8",
"^. c #D4D2D4",
"/. c #D9E6C3",
"(. c #D9E1CA",
"). c #E5F4CF",
"_. c #EEFFD2",
"`. c #F8FFD9",
"'. c #E6EBE2",
"]. c #EBE1F8",
"[. c #F3EFF7",
"{. c #F4EAFF",
"}. c #FCEDFF",
"|. c #FFF2FF",
" X c #FFFBFF",
".X c #FFFCFF",
"XX c #FFFFFF",
"oX c None",
/* pixels */
"oXoXoXoXoXoXoXoXoXoXoXoXoXoXoXoX",
"oX! ; : : , < = ~ E Y Q Y U ^ oX",
"oX`.J.Y.Y.Q.I.S.A.P.P.P.P.P._.oX",
"oXW.u.p.a.v.e N.M.q.v.a.a.i.!.oX",
"oXD.6.e.y.z.1 0 5 4 x.y.r.7.H.oX",
"oXn.>.4.4.g.- 8 9 Q j.0.9.>.H.oX",
"O l.H / @.<.O.y h %.<._ f y c.oX",
"$ ;...V.} D ` /.E.H S } (.F.:.X ",
"@ q.B.Z.M.u [.XXXX~.t XXXXXX).  ",
"* 6 8 q 3 a {.XXXX^.f }. X X'.o ",
"I P 2 w % F w.XX|. .A C.XX].9.# ",
"| =.S Z o.$.K V V [ *.G j r ;.W ",
"& / L { @.<.d.f.k.h.3.2.#./ ' i ",
". N z k B M M M n n n p k z c + ",
"oXoXoXoXoXoXoXoXoXoXoXoXoXoXoXoX",
"oXoXoXoXoXoXoXoXoXoXoXoXoXoXoXoX"
};
