/* XPM */
static char *kiriki___[] = {
/* columns rows colors chars-per-pixel */
"16 16 151 2",
"   c #581414",
".  c #620E0E",
"X  c #660E0E",
"o  c #6A0F0F",
"O  c #6D0E0E",
"+  c #740A0A",
"@  c #700E0E",
"#  c #750E0E",
"$  c #7D0A0A",
"%  c #7C0D0D",
"&  c #76100F",
"*  c #7E100F",
"=  c #611111",
"-  c #691211",
";  c #711111",
":  c #784845",
">  c #714C49",
",  c #714E4A",
"<  c #724F4B",
"1  c #724F4C",
"2  c #74504C",
"3  c #75514D",
"4  c #74504E",
"5  c #75524F",
"6  c #76524E",
"7  c #715652",
"8  c #78716B",
"9  c #78726C",
"0  c #797370",
"q  c #820909",
"w  c #840909",
"e  c #870909",
"r  c #840C0C",
"t  c #8A0A0A",
"y  c #8F0808",
"u  c #8F0A0A",
"i  c #8C0C0C",
"p  c #940909",
"a  c #960909",
"s  c #940A0A",
"d  c #9A0909",
"f  c #990A0A",
"g  c #9D0808",
"h  c #87100F",
"j  c #92100F",
"k  c #9D1110",
"l  c #9F1B1B",
"z  c #A40707",
"x  c #A50707",
"c  c #A60707",
"v  c #AE0707",
"b  c #A00808",
"n  c #A10909",
"m  c #A80808",
"M  c #AB0808",
"N  c #B60707",
"B  c #B80707",
"V  c #B90707",
"C  c #BA0707",
"Z  c #BC0707",
"A  c #BD0707",
"S  c #BE0707",
"D  c #BF0707",
"F  c #B20808",
"G  c #B80808",
"H  c #A7100F",
"J  c #A91E1E",
"K  c #B21010",
"L  c #B01817",
"P  c #AD2925",
"I  c #C10808",
"U  c #C20808",
"Y  c #C40808",
"T  c #C50808",
"R  c #C90A0A",
"E  c #C51010",
"W  c #C41616",
"Q  c #C51E1E",
"!  c #CB1818",
"~  c #CE1A1A",
"^  c #C92626",
"/  c #D12020",
"(  c #CD3D3D",
")  c #D23131",
"_  c #D83131",
"`  c #D83535",
"'  c #D43E3E",
"]  c #D93939",
"[  c #DD3B3B",
"{  c #E03F3F",
"}  c #B04444",
"|  c #BC6060",
" . c #CF4843",
".. c #C14848",
"X. c #DD4141",
"o. c #D64A49",
"O. c #DB4848",
"+. c #DE4E4E",
"@. c #D65250",
"#. c #D65651",
"$. c #DE5A57",
"%. c #E14141",
"&. c #E34747",
"*. c #E54646",
"=. c #E74848",
"-. c #E8504F",
";. c #E25351",
":. c #EB5251",
">. c #E65A5A",
",. c #E85E5C",
"<. c #EF5F5D",
"1. c #DC655F",
"2. c #DF6663",
"3. c #D27373",
"4. c #D07C7A",
"5. c #E46663",
"6. c #EC6864",
"7. c #EC6969",
"8. c #E2716B",
"9. c #E4736F",
"0. c #E7736F",
"q. c #EA716E",
"w. c #EE7B77",
"e. c #E77F78",
"r. c #EA7F7B",
"t. c #F37F7E",
"y. c #B88080",
"u. c #B88686",
"i. c #BA8F8F",
"p. c #BC9090",
"a. c #B79C9C",
"s. c #C0908F",
"d. c #EE8A85",
"f. c #E88C87",
"g. c #EB8D86",
"h. c #F28480",
"j. c #E0908F",
"k. c #F1948E",
"l. c #EE9992",
"z. c #F59E99",
"x. c #F99C99",
"c. c #F1A59F",
"v. c #F7A6A1",
"b. c #F5AAA5",
"n. c #FBA8A3",
"m. c #EEB2AB",
"M. c #F3B0AA",
"N. c #FAB0AA",
"B. c #FBB6B0",
"V. c #F4BAB4",
"C. c None",
/* pixels */
"C.C.C.C.C.C.C.C.C.C.C.C.C.C.C.C.",
"C.C.C.C.C.C.C.C.C.C.C.C.C.C.C.C.",
"C.C.m.V.M.c.l.f.e.8.1.#. .P C.C.",
"C.C.N.B.b.v.z.k.d.r.0.2.@.L 8 C.",
"C.C.n.f.i.4.h.w.q.5.$.o.W H 9 C.",
"C.C.x.0.s.j.6.,.;.O.) E Z k 9 C.",
"C.C.t.<.:.-.&.X.] ~ T I F j 9 C.",
"C.C.7.=.*.%.( u...Y Z V c h 9 C.",
"C.C.>.[ [ _ Q i.3.S G M g h 9 C.",
"C.C.+.` / R T Y S B M l f ; 9 C.",
"C.C.' ~ T U S B N J a.} u ; 9 C.",
"C.C.^ S G F M n g J | | q - 9 C.",
"C.C.K m n f s s t t w $ + = 9 C.",
"C.C.f s i r % # O O - X .   0 C.",
"C.C.: 7 6 2 2 2 > 2 > > > 7 C.C.",
"C.C.C.C.C.C.C.C.C.C.C.C.C.C.C.C."
};
