/* XPM */
static char *kiriki-16[] = {
/* columns rows colors chars-per-pixel */
"16 16 202 2",
"   c black",
".  c #6E0202",
"X  c #6B0808",
"o  c #720000",
"O  c #740000",
"+  c #740606",
"@  c #700C0C",
"#  c #7F0000",
"$  c #820000",
"%  c #820707",
"&  c #860101",
"*  c #860808",
"=  c #8E0000",
"-  c #8A0A0A",
";  c #811A1A",
":  c #8C1212",
">  c #891A19",
",  c #960000",
"<  c #900E0E",
"1  c #910E0E",
"2  c #921D1D",
"3  c #921F1F",
"4  c #9B1010",
"5  c #9D1717",
"6  c #882120",
"7  c #892322",
"8  c #892323",
"9  c #8F2827",
"0  c #912221",
"q  c #972322",
"w  c #902928",
"e  c #912A29",
"r  c #952D2C",
"t  c #952E2D",
"y  c #972E2D",
"u  c #9C2525",
"i  c #982A29",
"p  c #982B2B",
"a  c #992B2B",
"s  c #9B2E2D",
"d  c #993130",
"f  c #9C3333",
"g  c #A12424",
"h  c #A52727",
"j  c #A62C2C",
"k  c #A92828",
"l  c #AB2D2D",
"z  c #A0302F",
"x  c #A03737",
"c  c #A43232",
"v  c #A63434",
"b  c #A33939",
"n  c #A53C3A",
"m  c #A53C3B",
"M  c #A63C3B",
"N  c #A63D3C",
"B  c #A63D3D",
"V  c #A73E3D",
"C  c #A63E3E",
"Z  c #AA3231",
"A  c #AB3232",
"S  c #AB3332",
"D  c #AE3836",
"F  c #AA3C3A",
"G  c #A83E3D",
"H  c #A83F3E",
"J  c #AF3938",
"K  c #AD3C3B",
"L  c #B7423F",
"P  c #876B6C",
"I  c #916969",
"U  c #9D6160",
"Y  c #9D6463",
"T  c #957474",
"R  c #AB4140",
"E  c #AD4241",
"W  c #AE4443",
"Q  c #AC4C4A",
"!  c #AF5B59",
"~  c #B34040",
"^  c #B24241",
"/  c #B24343",
"(  c #B04544",
")  c #B04645",
"_  c #B14746",
"`  c #B24746",
"'  c #B34846",
"]  c #B34948",
"[  c #B44948",
"{  c #B54A49",
"}  c #B64B4A",
"|  c #B64C4B",
" . c #BA4242",
".. c #BB4644",
"X. c #B84E4C",
"o. c #B94F4D",
"O. c #BA4E4D",
"+. c #BA4F4E",
"@. c #BB4F4E",
"#. c #BB504F",
"$. c #B05351",
"%. c #BE5150",
"&. c #BE5251",
"*. c #BE5351",
"=. c #BF5352",
"-. c #BE5554",
";. c #B6605E",
":. c #A96260",
">. c #B06061",
",. c #B06161",
"<. c #B46664",
"1. c #B76564",
"2. c #B06867",
"3. c #B56D6C",
"4. c #B96462",
"5. c #BF706F",
"6. c #C0504E",
"7. c #C15553",
"8. c #C35655",
"9. c #C35754",
"0. c #C35755",
"q. c #C45756",
"w. c #C45856",
"e. c #C55857",
"r. c #C55958",
"t. c #C65A58",
"y. c #C65A59",
"u. c #C75A59",
"i. c #C55D5B",
"p. c #C75C59",
"a. c #C65C5B",
"s. c #C95C5B",
"d. c #CA5D5B",
"f. c #CB5E5C",
"g. c #CC5F5E",
"h. c #CD5F5E",
"j. c #CC605E",
"k. c #CD605F",
"l. c #CE615F",
"z. c #CF6160",
"x. c #C96C6B",
"c. c #C07E7D",
"v. c #CB7270",
"b. c #CD7473",
"n. c #D06260",
"m. c #D06261",
"M. c #D06462",
"N. c #D26463",
"B. c #D36463",
"V. c #D36564",
"C. c #D46664",
"Z. c #D56664",
"A. c #D56665",
"S. c #D66766",
"D. c #D66867",
"F. c #D66967",
"G. c #D76967",
"H. c #D86A68",
"J. c #D96A68",
"K. c #D96B69",
"L. c #DA6B6A",
"P. c #DB6C6A",
"I. c #DB6C6B",
"U. c #DC6B6A",
"Y. c #DC6C6A",
"T. c #DE6F6D",
"R. c #D07F7E",
"E. c #D87876",
"W. c #E0716F",
"Q. c #E17170",
"!. c #E17270",
"~. c #E37371",
"^. c #E47573",
"/. c #E57573",
"(. c #E77775",
"). c #E97977",
"_. c #EC7B79",
"`. c #848384",
"'. c #868687",
"]. c #898182",
"[. c #8E8384",
"{. c #958A8B",
"}. c #989899",
"|. c #9F9F9F",
" X c #A9A0A1",
".X c #A9A9A9",
"XX c #B8ACAC",
"oX c #BFB4B5",
"OX c #BBBBBB",
"+X c gray",
"@X c #C49594",
"#X c #CA9392",
"$X c #CB9595",
"%X c #CEAFAF",
"&X c #C8BEBF",
"*X c #D8A1A1",
"=X c #C1C1C1",
"-X c gray81",
";X c gray83",
":X c #DAD7D8",
">X c #EDDFE0",
",X c None",
/* pixels */
",X,X,X,X- u v K v q - , ,X,X,X,X",
",X,X,XD j.T  X$XF.N.0.c % = ,X,X",
",X,XL ^.E.`.=X>XH.z.:.1.C + $ ,X",
",Xg Y.^.).R.5.v.F.Y }.-X#X9 . # ",
", ~ Y.T.W.Q.I |.&X2.{.oX5.M X o ",
"5 @.1.[.XXR.P .X:Xx.w.*.O.M @ o ",
"j #.U }.;X*Xj.4.;.:.-.O.} t 7 > ",
"A 7.a.:.3.a.t.! '.&X%X} C 7 ` a ",
"A q.n.n.e.*.*.$.].OX@XC e M ` a ",
"A q.S.H.H.N.t.*.X.Q C f y | W 2 ",
"h T.).Q.I.S.h.t.*.` M f b ' C 1 ",
"4 U._.).Q.H.S.h.q.` f t E ` s ,X",
",X .Q.Q.W.Y.S.n.d.q.C t ' L : ,X",
",X,X..F.H.G.S.l.d.w.#.9 ` a ,X,X",
",X,X,Xl 6.n.j.d.t.q.#.@ 0 & ,X,X",
",X,X,X,X,Xk J / / F 2 * , ,X,X,X"
};
