/* XPM */
static char *kiriki[] = {
/* columns rows colors chars-per-pixel */
"32 32 158 2",
"   c black",
".  c #650202",
"X  c #690505",
"o  c #6B0808",
"O  c #730202",
"+  c #710E0E",
"@  c #7A0000",
"#  c #7F0808",
"$  c #761211",
"%  c #7A1414",
"&  c #7E1918",
"*  c #7D6A6A",
"=  c #757374",
"-  c #7E7778",
";  c #7A7A7B",
":  c #840101",
">  c #8B0202",
",  c #8A0C0C",
"<  c #831B1B",
"1  c #8B1313",
"2  c #950101",
"3  c #920A0A",
"4  c #980908",
"5  c #9C100F",
"6  c #911313",
"7  c #901B1A",
"8  c #9C1111",
"9  c #9F1918",
"0  c #9F201F",
"q  c #8B2423",
"w  c #8F2827",
"e  c #8F2928",
"r  c #972727",
"t  c #942C2C",
"y  c #992423",
"u  c #9A302F",
"i  c #9B3332",
"p  c #A31717",
"a  c #A11D1D",
"s  c #A52423",
"d  c #A42B2B",
"f  c #AB2727",
"g  c #AD2D2D",
"h  c #A9302F",
"j  c #A13333",
"k  c #A03837",
"l  c #A43B3A",
"z  c #A83F3D",
"x  c #B02E2E",
"c  c #B23535",
"v  c #B43837",
"b  c #B63E3D",
"n  c #A9403E",
"m  c #9D5554",
"M  c #805F60",
"N  c #876F6F",
"B  c #837475",
"V  c #8A7979",
"C  c #906768",
"Z  c #9C6B6A",
"A  c #9D7777",
"S  c #9A7F7F",
"D  c #A44C4C",
"F  c #AC4241",
"G  c #AB4C4B",
"H  c #A55D5B",
"J  c #AD5F5E",
"K  c #B14645",
"L  c #B24846",
"P  c #B54A49",
"I  c #B94D4C",
"U  c #BB504E",
"Y  c #B65D5C",
"T  c #BD5251",
"R  c #BA5857",
"E  c #BA5A59",
"W  c #B3605F",
"Q  c #BA615F",
"!  c #A06F6E",
"~  c #AD6462",
"^  c #A37474",
"/  c #AA7574",
"(  c #B36363",
")  c #BC6463",
"_  c #BD6C6B",
"`  c #BC706F",
"'  c #BC7271",
"]  c #C34D4B",
"[  c #C15554",
"{  c #C45856",
"}  c #C55A58",
"|  c #CA5C5B",
" . c #CE605E",
".. c #C16464",
"X. c #C26A69",
"o. c #CD6160",
"O. c #CB6D6B",
"+. c #C47372",
"@. c #C17878",
"#. c #CB7272",
"$. c #D26463",
"%. c #D66866",
"&. c #D76B69",
"*. c #D86967",
"=. c #DB6C6A",
"-. c #D3706E",
";. c #DE706E",
":. c #D07F7E",
">. c #E0706F",
",. c #E37472",
"<. c #E87776",
"1. c #E97876",
"2. c #EB7B79",
"3. c #91807F",
"4. c #CB807F",
"5. c #848384",
"6. c #8C8081",
"7. c #8B8B8C",
"8. c #9E8788",
"9. c #988F8F",
"0. c #929293",
"q. c #979798",
"w. c #9B9A9B",
"e. c #A98585",
"r. c #A98989",
"t. c #A59292",
"y. c #A09E9F",
"u. c #AA9594",
"i. c #B58584",
"p. c #B58D8C",
"a. c #BC8C8B",
"s. c #BC9594",
"d. c #A3A2A2",
"f. c #AAAAAA",
"g. c #B1A0A0",
"h. c #BAAEAE",
"j. c #B5B5B5",
"k. c #B8B2B2",
"l. c #BBBBBB",
"z. c #C79C9B",
"x. c #C4AAAA",
"c. c #C9A3A3",
"v. c #CBAEAE",
"b. c #C0B8B8",
"n. c #D0A3A2",
"m. c #D5B8B8",
"M. c #C3C2C2",
"N. c #C7C7C8",
"B. c #CCCCCD",
"V. c #D2C3C4",
"C. c #D3D3D3",
"Z. c #DBDADA",
"A. c #DFDFE0",
"S. c #E3E3E4",
"D. c #EAEAEB",
"F. c #EFEFF0",
"G. c #F3F3F3",
"H. c None",
/* pixels */
"H.H.H.H.H.H.H.H.H.2 2 3 3 , , 1 , , > 2 2 H.H.H.H.H.H.H.H.H.H.H.",
"H.H.H.H.H.H.H.H.3 3 j L {  .$.%.| { P i 7 > > 2 H.H.H.H.H.H.H.H.",
"H.H.H.H.H.H.2 3 h  .' 8.d.h.z.-.%.$.$.| | F < : > 2 H.H.H.H.H.H.",
"H.H.H.H.H.2 s | 2.` 5.d.b.Z.S.m.%.$.$.o.| } { l % : > H.H.H.H.H.",
"H.H.H.H.H.x >.2.2.! 5.d.M.Z.D.Z.%.%.$.o.| | { [ P % O > 2 H.H.H.",
"H.H.H.H.f >.<.2.2.+.; 0.f.M.N.x.%.%.$...A t.g.a.E P + X : 2 H.H.",
"H.H.H.4 $.>.,.<.2.2.` V 7.w.p.-.%.%.o.B q.j.B.A.V.T k o . : 2 H.",
"H.H.2 c =.>.,.>.>.<.<.>.;.>.#.@.#.$.~ ; w.l.Z.G.S._ P $ X . > H.",
"H.H.8 | =.=.;.;.>.;.>.>.O.3.d.j.N.v.) = 0.f.b.B.M.T I w X . X > ",
"H.4 g  .%.*.=.=.=.;.=.=.N 7.f.B.D.D.n.J B 0.w.t.( I L u o X . : ",
"H.9 L  .$._ S d.j.x.4.=.* 7.f.M.Z.A.c.} [ R R U I I L i o X . @ ",
"2 d I | o.- q.j.C.S.Z.&.~ ; 0.f.j.k.X.{ [ [ T I I P L t $ o . @ ",
"4 P U { W ; q.j.C.D.A.:. .Q Z A / } } E [ U I I P L L < + $ & O ",
"a I T [ } * 7.d.j.N.l.o.| } } { Y ^ r.i.) I I P L L l % < F n 1 ",
"s U [ } | Y C 6.0.e.) } } { { H 5.d.l.C.C.' P G L F q & F K F 7 ",
"s T [ | o. .T [ { [ { { [ [ [ * 7.f.B.D.G.v.K L F e < k L F n 7 ",
"s [ { | $.=.$.{ [ T T U [ I T M 5.d.l.B.C.s.F F t q w P L F n 7 ",
"f I { } | $.=.>.$.[ I I P I I G N 5.w.f.u.G l t w q l L F F z > ",
"s I [ } o.$.=.=.=.>.$.[ P P P L K D m D F i i t w t P L F n i 2 ",
"s I [ $.=.>.=.=.=.$.$.$.$.| { [ I I P F n i i t w i P L F n r H.",
"8 L o.1.<.<.>.=.=.=.$.$.| | } { T I L n l k u t w L P K F l 7 H.",
"2 g ,.2.2.1.,.>.=.=.*.$.$.| | } T L F n l i u e t P K F n k 4 H.",
"H.9 =.2.1.1.<.,.,.=.=.$.$.$.o.| } [ F l k i t w k P K F l y H.H.",
"H.4 ] <.<.<.<.,.>.=.=.=.$.$.o.| } { [ n i u t q F L F F l 6 H.H.",
"H.H.8 =.>.,.,.>.>.=.=.=.$.$. .| | } [ T l t w q L L F z y 2 H.H.",
"H.H.H.g =.=.>.=.=.=.=.*.%.$.$. .| } { [ I t q w P F F l 3 H.H.H.",
"H.H.H.H.x $.=.=.=.*.*.%.$.$. .| | } { [ T F q q L F F y H.H.H.H.",
"H.H.H.H.H.a } $.*.$.$.$.$. . .| | { } [ T I q w F F i 2 H.H.H.H.",
"H.H.H.H.H.H.8 v | $.$. .o.| | | } } [ [ T I w % k u 3 H.H.H.H.H.",
"H.H.H.H.H.H.H.H.8 b } | | | | } { [ [ [ T F % $ , > H.H.H.H.H.H.",
"H.H.H.H.H.H.H.H.H.H.p g K [ } [ [ [ U I F & $ : > H.H.H.H.H.H.H.",
"H.H.H.H.H.H.H.H.H.H.H.H.H.4 9 s u d y , , : 2 2 H.H.H.H.H.H.H.H."
};
