/* XPM */
static char *kiriki[] = {
/* columns rows colors chars-per-pixel */
"32 32 186 2",
"   c #5E0E0E",
".  c #551414",
"X  c #5B1414",
"o  c #521818",
"O  c #650E0E",
"+  c #6C0D0D",
"@  c #740C0C",
"#  c #7C0B0B",
"$  c #621313",
"%  c #6B1313",
"&  c #741212",
"*  c #7B1212",
"=  c #7C1D1C",
"-  c #772222",
";  c #67312F",
":  c #6C3634",
">  c #6E3835",
",  c #6F3938",
"<  c #733634",
"1  c #723937",
"2  c #793937",
"3  c #7A3B3A",
"4  c #735B58",
"5  c #76605C",
"6  c #766661",
"7  c #776965",
"8  c #78716D",
"9  c #797B76",
"0  c #830B0B",
"q  c #8B0A0A",
"w  c #990707",
"e  c #940A0A",
"r  c #9C0909",
"t  c #831212",
"y  c #891313",
"u  c #811E1D",
"i  c #931313",
"p  c #9F1616",
"a  c #A40707",
"s  c #AB0707",
"d  c #A30909",
"f  c #AB0808",
"g  c #B50707",
"h  c #BC0707",
"j  c #B30808",
"k  c #BC0A0A",
"l  c #A71010",
"z  c #A51D1C",
"x  c #83201F",
"c  c #872120",
"v  c #8B2322",
"b  c #912B29",
"n  c #97332E",
"m  c #9B3835",
"M  c #9D3D3A",
"N  c #AD2222",
"B  c #B72020",
"V  c #B82320",
"C  c #BC2C27",
"Z  c #B12D2D",
"A  c #A33636",
"S  c #AE3939",
"D  c #B63F3F",
"F  c #C00707",
"G  c #C30909",
"H  c #C90D0D",
"J  c #C51514",
"K  c #CB1414",
"L  c #C51B1B",
"P  c #CD1C1C",
"I  c #CA2524",
"U  c #C62C2C",
"Y  c #CB2C2B",
"T  c #D22727",
"R  c #D22C2C",
"E  c #C0342F",
"W  c #C63030",
"Q  c #CC3232",
"!  c #C43B35",
"~  c #CE3D3D",
"^  c #D43333",
"/  c #D83737",
"(  c #D43B3B",
")  c #DB3C3C",
"_  c #C8403A",
"`  c #9B4341",
"'  c #A14341",
"]  c #A64B47",
"[  c #A74848",
"{  c #BB4D4D",
"}  c #A9514D",
"|  c #AB5753",
" . c #AE5A59",
".. c #A76464",
"X. c #BE6161",
"o. c #B16D6D",
"O. c #B37C7C",
"+. c #CC4741",
"@. c #CE4D46",
"#. c #D44444",
"$. c #DD4343",
"%. c #D44C4B",
"&. c #DB4D4C",
"*. c #D3524E",
"=. c #C65654",
"-. c #C05D5B",
";. c #DB5453",
":. c #D55A53",
">. c #D95A57",
",. c #DC5D5B",
"<. c #E24545",
"1. c #E54A4A",
"2. c #E94D4D",
"3. c #E45453",
"4. c #EB5252",
"5. c #E35B5A",
"6. c #EC5B5A",
"7. c #D7625D",
"8. c #DB615D",
"9. c #E4605D",
"0. c #E8615F",
"q. c #CC6666",
"w. c #DC6361",
"e. c #DC6B63",
"r. c #DF766E",
"t. c #E36562",
"y. c #EC6664",
"u. c #E26966",
"i. c #E36F6C",
"p. c #EB6C69",
"a. c #F16362",
"s. c #F3716E",
"d. c #E67471",
"f. c #EA7571",
"g. c #E27A75",
"h. c #EC7975",
"j. c #EA7C79",
"k. c #F47370",
"l. c #E4837A",
"z. c #EC827D",
"x. c #F5827E",
"c. c #B59898",
"v. c #BBB3B3",
"b. c #BCBBBB",
"n. c #D59797",
"m. c #EE8682",
"M. c #E68C83",
"N. c #ED8C87",
"B. c #EF8C88",
"V. c #F28682",
"C. c #F08A85",
"Z. c #F18D8D",
"A. c #EC928C",
"S. c #F2928D",
"D. c #F9918C",
"F. c #EA9C93",
"G. c #E49D9D",
"H. c #F39793",
"J. c #F49B95",
"K. c #F59E99",
"L. c #FB9F9A",
"P. c #E2A39C",
"I. c #EBA59E",
"U. c #F5A39E",
"Y. c #D7AEAE",
"T. c #C3BBBB",
"R. c #D8B5B5",
"E. c #ECAAA2",
"W. c #E8A8A8",
"Q. c #F7A7A6",
"!. c #F9A6A0",
"~. c #F7A9A3",
"^. c #FAABA5",
"/. c #F6ADA8",
"(. c #FBAEA9",
"). c #F9B2AD",
"_. c #F9B6B3",
"`. c #FBB9B4",
"'. c #F9BFBA",
"]. c #FBC2BE",
"[. c #C3C3C3",
"{. c #CCCCCC",
"}. c #D9D8D8",
"|. c #E0CDCD",
" X c #FCC5C2",
".X c None",
/* pixels */
".X.X.X.X.X.X.X.X.X.X.X.X.X.X.X.X.X.X.X.X.X.X.X.X.X.X.X.X.X.X.X.X",
".X.X.X.X.X.X.X.X.X.X.X.X.X.X.X.X.X.X.X.X.X.X.X.X.X.X.X.X.X.X.X.X",
".X.X.X.X.X.X.X.X.X.X.X.X.X.X.X.X.X.X.X.X.X.X.X.X.X.X.X.X.X.X.X.X",
".X.X.X.X.X.X.X.X3 3 3 3 3 3 3 3 3 3 3 3 2 .X.X.X.X.X.X.X.X.X.X.X",
".X.X.X` P.E.E.I.I.A.M.M.l.g.r.e.7.7.:.*.@._ _ ! C C V v .X.X.X.X",
".X.X.X| K.`.].'.`._.)./.~.~.K.H.S.A.z.l.h.i.u.8.>.%.I z 5 .X.X.X",
".X.X.X} U.`.`.).).(.Q.U.U.J.H.Z.N.z.z.j.g.r.u.8.8.%.J p 6 .X.X.X",
".X.X.X] ).(.(.!.!.A.K.J.S.B.B.V.z.h.h.r.u.9.,.>.*.Y k i 7 .X.X.X",
".X.X.X' `.L.L.Z. .O.q.d.V.x.j.h.f.i.u.t.,.;.;.%.Q k g i 7 9 .X.X",
".X.X.XA  XD.D.-.v.b.[.7.h.s.p.p.y.9.5.;.&.%.#.Q k h j y 7 9 .X.X",
".X.X.XM  Xx.j.=.v.[.}.g.p.y.0.5.3.;.&.#.#.( I G k j f t 7 9 .X.X",
".X.X.Xn `.k.k.y.=.Y.W.5.5.4.3.3.$.$.$.( ^ J G h g j d t 7 9 .X.X",
".X.X.Xb Q.a.a.6.6.2.4.2.1.<.$.$.$.) ( P G G h h j f d & 7 9 .X.X",
".X.X.Xv J.4.4.2.2.2.2.<.<.$.$.( ( R H G G F h g f d e & 7 9 .X.X",
".X.X.Xv Z.2.2.1.<.<.<.<.$./ [ o.{ G G G h h h f d r q & 7 9 .X.X",
".X.X.Xv m.1.1.<.<.$.) ) ) S v.b.v.Y F k h h j f d r q % 7 9 .X.X",
".X.X.Xc h.<.$.$.) ) / / R Z b.{.}.%.F h h g s a w r 0 % 7 9 .X.X",
".X.X.Xc p.) ) ) ) / ^ P H G { R.G.G h h g g s a r e # $ 7 9 .X.X",
".X.X.Xc u.) ( / / T H H G G F G h h g g g s a w e q # $ 7 9 .X.X",
".X.X.Xc ,./ ^ ^ K H G G G F h h h g g g s d a w e q @ $ 7 9 .X.X",
".X.X.Xc ;.R R K H F G F h h h h g g g p ..c.D w q q @ X 7 9 .X.X",
".X.X.Xx %.Y L G F F F h g j j s s s f ' b.b.T.N q 0 & X 7 9 .X.X",
".X.X.Xc _ L G h h g g s f f a a r r r A b.{.|.z 0 # + X 7 9 .X.X",
".X.X.X= W k j f f f a a r r r r e e e e { n.q.# # # + o 7 9 .X.X",
".X.X.X= B f f d d r r r e e e q q q q 0 0 0 # # @ +   . 6 9 .X.X",
".X.X.X= l d r r e e e y q 0 0 0 # # # # # # @ @ + +   . 6 9 .X.X",
".X.X.X= r r e e q q 0 0 # # @ @ @ + + + + + O O O     . 7 .X.X.X",
".X.X.X- t 0 # * @ + + % % $ $ X X X .   X . . .   . . o 8 .X.X.X",
".X.X.X.X< < 1 1 1 , 1 , > < > 1 : : : : : : : : : ; : 4 9 .X.X.X",
".X.X.X.X.X.X9 9 9 9 9 9 9 9 9 9 9 9 9 9 9 9 9 9 9 9 9 9 .X.X.X.X",
".X.X.X.X.X.X.X.X.X.X.X.X.X.X.X.X.X.X.X.X.X.X.X.X.X.X.X.X.X.X.X.X",
".X.X.X.X.X.X.X.X.X.X.X.X.X.X.X.X.X.X.X.X.X.X.X.X.X.X.X.X.X.X.X.X"
};
