/* XPM */
static char *kjumpingcube___[] = {
/* columns rows colors chars-per-pixel */
"16 16 102 2",
"   c #464B4D",
".  c #646867",
"X  c #6C6E6A",
"o  c #6B6E6C",
"O  c #6B7270",
"+  c #717472",
"@  c #717572",
"#  c #747673",
"$  c #717674",
"%  c #727677",
"&  c #747774",
"*  c #767977",
"=  c #777B78",
"-  c #777D7A",
";  c #7B7D79",
":  c #7C7E7A",
">  c #7D817F",
",  c #808381",
"<  c #818582",
"1  c #858883",
"2  c #878985",
"3  c #888A87",
"4  c #8B8C87",
"5  c #8B8E89",
"6  c #8D8F8B",
"7  c #91928D",
"8  c #919490",
"9  c #939590",
"0  c #929491",
"q  c #939691",
"w  c #949591",
"e  c #949792",
"r  c #969792",
"t  c #A3A8A2",
"y  c #A7A9A3",
"u  c #ABAEAC",
"i  c #AEB0AD",
"p  c #B8BBB5",
"a  c #BCBFB8",
"s  c #BCBFBC",
"d  c #C6C6C3",
"f  c #C7C9C6",
"g  c #C8CAC5",
"h  c #C8CBC6",
"j  c #CDCECB",
"k  c #D0D1CE",
"l  c #D1D3CE",
"z  c #D2D2CF",
"x  c #D2D6CF",
"c  c #D5D7D3",
"v  c #D7D7D4",
"b  c #D4D8D0",
"n  c #D5D8D1",
"m  c #D6D9D3",
"M  c #D6DAD3",
"N  c #D8DBD4",
"B  c #D9DCD7",
"V  c #DADDD7",
"C  c #DBDED7",
"Z  c #DBDDD8",
"A  c #DDDFD9",
"S  c #DCDEDA",
"D  c #DDDFDA",
"F  c #DDE0D9",
"G  c #E0E2DC",
"H  c #E0E2DD",
"J  c #E0E3DD",
"K  c #E0E2DE",
"L  c #E1E2DE",
"P  c #E1E3DE",
"I  c #E3E3E1",
"U  c #E2E4E1",
"Y  c #E3E5E1",
"T  c #E4E4E0",
"R  c #E4E4E1",
"E  c #E4E5E2",
"W  c #E6E7E3",
"Q  c #E6E8E3",
"!  c #E7E8E4",
"~  c #E8E9E6",
"^  c #E9EAE6",
"/  c #E9EAE8",
"(  c #EAEAE8",
")  c #EAEAE9",
"_  c #EBEBE9",
"`  c #EBECE8",
"'  c #ECECE9",
"]  c #EEEEEB",
"[  c #EDEEEC",
"{  c #EEEEEC",
"}  c #EEEFEC",
"|  c #EFEFED",
" . c #EFF0ED",
".. c #F0F0EE",
"X. c #F0F0EF",
"o. c #F1F1F0",
"O. c #F2F2F0",
"+. c #F3F3F2",
"@. c #F4F5F3",
"#. c #F6F6F5",
"$. c #F8F8F7",
"%. c None",
/* pixels */
"%.%.%.%.%.%.%.%.%.%.%.%.%.%.%.%.",
"%.%.%.%.%.%.%.%.X.{ %.%.%.%.%.%.",
"%.%.%.%.%.%.H +.$.X.X.%.%.%.%.%.",
"%.%.%.%.%.b X.#.X.+.@.X.%.%.%.%.",
"%.%.%.%.d { +.' {  . .` / %.%.%.",
"%.%.%.j ' { ~ U   % ~ ! H I %.%.",
"%.%.%.k { W W ! u s W F D F %.%.",
"%.%.%.i v / H H U F D C Z / %.%.",
"%.%.%.3 < k I D Z B N M g 0 %.%.",
"%.%.%.e 7 w g D B M x M $ > %.%.",
"%.%.%.e X * y a x b f < . %.%.%.",
"%.%.%.%.9 o 3 @ p t - O %.%.%.%.",
"%.%.%.%.%.w : 7 5 @ = %.%.%.%.%.",
"%.%.%.%.%.%.5 : & # %.%.%.%.%.%.",
"%.%.%.%.%.%.%.4 1 %.%.%.%.%.%.%.",
"%.%.%.%.%.%.%.%.%.%.%.%.%.%.%.%."
};
