/* XPM */
static char *klickety[] = {
/* columns rows colors chars-per-pixel */
"32 32 256 2",
"   c #051F01",
".  c #2C0401",
"X  c #240606",
"o  c #300300",
"O  c #300801",
"+  c #002400",
"@  c #012900",
"#  c #57181E",
"$  c #5C1C22",
"%  c #662124",
"&  c #7A2929",
"*  c #13682A",
"=  c #02024E",
"-  c #04045B",
";  c #05086A",
":  c #06147A",
">  c #080E73",
",  c #8A1E13",
"<  c #892218",
"1  c #972514",
"2  c #A82C12",
"3  c #B93713",
"4  c #BF3207",
"5  c #DC3C01",
"6  c #DA3402",
"7  c #C43C11",
"8  c #C03B07",
"9  c #E23E01",
"0  c #DF4000",
"q  c #CD4918",
"w  c #DE5A19",
"e  c #DB4A11",
"r  c #E34201",
"t  c #EB4300",
"y  c #E74A0D",
"u  c #F34A00",
"i  c #FB4E00",
"p  c #F24200",
"a  c #FE5401",
"s  c #FF5B04",
"d  c #FF5D09",
"f  c #EA5517",
"g  c #E95813",
"h  c #FF620C",
"j  c #FF6511",
"k  c #FF6A15",
"l  c #FF6D19",
"z  c #FF721C",
"x  c #FF781D",
"c  c #DB582B",
"v  c #D35932",
"b  c #F15F21",
"n  c #E95922",
"m  c #DF6826",
"M  c #DF7532",
"N  c #E46829",
"B  c #F56324",
"V  c #FF7621",
"C  c #FF7A25",
"Z  c #F7702C",
"A  c #E3793A",
"S  c #EE713B",
"D  c #AE5F5C",
"F  c #B55D50",
"G  c #AA5F62",
"H  c #9C6577",
"J  c #A16475",
"K  c #C25D42",
"L  c #DE785C",
"P  c #EE7B4D",
"I  c #E9754A",
"U  c #E67954",
"Y  c #EA7C54",
"T  c #E47D5C",
"R  c #E17757",
"E  c #EE7749",
"W  c #DD7C64",
"Q  c #E07F64",
"!  c #308301",
"~  c #18AB00",
"^  c #1DB100",
"/  c #25A300",
"(  c #2DB800",
")  c #39B900",
"_  c #60A13E",
"`  c #43C200",
"'  c #4DCA00",
"]  c #53CE00",
"[  c #5AD301",
"{  c #41C118",
"}  c #65D907",
"|  c #62D01A",
" . c #6DE300",
".. c #74E500",
"X. c #7AE700",
"o. c #7CEA00",
"O. c #6CD426",
"+. c #71D825",
"@. c #7FE029",
"#. c #4A9B40",
"$. c #53A341",
"%. c #5AAD41",
"&. c #5FB142",
"*. c #62B842",
"=. c #65C244",
"-. c #FF822D",
";. c #FF842B",
":. c #FF8A35",
">. c #FF8A36",
",. c #FF923D",
"<. c #93D706",
"1. c #95D710",
"2. c #83ED00",
"3. c #85F000",
"4. c #8CF400",
"5. c #94FA00",
"6. c #9BFE01",
"7. c #98FB07",
"8. c #A2FF0B",
"9. c #A5FF07",
"0. c #A4FF12",
"q. c #A7FF18",
"w. c #A9FF1D",
"e. c #B1FF1B",
"r. c #A3D832",
"t. c #93EA34",
"y. c #AEFF2B",
"u. c #ABFF24",
"i. c #B2FF35",
"p. c #B4FF3D",
"a. c #B5FF24",
"s. c #E28241",
"d. c #FF9643",
"f. c #FF9A44",
"g. c #FF9F4B",
"h. c #E68459",
"j. c #F28257",
"k. c #FF8E4B",
"l. c #FFA34D",
"z. c #FFA84E",
"x. c #FFA552",
"c. c #FFAB54",
"v. c #FFAD58",
"b. c #FFB35E",
"n. c #DD836E",
"m. c #DC8B79",
"M. c #DA8575",
"N. c #DF9B60",
"B. c #E48264",
"V. c #E1876E",
"C. c #E3886E",
"Z. c #ED8B69",
"A. c #E18D78",
"S. c #E18D77",
"D. c #EA9379",
"F. c #DFAC75",
"G. c #FFA962",
"H. c #FFBB65",
"J. c #FFB765",
"K. c #FFAD71",
"L. c #FFB47B",
"P. c #ACD44F",
"I. c #B8FF45",
"U. c #B6FD47",
"Y. c #BCFF52",
"T. c #A4F340",
"R. c #B5D371",
"E. c #BCF576",
"W. c #C1FF5D",
"Q. c #C0FF57",
"!. c #FFC16B",
"~. c #FFCC75",
"^. c #FFC675",
"/. c #FFD67E",
"(. c #C3FF64",
"). c #C8FF6B",
"_. c #CBFF73",
"`. c #CFFF7F",
"'. c #051E96",
"]. c #6A7BE8",
"[. c #1C8EFA",
"{. c #1D99FC",
"}. c #249DF3",
"|. c #1DAAFF",
" X c #23ABFB",
".X c #24A3FA",
"XX c #23B4FE",
"oX c #2CBCFF",
"OX c #38ACF8",
"+X c #6595DF",
"@X c #5C9BE4",
"#X c #5D9BF1",
"$X c #4E9DF5",
"%X c #6A8AE4",
"&X c #6292EB",
"*X c #4AA3EA",
"=X c #5BAEF5",
"-X c #49BBFF",
";X c #5BB9FC",
":X c #53A1EB",
">X c #75AAED",
",X c #79ADED",
"<X c #64ABF1",
"1X c #6FAEF0",
"2X c #65B2F6",
"3X c #65BAFA",
"4X c #79B5F2",
"5X c #7ABCF6",
"6X c #71B9F6",
"7X c #6EAAEF",
"8X c #38C6FF",
"9X c #54C4FF",
"0X c #5CC4FF",
"qX c #5BCCFF",
"wX c #57C8FF",
"eX c #63C3FF",
"rX c #6AC3FE",
"tX c #6ACBFF",
"yX c #73C3FC",
"uX c #7EC4FC",
"iX c #DC9384",
"pX c #DF9C8F",
"aX c #DA938D",
"sX c #DD9D93",
"dX c #D88C82",
"fX c #E09381",
"gX c #E19C8D",
"hX c #EA9A82",
"jX c #E29E95",
"kX c #DFA09A",
"lX c #FFB985",
"zX c #FFB388",
"xX c #F1AB93",
"cX c #ACCE95",
"vX c #ADE789",
"bX c #FFDA88",
"nX c #FFCE84",
"mX c #D8FF92",
"MX c #FFE49B",
"NX c #E7D2AB",
"BX c #D4E2AB",
"VX c #E3FFA6",
"CX c #FFF4AE",
"ZX c #FFEDA7",
"AX c #81ACEB",
"SX c #8BABEB",
"DX c #8CB3EC",
"FX c #82B3EF",
"GX c #8CACF3",
"HX c #8CB1F6",
"JX c #83BAF3",
"KX c #8DBBF1",
"LX c #82B6F1",
"PX c #90B1F5",
"IX c #8CC3F8",
"UX c None",
/* pixels */
"UXUXUXUXUXUXUXUXUXUXUXUXUXUXUXUXUXUXUXUXUXUXUXUXUXUXUXUXUXUXUXUX",
"UXUXUXUXUXUXUXUXUXUXUXUXUXUXUXUXUXUXUXUXUXUXUXUXUXUXUXUXUXUXUXUX",
"UXUXUXUXUXUXUXUXUXUXUXUXUXUXUXUXUXUXUXUXUXUXUXUXUXUXUXUXUXUXUXUX",
"UX# aXjXsXsXjXjXjXjXjXjXjXjXxXH %XPXHXHXHXGXHXHXGXGXGXSXGX].UXUX",
"UX# aXsXsXsXpXpXgXgXgXgXgXgXxXH +XIXKXKXKXKXDXDXDXDXSXSXSX%X= UX",
"UX# dXaXaXiXiXiXiXfXfXfXfXfXhXJ +XIXJX5XJXJXJXFXFXAX,XAXSX%X= UX",
"UX$ M.m.m.m.m.m.m.S.S.A.S.A.D.G @XIXyXuX5X4X5X4X4X,X>X>X,X%X- UX",
"UX% n.n.n.n.n.V.C.C.C.C.C.C.Z.D #XyXyXyX6XyX6X6X6X1X1X7X>X&X; UX",
"UX% W W W W B.W B.B.B.B.B.B.Z.D @XtXtXtXrX3XrX3X3X2X<X<X<X#X; UX",
"UX& L L T T T T T T T h.B.j.j.F *XtXeXeXrXeXeX;X3X3X;X=X<X#X> UX",
"UX& R L R R U R Y Y Y Y P Y j.F *XqX0X0X0X0X0X;X;X;X;X=X=X$X: UX",
"UX< c c v I I I I P Y P P P s.K *XqXwXwXwXwX9X9X9X-XOXOX.X[.: UX",
"UX< 6 5 9 r y f f b b b B B B v OX8X8X8X8XoXoXoXXXXX|.|.|.{.'.UX",
"UX1 5 5 5 9 r r 9 9 r t t r t 7 }.XXXXXX X X X.X.X|.{.{.{.[.'.UX",
"UX1 5 5 5 5 0 0 r r r r r r r 8 $.=._ O.*.&.%.%.$.$.$.#.#.#.* UX",
"UX1 t t p u i i i a a s s d d y <.6.5.7.5.4.4.4.2.2.o.X... ./ UX",
"UX2 u t u u a a a d h j j j k w <.6.6.5.5.5.4.4.3.2.o.X...../ UX",
"UX2 i u a a a d j l z V x x ;.m <.9.9.6.6.5.5.4.4.3.2.2.X.X./ UX",
"UX3 a a a d h l V C ;.;.:.:.:.M 1.w.0.0.8.6.6.6.5.4.4.2.2.2.( UX",
"UX3 a a d k z C -.>.,.,.,.f.l.s.r.y.y.u.q.0.9.6.6.4.4.4.2.3.) UX",
"UX7 a h l V -.:.,.f.g.l.c.c.c.h.P.I.p.i.i.u.q.8.6.6.5.4.3.4.` UX",
"UX7 h l C -.,.d.g.x.v.b.b.H.H.N.P.W.Y.I.I.i.y.w.0.6.6.5.4.4.` UX",
"UXq l C -.,.f.l.v.J.H.!.^.~./.F.R.).(.W.Y.I.p.y.w.0.6.5.4.5.' UX",
"UXq x ;.>.f.x.c.J.!.~.~././.bXF.R.`._.(.W.Y.I.i.y.q.9.6.5.6.] UX",
"UXc ,.d.x.G.J.^.nXbXMXMXZXCXCXNXBXVXVXmXmX`._.W.Y.p.i.q.0.7.} UX",
"UXn Z Z k.k.G.K.L.lXlXlXzXzXxXxXcXvXvXvXE.E.(.W.Y.U.t.t.t.| { UX",
"UXp a a k C d.l.c.z.f.-.z s i 9 ! ( ]  .2.6.e.a.e.9.4.X.[ ` ^ UX",
"UX6 5 y f N N A s.A A N w e 5 8 ! ( ( ) ' ] | O.+.} } ] ) ( ~ UX",
"UXO . . . o o o o . . . . . X X   @ + + + + + + @ @ @ @ @ @ @ UX",
"UXUXUXUXUXUXUXUXUXUXUXUXUXUXUXUXUXUXUXUXUXUXUXUXUXUXUXUXUXUXUXUX",
"UXUXUXUXUXUXUXUXUXUXUXUXUXUXUXUXUXUXUXUXUXUXUXUXUXUXUXUXUXUXUXUX",
"UXUXUXUXUXUXUXUXUXUXUXUXUXUXUXUXUXUXUXUXUXUXUXUXUXUXUXUXUXUXUXUX"
};
