/* XPM */
static char *klickety___[] = {
/* columns rows colors chars-per-pixel */
"16 16 197 2",
"   c #4B1109",
".  c #501409",
"X  c #5F180A",
"o  c #6A1B09",
"O  c #722109",
"+  c #7A2810",
"@  c #0D450D",
"#  c #165B00",
"$  c #0B6B01",
"%  c #1D6600",
"&  c #237100",
"*  c #2C7A00",
"=  c #8F2201",
"-  c #903414",
";  c #D73603",
":  c #DE3602",
">  c #DE3800",
",  c #DE3904",
"<  c #DB3D07",
"1  c #E33B00",
"2  c #E53E00",
"3  c #CB400C",
"4  c #D84705",
"5  c #DF430B",
"6  c #CE4C1F",
"7  c #E84000",
"8  c #E94001",
"9  c #EA4906",
"0  c #E2460E",
"q  c #E9470F",
"w  c #F94A02",
"e  c #FB4F00",
"r  c #FF5202",
"t  c #FF5703",
"y  c #FF5E09",
"u  c #E75A1B",
"i  c #FF610C",
"p  c #FF620E",
"a  c #E96718",
"s  c #EA621D",
"d  c #FF6B16",
"f  c #FF6F1A",
"g  c #FF701D",
"h  c #FF7722",
"j  c #FF7B25",
"k  c #FF7E29",
"l  c #E87937",
"z  c #824E5A",
"x  c #945859",
"c  c #995F5C",
"v  c #9A5F5C",
"b  c #9D605A",
"n  c #99605D",
"m  c #CE6648",
"M  c #C46A57",
"N  c #E06340",
"B  c #E47049",
"V  c #E7744B",
"C  c #EA774D",
"Z  c #EC7A4D",
"A  c #F27C4C",
"S  c #C06E63",
"D  c #DD7861",
"F  c #C17C79",
"G  c #E27E60",
"H  c #E07E62",
"J  c #2B8107",
"K  c #38950B",
"L  c #3FBF05",
"P  c #719B1C",
"I  c #52A421",
"U  c #5CA421",
"Y  c #62A921",
"T  c #69AE21",
"R  c #6DB421",
"E  c #6FBB21",
"W  c #46C309",
"Q  c #6AD707",
"!  c #6BD709",
"~  c #74F000",
"^  c #7DF200",
"/  c #E88035",
"(  c #EA803C",
")  c #FF8131",
"_  c #FF8935",
"`  c #FF8B37",
"'  c #FF903C",
"]  c #FF923C",
"[  c #9BD900",
"{  c #82EF00",
"}  c #8AF200",
"|  c #8AF500",
" . c #88F900",
".. c #93F900",
"X. c #92FB00",
"o. c #94FA00",
"O. c #96FF00",
"+. c #99FF00",
"@. c #9BFE01",
"#. c #9DFF00",
"$. c #9FFF03",
"%. c #9EFF05",
"&. c #86E31B",
"*. c #88F215",
"=. c #A3FF0E",
"-. c #A8FF1A",
";. c #A8FF1C",
":. c #A9FF1E",
">. c #A5D823",
",. c #84E122",
"<. c #A4FC26",
"1. c #B1FF32",
"2. c #B5FF3D",
"3. c #E98B47",
"4. c #FF9C47",
"5. c #FF994C",
"6. c #EC835F",
"7. c #E89A52",
"8. c #FFA752",
"9. c #FFA954",
"0. c #FFB15C",
"q. c #D88172",
"w. c #DE8873",
"e. c #DE8875",
"r. c #E48060",
"t. c #E68160",
"y. c #E08973",
"u. c #E28A73",
"i. c #E78C72",
"p. c #FFBB64",
"a. c #FFB46A",
"s. c #E9B872",
"d. c #B1D747",
"f. c #B7FF44",
"g. c #BAFF43",
"h. c #C0FF58",
"j. c #C6FF5C",
"k. c #C2D96C",
"l. c #FFCB74",
"z. c #FFC67F",
"x. c #FFD77E",
"c. c #CAFF6D",
"v. c #C7FF70",
"b. c #444EB6",
"n. c #4A5CB7",
"m. c #5261BF",
"M. c #5062BE",
"N. c #5163BE",
"B. c #197BC8",
"V. c #5166C0",
"C. c #5167C3",
"Z. c #3687AA",
"A. c #1F8AC9",
"S. c #2490C9",
"D. c #2896C8",
"F. c #2D9BC8",
"G. c #2EA2C9",
"H. c #3899F9",
"J. c #6A9FD5",
"K. c #52A7DB",
"L. c #5DA4D9",
"P. c #7EA4D5",
"I. c #5F9DEE",
"U. c #6896E6",
"Y. c #7B99E2",
"T. c #46B3FF",
"R. c #4FBCFF",
"E. c #75AEF0",
"W. c #66B2F5",
"Q. c #65B7F8",
"!. c #66BEFC",
"~. c #74B1F1",
"^. c #75B7F4",
"/. c #76BBF7",
"(. c #54C2FF",
"). c #56C6FF",
"_. c #56CBFF",
"`. c #66C2FE",
"'. c #67C8FF",
"]. c #76C2FC",
"[. c #DF988D",
"{. c #E9A08F",
"}. c #EEA48F",
"|. c #F0B482",
" X c #E7A090",
".X c #E6A091",
"XX c #E6A394",
"oX c #B7D082",
"OX c #FFCD88",
"+X c #FFCD8B",
"@X c #C0F882",
"#X c #8FBCF2",
"$X c #91BAF2",
"%X c #90C0F5",
"&X c #90C4F6",
"*X c #92C9FB",
"=X c None",
/* pixels */
"=X=X=X=X=X=X=X=X=X=X=X=X=X=X=X=X",
"=Xx n c c n b z n.C.C.N.N.N.b.=X",
"=X[.XX.X X{.}.F P.*X&X%X$X$XY.=X",
"=Xq.e.w.w.u.i.S J.]./.^.~.E.U.=X",
"=XD H H 6.G 6.M L.'.`.!.Q.W.I.=X",
"=XN B V C Z A m K._.).(.R.T.H.=X",
"  , ; < 5 0 q 6 Z.G.F.D.S.A.B.=X",
". : > 1 2 7 7 4 P E R T Y U I @ ",
"X w t t i d g a [ #.@.X.| { ~ # ",
"o r i f ) _ ] / >.;.=.@...} ^ % ",
"O i g ` ] 9.0.7.d.f.1.-.%.o. .& ",
"+ j ` 8.l.l.OXs.k.c.h.2.<.#.O.* ",
"- ) 5.a.z.OXOX|.oX@Xv.j.g.<.*.J ",
"= 9 s ( 3.l u 3 K W ! ,.&.Q W $ ",
"=X=X=X=X=X=X=X=X=X=X=X=X=X=X=X=X",
"=X=X=X=X=X=X=X=X=X=X=X=X=X=X=X=X"
};
