/* XPM */
static char *klines___[] = {
/* columns rows colors chars-per-pixel */
"16 16 52 1",
"  c #2D283E",
". c #2D3537",
"X c #6A0D12",
"o c #731115",
"O c #601B23",
"+ c #7F2624",
"@ c #2B2B42",
"# c #831B17",
"$ c #86221E",
"% c #A1201F",
"& c #A2231F",
"* c #B4251F",
"= c #882022",
"- c #822927",
"; c #852925",
": c #912B29",
"> c #AF2D2B",
", c #A03E3A",
"< c #C62C29",
"1 c #CA3733",
"2 c #DB3F3B",
"3 c #B9433E",
"4 c #C5413E",
"5 c #CD443F",
"6 c #DF433E",
"7 c #A94140",
"8 c #CA4542",
"9 c #C84744",
"0 c #D34845",
"q c #D04C49",
"w c #CB504C",
"e c #D85550",
"r c #DF5954",
"t c #DE5F5B",
"y c #ED635E",
"u c #E46662",
"i c #E46862",
"p c #ED6863",
"a c #EE6D69",
"s c #EF726E",
"d c #EE736F",
"f c #EF7470",
"g c #ED7873",
"h c #F17976",
"j c #F07B76",
"k c #F28380",
"l c #F28783",
"z c #F18883",
"x c #F28E8A",
"c c #F4918E",
"v c #F39390",
"b c None",
/* pixels */
"bbbbbbbbbbbbbbbb",
"bbbbbbbbbbbbbbbb",
"bbbbbbbbbbbb3f1b",
"bbbbbbbbbbbbgx2b",
"bbbbbbbbb;t05qob",
"bbbbbbbbbrcybbbb",
"bbbbbbb+-4u>bbbb",
"bbbbbb;hh$b@.bbb",
"bbbbbb,zp#bbbbbb",
"bbbb:9&7=bbbbbbb",
"bbbbdv6bbbbbbbbb",
"bbbbia%bbbbbbbbb",
"bbws*O bbbbbbbbb",
"bbkz<bbbbbbbbbbb",
"bbe8Xbbbbbbbbbbb",
"bbbbbbbbbbbbbbbb"
};
