/* XPM */
static char *klines[] = {
/* columns rows colors chars-per-pixel */
"32 32 181 2",
"   c #3C1527",
".  c #3A1628",
"X  c #36192D",
"o  c #351B2F",
"O  c #341F30",
"+  c #3C292B",
"@  c #332E30",
"#  c #2D343A",
"$  c #2D353A",
"%  c #2B363F",
"&  c #313334",
"*  c #3E3133",
"=  c #5D0D15",
"-  c #4D161B",
";  c #4A101C",
":  c #5D111A",
">  c #6A0609",
",  c #740402",
"<  c #7F0604",
"1  c #7E0908",
"2  c #7F0F0E",
"3  c #711317",
"4  c #471620",
"5  c #481F27",
"6  c #7E242A",
"7  c #2C2E45",
"8  c #2A3244",
"9  c #2C3144",
"0  c #27384C",
"q  c #243850",
"w  c #850B09",
"e  c #870F0B",
"r  c #880C09",
"t  c #881413",
"y  c #861D1A",
"u  c #811A1C",
"i  c #891918",
"p  c #8F1F1E",
"a  c #931412",
"s  c #971713",
"d  c #981814",
"f  c #9B1A17",
"g  c #901A18",
"h  c #941A18",
"j  c #961E1C",
"k  c #9D1D1A",
"l  c #A21E1A",
"z  c #A1231E",
"x  c #822024",
"c  c #892826",
"v  c #8B2928",
"b  c #9F2A26",
"n  c #943130",
"m  c #963330",
"M  c #9C3131",
"N  c #A82320",
"B  c #AC2825",
"V  c #A12F2C",
"C  c #A03131",
"Z  c #A63130",
"A  c #A33430",
"S  c #A63E3A",
"D  c #B23633",
"F  c #BA3E3C",
"G  c #C32F2A",
"H  c #CF3833",
"J  c #C43D38",
"K  c #D23631",
"L  c #D23934",
"P  c #D73A35",
"I  c #D53D37",
"U  c #DF3C36",
"Y  c #DC3F39",
"T  c #B1433F",
"R  c #B9423D",
"E  c #C8423E",
"W  c #D6413C",
"Q  c #E44039",
"!  c #E8453F",
"~  c #B94341",
"^  c #B84441",
"/  c #BC4441",
"(  c #BF4743",
")  c #BB4B49",
"_  c #BF514E",
"`  c #C24542",
"'  c #C24846",
"]  c #C34946",
"[  c #C34C48",
"{  c #CB4B48",
"}  c #D34540",
"|  c #D64640",
" . c #DF4742",
".. c #C3504D",
"X. c #CF544F",
"o. c #D05653",
"O. c #DA5954",
"+. c #E04C46",
"@. c #E94943",
"#. c #E94A44",
"$. c #EA4E48",
"%. c #EB504B",
"&. c #EC524D",
"*. c #EB5751",
"=. c #EC5651",
"-. c #EB5853",
";. c #EB5A54",
":. c #EC5A55",
">. c #EA5C56",
",. c #E45E5B",
"<. c #EC5D59",
"1. c #DE625F",
"2. c #EB605A",
"3. c #EC625D",
"4. c #DF6460",
"5. c #DD6662",
"6. c #DB6864",
"7. c #E06A64",
"8. c #EE6863",
"9. c #E86965",
"0. c #EE6B66",
"q. c #E26E6A",
"w. c #EB6D68",
"e. c #EA6E6B",
"r. c #EF6F6B",
"t. c #E6736D",
"y. c #E7716E",
"u. c #E5736F",
"i. c #E8716D",
"p. c #EA716C",
"a. c #EF716D",
"s. c #EF726E",
"d. c #EF736F",
"f. c #F0736F",
"g. c #EF7470",
"h. c #EE7874",
"j. c #EF7875",
"k. c #F07471",
"l. c #F07571",
"z. c #F07671",
"x. c #F17672",
"c. c #F07774",
"v. c #F27975",
"b. c #F17A76",
"n. c #F07B77",
"m. c #F27B79",
"M. c #F17C79",
"N. c #F17E7A",
"B. c #F37F7B",
"V. c #F1807C",
"C. c #F2807C",
"Z. c #F2817D",
"A. c #F2827F",
"S. c #F18481",
"D. c #F38480",
"F. c #F38885",
"G. c #F38986",
"H. c #F58986",
"J. c #F38C87",
"K. c #F38C89",
"L. c #F3908D",
"P. c #F3928E",
"I. c #F4908C",
"U. c #F39290",
"Y. c #F39592",
"T. c #F49693",
"R. c #F49794",
"E. c #F69794",
"W. c #F49996",
"Q. c #F59997",
"!. c #F79896",
"~. c #F59B98",
"^. c #F49D9A",
"/. c #F49E9B",
"(. c #F79F9D",
"). c #F9A7A5",
"_. c #FBB6B5",
"`. c #FBBDBC",
"'. c #FDC6C5",
"]. c #FEDBDB",
"[. c None",
/* pixels */
"[.[.[.[.[.[.[.[.[.[.[.[.[.[.[.[.[.[.[.[.[.[.[.[.[.[.[.[.[.[.[.[.",
"[.[.[.[.[.[.[.[.[.[.[.[.[.[.[.[.[.[.[.[.[.[.[.[.[.[.[.[.[.[.[.[.",
"[.[.[.[.[.[.[.[.[.[.[.[.[.[.[.[.[.[.[.[.[.[.[.[.[.[.[.[.[.[.[.[.",
"[.[.[.[.[.[.[.[.[.[.[.[.[.[.[.[.[.[.[.[.[.[.[.[.[.[.V j [.[.[.[.",
"[.[.[.[.[.[.[.[.[.[.[.[.[.[.[.[.[.[.[.[.[.[.[.[.Z 4.k.f.J [.[.[.",
"[.[.[.[.[.[.[.[.[.[.[.[.[.[.[.[.[.[.[.[.[.[.[.[.4.`.!.K.&.d [.[.",
"[.[.[.[.[.[.[.[.[.[.[.[.[.[.[.[.[.[.[.[.[.[.[.[.h.!.E.D.#.d [.[.",
"[.[.[.[.[.[.[.[.[.[.[.[.[.[.[.[.[.[.[.[.[.[.[.[.t.A.m.<.W e [.[.",
"[.[.[.[.[.[.[.[.[.[.[.[.[.[.[.[.[.[.[.n o.9.{ h ' w.3.+.B > [.[.",
"[.[.[.[.[.[.[.[.[.[.[.[.[.[.[.[.[.[.[.p.].J.v.H [.6 C u ; [.[.[.",
"[.[.[.[.[.[.[.[.[.[.[.[.[.[.[.[.[.[.' H.(.^.a.Q r [.[.[.[.[.[.[.",
"[.[.[.[.[.[.[.[.[.[.[.[.[.[.[.[.[.[.( V.F.V.-.K < [.[.[.[.[.[.[.",
"[.[.[.[.[.[.[.[.[.[.[.[.[.[.[.[.[.[.[.y.f.<. .k [.[.[.[.[.[.[.[.",
"[.[.[.[.[.[.[.[.[.[.[.[.[.[.m ..[ c [.[.^ ` p = [.[.[.[.[.[.[.[.",
"[.[.[.[.[.[.[.[.[.[.[.[.[.S m.!.A.:.y [.[.. o 7 $ [.[.[.[.[.[.[.",
"[.[.[.[.[.[.[.[.[.[.[.[.[.6.).~.^.=.N @ [.[.0 % [.[.[.[.[.[.[.[.",
"[.[.[.[.[.[.[.[.[.[.[.[.* u.F.K.c.@.l + [.[.[.[.[.[.[.[.[.[.[.[.",
"[.[.[.[.[.[.[.[.[.[.[.[.[._ h.a.-.I 2 [.[.[.[.[.[.[.[.[.[.[.[.[.",
"[.[.[.[.[.[.[.[.& v R D [.[.) O.E i - [.[.[.[.[.[.[.[.[.[.[.[.[.",
"[.[.[.[.[.[.[.[.^ x.B.x.| [.[.5 4 + [.[.[.[.[.[.[.[.[.[.[.[.[.[.",
"[.[.[.[.[.[.[.[.y._.W.P.$.s [.[.7 [.[.[.[.[.[.[.[.[.[.[.[.[.[.[.",
"[.[.[.[.[.[.[.A h.P.P.g.! a [.[.[.[.[.[.[.[.[.[.[.[.[.[.[.[.[.[.",
"[.[.[.[.[.[.[.[.6.V.a.-.L w [.[.[.[.[.[.[.[.[.[.[.[.[.[.[.[.[.[.",
"[.[.[.[.[.[.V [.R 1.<.W g [.[.[.[.[.[.[.[.[.[.[.[.[.[.[.[.[.[.[.",
"[.[.[.[.^ e.g.,.z [.x : X 9 [.[.[.[.[.[.[.[.[.[.[.[.[.[.[.[.[.[.",
"[.[.[.[.v.'.U.v.P [.[.[.q $ [.[.[.[.[.[.[.[.[.[.[.[.[.[.[.[.[.[.",
"[.[.[.X.H.R.W.8.Y w [.[.[.[.[.[.[.[.[.[.[.[.[.[.[.[.[.[.[.[.[.[.",
"[.[.[./ N.S.a.%.G , [.[.[.[.[.[.[.[.[.[.[.[.[.[.[.[.[.[.[.[.[.[.",
"[.[.[.[.7.0.;.W t [.[.[.[.[.[.[.[.[.[.[.[.[.[.[.[.[.[.[.[.[.[.[.",
"[.[.[.[.[.M Z 3   [.[.[.[.[.[.[.[.[.[.[.[.[.[.[.[.[.[.[.[.[.[.[.",
"[.[.[.[.[.[.[.[.[.[.[.[.[.[.[.[.[.[.[.[.[.[.[.[.[.[.[.[.[.[.[.[.",
"[.[.[.[.[.[.[.[.[.[.[.[.[.[.[.[.[.[.[.[.[.[.[.[.[.[.[.[.[.[.[.[."
};
