/* XPM */
static char *kmahjongg[] = {
/* columns rows colors chars-per-pixel */
"32 32 151 2",
"   c #0E0000",
".  c #120100",
"X  c #1C0200",
"o  c #230300",
"O  c #2C0400",
"+  c #340400",
"@  c #3D0600",
"#  c #430600",
"$  c #4C0700",
"%  c #450801",
"&  c #4C0900",
"*  c #540901",
"=  c #5C0A01",
"-  c #57030A",
";  c #5A040A",
":  c #5F130A",
">  c #5C0F16",
",  c #501612",
"<  c #630C01",
"1  c #6C0C01",
"2  c #670909",
"3  c #740E01",
"4  c #7A0F00",
"5  c #6D1207",
"6  c #64140A",
"7  c #6E160C",
"8  c #771001",
"9  c #7E1000",
"0  c #7D170A",
"q  c #7D1A0C",
"w  c #621B13",
"e  c #6A1E14",
"r  c #601218",
"t  c #6F241C",
"y  c #72261C",
"u  c #74281F",
"i  c #641E25",
"p  c #6A2026",
"a  c #6D282E",
"s  c #742C23",
"d  c #76322A",
"f  c #7D3128",
"g  c #6A2C32",
"h  c #673936",
"j  c #743035",
"k  c #773338",
"l  c #7B393C",
"z  c #71423F",
"x  c #7D453F",
"c  c #784045",
"v  c #7C4B4F",
"b  c #831101",
"n  c #8C1300",
"m  c #811C0D",
"M  c #931400",
"N  c #981500",
"B  c #951803",
"V  c #881F13",
"C  c #842113",
"Z  c #812619",
"A  c #892719",
"S  c #8F2C1E",
"D  c #9E2410",
"F  c #922E1F",
"G  c #A22915",
"H  c #A02E1B",
"J  c #832E23",
"K  c #882E23",
"L  c #883529",
"P  c #933223",
"I  c #943A2D",
"U  c #9B3C2D",
"Y  c #813A30",
"T  c #993E30",
"R  c #83463F",
"E  c #8C473F",
"W  c #944439",
"Q  c #A24335",
"!  c #A74738",
"~  c #A24839",
"^  c #AF4E3F",
"/  c #944B42",
"(  c #9F5045",
")  c #93534C",
"_  c #99574F",
"`  c #854B50",
"'  c #8A5156",
"]  c #805659",
"[  c #915754",
"{  c #9C5B53",
"}  c #A34F43",
"|  c #AD574B",
" . c #A75B51",
".. c #AD5D51",
"X. c #A4655C",
"o. c #B96759",
"O. c #885C60",
"+. c #8B6C6E",
"@. c #986661",
"#. c #976C68",
"$. c #9D7575",
"%. c #A76C64",
"&. c #AB6C64",
"*. c #AB6F69",
"=. c #A5736E",
"-. c #AD746D",
";. c #B47267",
":. c #B3766E",
">. c #B9776E",
",. c #A47975",
"<. c #AB7A75",
"1. c #A77A78",
"2. c #AF7E78",
"3. c #B37C75",
"4. c #A8807D",
"5. c #B5807A",
"6. c #BC8278",
"7. c #C8887E",
"8. c #937F80",
"9. c #9B8384",
"0. c #9C8A8B",
"q. c #A58385",
"w. c #AD8D91",
"e. c #A39292",
"r. c #AA9697",
"t. c #AC9B9A",
"y. c #B39A9B",
"u. c #BC9D9D",
"i. c #ADA09F",
"p. c #C6A39F",
"a. c #C0ACAD",
"s. c #C7B5B4",
"d. c #C9B3B3",
"f. c #C5BEBD",
"g. c #C8BEBE",
"h. c #CCC0BE",
"j. c #C5C3C0",
"k. c #CCC3C2",
"l. c #D2C3C2",
"z. c #DAD0CF",
"x. c #D6D2D0",
"c. c #DDD7D6",
"v. c #DAD9D6",
"b. c #DED8D8",
"n. c #E1DAD9",
"m. c #E1E1DF",
"M. c #E4E4E2",
"N. c #E9E6E4",
"B. c #E9E9E6",
"V. c #EDECEA",
"C. c None",
/* pixels */
"C.C.C.C.C.C.C.C.C.C.C.C.C.C.C.C.C.C.C.C.C.C.C.C.C.C.C.C.C.C.C.C.",
"C.C.C.C.C.C.C.C.C.C.C.C.C.C.C.C.C.C.C.C.C.C.C.C.C.C.C.C.C.C.C.C.",
"C.C.C.C.C.C.} 6.;.;...| |  .W Y d s p t 6 6 < = % C.C.C.C.C.C.C.",
"C.C.C.C.C.W Q 7.o.U P H G D m 0 5 < * = = < = = # X O C.C.C.C.C.",
"C.C.C.C.C.&.I b 9 b M n n 3 n n b 1 < = * * * * # X   # C.C.C.C.",
"C.C.C.C.C.&.J 8 b b 3 b 9 O.w.[ N N N M 9 3 5 = % o . % C.C.C.C.",
"C.C.C.C.C.X.K 4 2 4 b b 4 i V.a.n b b 9 n M M b & o . % C.C.C.C.",
"C.C.C.C.C.X.A b b 3 3 b 4 ; k.2.n M N M n N N b = O . & C.C.C.C.",
"C.C.C.C.C.{ C 9 9 b b 3 4 ; g.=.b b 2 2 n N N N = + X = C.C.C.C.",
"C.C.C.C.C.) q 5 1 3 4 4 1 - g.$.v +.0.j.t.C n M = @ X < C.C.C.C.",
"C.C.C.C.C.( m 2 ] t.v +.9.i.v.c.g.d.u.b.V.u.n M = @ o < C.C.C.C.",
"C.C.C.C.C.^ b 9 j V.h.1.{ k c.{ 3 4 ; k.N.I 8 9 = # o < C.C.C.C.",
"C.C.C.C.C.! B M 3 w.l.4 1 - x./ 4 3 > v.%.b b 9 * % O < C.C.C.C.",
"C.C.C.C.C.T n n N a V.K 3 - v.l ; a 8.x.9 3 9 b * @ O = C.C.C.C.",
"C.C.C.C.C.L b b n 2 a.y.8.w.M.k.h.f.s.u.0 8 0 b = % + = C.C.C.C.",
"C.C.C.C.C.J 8 8 3 4 ` V.*.' B.~ n b 3 1 3 3 J 5 = @ + = C.C.C.C.",
"C.C.C.C.C.y 1 3 3 1 3 / b > m.P 4 b M b 4 1 / 3 = # @ * C.C.C.C.",
"C.C.C.C.C.s * 1 3 1 1 3 8 i M.F b b 3 n n F -.3 = % @ * C.C.C.C.",
"C.C.C.C.C.s : = 1 4 1 1 5 g B.Z 4 4 b m U >.:.9 = $ # * C.C.C.C.",
"C.C.C.C.C.u s * = 1 3 5 7 c N.E E _ %.3.3.3.>.M < $ # * C.C.C.C.",
"C.C.C.C.C.t =.@.#.=.<.<.<.q.n.2.<.<.<.<.3.3.-.b < & & < C.C.C.C.",
"C.C.C.C.C.t <.,.,.,.,.<.<.q.b.<.<.<.<.<.<.<.-.4 < * & < C.C.C.C.",
"C.C.C.C.C.t ,.<.,.,.,.<.,.q.k.<.<.<.<.<.<.<.=.1 < * & < C.C.C.C.",
"C.C.C.C.C.: ,.<.$.,.,.,.<.1.2.,.<.,.<.<.,.<.=.1 = * * = C.C.C.C.",
"C.C.C.C.C., $.,.,.,.,.,.,.<.<.,.$.,.<.<.<.<.=.< < = * * C.C.C.C.",
"C.C.C.C.C.# h c x x x x R R x R R x x c E E f < 1 1 < * C.C.C.C.",
"C.C.C.C.C.# % & $ $ $ $ * * * * = = = = = = < < 3 3 < * C.C.C.C.",
"C.C.C.C.C.C.@ + + + + + + + + @ @ % # % $ $ * < 1 8 = * C.C.C.C.",
"C.C.C.C.C.C.C.+ + + O + + + @ @ % $ & * * = < < 1 1 & < C.C.C.C.",
"C.C.C.C.C.C.C.C.C.C.C.C.C.C.C.C.C.C.C.C.C.C.C.C.C.C.C.C.C.C.C.C.",
"C.C.C.C.C.C.C.C.C.C.C.C.C.C.C.C.C.C.C.C.C.C.C.C.C.C.C.C.C.C.C.C.",
"C.C.C.C.C.C.C.C.C.C.C.C.C.C.C.C.C.C.C.C.C.C.C.C.C.C.C.C.C.C.C.C."
};
