/* XPM */
static char *kmines___[] = {
/* columns rows colors chars-per-pixel */
"16 16 83 1",
"  c #2D2D2D",
". c #2E3436",
"X c #313636",
"o c #363636",
"O c #38393A",
"+ c #3D3D3D",
"@ c #3E3E3E",
"# c #3B4143",
"$ c #404140",
"% c #424242",
"& c #464646",
"* c #484846",
"= c #494B4A",
"- c #4A4A4A",
"; c #4B4B4B",
": c #4C4C4B",
"> c #4E4E4E",
", c #50504F",
"< c #4A5250",
"1 c #4E5455",
"2 c #505050",
"3 c #515351",
"4 c #525252",
"5 c #535353",
"6 c #555555",
"7 c #555655",
"8 c #565656",
"9 c #585957",
"0 c #505A59",
"q c #595A58",
"w c #5A5A58",
"e c #5A5B5A",
"r c #5B5B5B",
"t c #585C5B",
"y c #5C5D5D",
"u c #5D5D5D",
"i c #5E5E5D",
"p c #5F5F5E",
"a c #4C6565",
"s c #5F6160",
"d c #597978",
"f c #5B7A79",
"g c #656764",
"h c #676865",
"j c #686A67",
"k c #64686A",
"l c #6B6C6A",
"z c #6C6D6B",
"x c #6F706D",
"c c #657A79",
"v c #737472",
"b c #747672",
"n c #747673",
"m c #767676",
"M c #777976",
"N c #7F817F",
"B c #508182",
"V c #599291",
"C c #539A9A",
"Z c #768684",
"A c #788683",
"S c #609D9C",
"D c #5FADAF",
"F c #7DADAD",
"G c #848583",
"H c #848683",
"J c #868884",
"K c #8B8C88",
"L c #8D8E8B",
"P c #8A958F",
"I c #91938F",
"U c #949692",
"Y c #9B9D98",
"T c #9E9F9C",
"R c #86B4B5",
"E c #A4A5A1",
"W c #A5A6A3",
"Q c #A6A9A3",
"! c #A9ABA7",
"~ c #ABACA9",
"^ c #B5B8B3",
"/ c #B8BBB4",
"( c None",
/* pixels */
"((((((((((((((((",
"((((((((((((((((",
"(((((.((((((((((",
"((k((ybHv3((#(((",
"(((1M~IUJg=X((((",
"(((st!^YKx9%((((",
"(((LWQ^Adcw% (((",
"((mNTWPFDC0+ (((",
"(((hmHAVRC>Oo(((",
"(((wljzfBa:*+(((",
"((((:8wyp5,:((((",
"((((+&:>588(((((",
"((((((28ry((((((",
"((((((((((((((((",
"((((((((((((((((",
"(((((((((((((((("
};
