/* XPM */
static char *kmines[] = {
/* columns rows colors chars-per-pixel */
"32 32 103 2",
"   c #000000",
".  c #1C1C1C",
"X  c #242424",
"o  c #2E3436",
"O  c #343434",
"+  c #343A3C",
"@  c #3B3C3C",
"#  c #383E41",
"$  c #3C6B6B",
"%  c #3F7374",
"&  c #3F7778",
"*  c #434443",
"=  c #414749",
"-  c #474D4D",
";  c #4B4C4C",
":  c #4C504F",
">  c #494D50",
",  c #455252",
"<  c #455D5D",
"1  c #535353",
"2  c #585957",
"3  c #555A5A",
"4  c #5B5B5B",
"5  c #60615F",
"6  c #4C6060",
"7  c #456B6B",
"8  c #536564",
"9  c #5F6464",
"0  c #427374",
"q  c #4F7776",
"w  c #4A7979",
"e  c #577271",
"r  c #5A7372",
"t  c #567F7D",
"y  c #5B7B7A",
"u  c #636462",
"i  c #676866",
"p  c #646A69",
"a  c #6C6D6B",
"s  c #6F706D",
"d  c #6E7374",
"f  c #657C7B",
"g  c #737572",
"h  c #757976",
"j  c #787976",
"k  c #7C7D7A",
"l  c #78817D",
"z  c #81827E",
"x  c #538484",
"c  c #598282",
"v  c #528D8D",
"b  c #56918F",
"n  c #4A9496",
"m  c #5C9B9A",
"M  c #648381",
"N  c #658886",
"B  c #6C8A87",
"V  c #6A8988",
"C  c #738584",
"Z  c #788784",
"A  c #7A8885",
"S  c #78918F",
"D  c #7C9896",
"F  c #7F9B98",
"G  c #64A2A4",
"H  c #61AEAE",
"J  c #7FADAF",
"K  c #63B4B5",
"L  c #69B1B1",
"P  c #70B6B5",
"I  c #72BCBA",
"U  c #78C7C8",
"Y  c #848682",
"T  c #878885",
"R  c #898B86",
"E  c #858C8C",
"W  c #8C8D8A",
"Q  c #91938F",
"!  c #879692",
"~  c #8F9893",
"^  c #949592",
"/  c #969894",
"(  c #999B97",
")  c #9B9C9A",
"_  c #96A19B",
"`  c #9FA19D",
"'  c #A1A29F",
"]  c #95A7A3",
"[  c #96A9A5",
"{  c #A5A7A2",
"}  c #A6A8A4",
"|  c #A9ABA6",
" . c #ADAFAB",
".. c #ADB3AD",
"X. c #B0B3AC",
"o. c #B3B5B1",
"O. c #B6B8B3",
"+. c #B9BBB6",
"@. c #BDC0BA",
"#. c #81C5C4",
"$. c #8EE0E0",
"%. c #D5FDFF",
"&. c None",
/* pixels */
"&.&.&.&.&.&.&.&.&.&.&.&.&.&.&.&.&.&.&.&.&.&.&.&.&.&.&.&.&.&.&.&.",
"&.&.&.&.&.&.&.&.&.&.&.&.&.&.&.&.&.&.&.&.&.&.&.&.&.&.&.&.&.&.&.&.",
"&.&.&.&.&.&.&.&.&.&.&.&.&.&.&.&.&.&.&.&.&.&.&.&.&.&.&.&.&.&.&.&.",
"&.&.&.&.&.&.&.&.&.&.&.&.&.&.&.&.&.&.&.&.&.&.&.&.&.&.&.&.&.&.&.&.",
"&.&.&.&.&.&.&.&.&.&.&.&.&.&.&.&.&.&.&.&.&.&.&.&.&.&.&.&.&.&.&.&.",
"&.&.&.&.&.&.&.&.&.&.o &.&.&.&.&.&.&.&.O &.&.&.&.&.&.&.&.&.&.&.&.",
"&.&.&.3 &.&.&.&.&.&.&.- a g g g a 5 1 = &.&.&.&.E - &.&.&.&.&.&.",
"&.&.&.# 3 9 &.&.&.&.j k k Q ^ W z g 4 1 ; &.&.d o &.&.&.&.&.&.&.",
"&.&.&.&.&.= 3 &.&.l { { W R ^ ^ z j i 4 : * : o &.&.&.&.&.&.&.&.",
"&.&.&.&.&.&.+ > u / o.o.| ^ Q ^ W l s 5 1 @ o O &.&.&.&.&.&.&.&.",
"&.&.&.&.&.&.&.> # 5  .O.O. .( Q W z s 5 2 ; * O &.&.&.&.&.&.&.&.",
"&.&.&.&.&.&.&.g > ^ { +.@.O.{ ~ R l g i 4 ; * O O &.&.&.&.&.&.&.",
"&.&.&.&.&.&.g ' { ( { ..O...] F B B f 9 2 ; * O O &.&.&.&.&.&.&.",
"&.&.&.&.a &.k ` { { { | | [ y $ 0 % x r 3 ; * O O .       &.&.&.",
"&.&.&.&.( Q j ( ) { { ) _ D 0 #.U n m q 6 ; O O O .     &.&.&.&.",
"&.&.&.&.&.&.a Y ^ / / / ! y b $.%.G L w 6 * O O O o &.&.&.&.&.&.",
"&.&.&.&.&.&.5 s l Y R Y Z N & K [ m I & < * O O O O &.&.&.&.&.&.",
"&.&.&.&.&.&.2 j 2 a g j d f x m K I v 7 > @ @ * @ @ &.&.&.&.&.&.",
"&.&.&.&.&.&.2 u k : i W R C M 0 0 x t e ; X ; * * &.&.&.&.&.&.&.",
"&.&.&.&.&.&.; 1 1 4 5 u a h Z S B y 8 - ; 1 1 * * &.&.&.&.&.&.&.",
"&.&.&.&.&.&.&.* ; : 2 2 4 4 2 g p i 5 5 2 1 ; ; ; &.&.&.&.&.&.&.",
"&.&.&.&.&.&.&.@ * ; : : 1 1 1 1 : : : 1 ; 1 1 : &.&.&.&.&.&.&.&.",
"&.&.&.&.&.&.&.&.@ * * ; ; ; ; 1 1 1 2 1 1 1 1 &.&.&.&.&.&.&.&.&.",
"&.&.&.&.&.&.&.&.&.* * ; ; 1 1 1 2 2 4 4 4 2 &.&.&.&.&.&.&.&.&.&.",
"&.&.&.&.&.&.&.&.&.&.; ; 1 1 1 4 4 5 u 4 4 &.&.&.&.&.&.&.&.&.&.&.",
"&.&.&.&.&.&.&.&.&.&.&.&.1 1 4 4 5 u 4 &.&.&.&.&.&.&.&.&.&.&.&.&.",
"&.&.&.&.&.&.&.&.&.&.&.&.&.&.&.&.&.&.&.&.&.&.&.&.&.&.&.&.&.&.&.&.",
"&.&.&.&.&.&.&.&.&.&.&.&.&.&.&.&.&.&.&.&.&.&.&.&.&.&.&.&.&.&.&.&.",
"&.&.&.&.&.&.&.&.&.&.&.&.&.&.&.&.&.&.&.&.&.&.&.&.&.&.&.&.&.&.&.&.",
"&.&.&.&.&.&.&.&.&.&.&.&.&.&.&.&.&.&.&.&.&.&.&.&.&.&.&.&.&.&.&.&.",
"&.&.&.&.&.&.&.&.&.&.&.&.&.&.&.&.&.&.&.&.&.&.&.&.&.&.&.&.&.&.&.&.",
"&.&.&.&.&.&.&.&.&.&.&.&.&.&.&.&.&.&.&.&.&.&.&.&.&.&.&.&.&.&.&.&."
};
