/* XPM */
static char *knetwalk-16[] = {
/* columns rows colors chars-per-pixel */
"16 16 248 2",
"   c black",
".  c #0C3304500000",
"X  c #0000000028BC",
"o  c #0000000032E8",
"O  c #00002259360B",
"+  c #000022DF3B5D",
"@  c #05F023893A17",
"#  c #068523EB3A11",
"$  c #077226F13D4E",
"%  c #00002E2E4036",
"&  c #20DF31823BAA",
"*  c #0000000056B7",
"=  c #000000005E81",
"-  c #00001E9E4F14",
";  c #003027C74363",
":  c #031F27BA41AC",
">  c #062D2AA04151",
",  c #06DA2A0745CF",
"<  c #06D52EF04828",
"1  c #091130514664",
"2  c #015633305A9B",
"3  c #00003DE65A34",
"4  c #052F39B85DD5",
"5  c #08183A0B5425",
"6  c #09E63FE1518E",
"7  c #155F2F6D4304",
"8  c #108530CD4755",
"9  c #1E3E34ED43DA",
"0  c #1CC935D846C2",
"q  c #19B83BBC4D46",
"w  c #1F3E39054C3C",
"e  c #073D3F946B07",
"r  c #000032C2755E",
"t  c #23733C304AA1",
"y  c #30C5401045AB",
"u  c #36093E3C428A",
"i  c #12B55B100C75",
"p  c #0000411A2617",
"a  c #0F5441055930",
"s  c #0B8948C35D9F",
"d  c #139942A75B32",
"f  c #1AC045E756B6",
"g  c #1F7F41695079",
"h  c #191F43265E14",
"j  c #098446E16474",
"k  c #0FBD48B0638C",
"l  c #0F4C4F466C5C",
"z  c #0E0D4F5E6D8B",
"x  c #032542307C37",
"c  c #0F8B4AED7393",
"v  c #0CF44D8B7442",
"b  c #0DB34F2E7F60",
"n  c #0B535D977E45",
"m  c #10C8435F6066",
"M  c #10384C036766",
"N  c #18324AC16344",
"B  c #158B4F81716B",
"V  c #167C52056C09",
"C  c #10CD59AB7711",
"Z  c #111B5C907FEB",
"A  c #1CD755447C8C",
"S  c #1BFD5E277DD5",
"D  c #20A340FC5466",
"F  c #2200430F5785",
"G  c #285542515413",
"H  c #2CFD446656B6",
"J  c #2D2F50295CE6",
"K  c #217052EC5C24",
"L  c #38ED4398482F",
"P  c #3B9F47814E13",
"I  c #3E2548D3499B",
"U  c #21E04C116729",
"Y  c #22954D0B6474",
"T  c #20FD516F66E8",
"R  c #20DB52906AD3",
"E  c #26B659AF7316",
"W  c #22875C257CF7",
"Q  c #2A8A56697120",
"!  c #37AE5E2D6BC1",
"~  c #3D8D540C6411",
"^  c #31AB582373AA",
"/  c #30645E2E75A1",
"(  c #3F9060557533",
")  c #3B90605478C1",
"_  c #367B639C56F5",
"`  c #3783648257A8",
"'  c #3FD76BD25817",
"]  c #333372A4420E",
"[  c #35D368587FA7",
"{  c #3BD361837596",
"}  c #3DBB62257A03",
"|  c #44354C0B4FAC",
" . c #4A124EAD5168",
".. c #47EB50B45611",
"X. c #4A525057530F",
"o. c #4D75555056B6",
"O. c #54F455BA5643",
"+. c #41C957126690",
"@. c #41755A586CC7",
"#. c #445F746854DA",
"$. c #4CCB764157E6",
"%. c #4858631F7071",
"&. c #59BB6A1E7166",
"*. c #59396EAD7E60",
"=. c #5E80722B7E44",
"-. c #640B671567B3",
";. c #656B685A68C4",
":. c #60B868866615",
">. c #6D5D6BB16E5D",
",. c #6D0C6F926F61",
"<. c #658375837B09",
"1. c #7437764476FE",
"2. c #00000E19819A",
"3. c #00000F0C82B6",
"4. c #00000BB6ACE6",
"5. c #000002F6B83B",
"6. c #0000046EBE3F",
"7. c #00001478B85B",
"8. c #000035F98FA2",
"9. c #0F995CAB886A",
"0. c #0A695CF19AD3",
"q. c #10CC4E139958",
"w. c #17F15F638612",
"e. c #1BEA5113A77A",
"r. c #098562D88815",
"t. c #1BED61768AF4",
"y. c #1E3D6EE68E38",
"u. c #20DA5DCC81EC",
"i. c #23EB5F5984BC",
"p. c #249A58CB83BE",
"a. c #263263FC89DE",
"s. c #25D368FA832A",
"d. c #299C607582F2",
"f. c #29FB637582EA",
"g. c #2FB863FD810C",
"h. c #2F5D67478831",
"j. c #2C5267CA8973",
"k. c #255862D9954A",
"l. c #287775E490C2",
"z. c #2CA573419F01",
"x. c #3FB66F948C3E",
"c. c #37AE6C76952B",
"v. c #31BB746F9B4D",
"b. c #3A2279619347",
"n. c #4067694781A6",
"m. c #425569798767",
"M. c #415A6FFC8349",
"N. c #464D720180C7",
"B. c #4E6D713C87DF",
"V. c #46A779DE99B0",
"C. c #51F6784986AF",
"Z. c #5DC57A7B8405",
"A. c #6134765B84E7",
"S. c #6E247D9C8667",
"D. c #62967E029110",
"F. c #5E2F89A02645",
"G. c #6A1F94021769",
"H. c #32B782289E94",
"J. c #3AC084EA9E70",
"K. c #38AA824FB0E8",
"L. c #3E6F8E5BC07E",
"P. c #48948246A592",
"I. c #4E6393F6C00B",
"U. c #50E28BA8A1EB",
"Y. c #527E9056A66D",
"T. c #5DFD8B6DA283",
"R. c #661083029652",
"E. c #67CE87909A94",
"W. c #6B3D89369700",
"Q. c #74F684629098",
"!. c #76E1862E91C1",
"~. c #7BF588A092D7",
"^. c #7D2C8DBD9A55",
"/. c #789292A89EC7",
"(. c #6F63933FA0A4",
"). c #6F1997C1B1FB",
"_. c #715F9B37AE0B",
"`. c #78369F0DB016",
"'. c #7A1F91A7A0D4",
"]. c #789F9DBFAA2F",
"[. c #4FDE908EC30D",
"{. c #4EC698F7C7CD",
"}. c #52399E5DCE9B",
"|. c #5CB0ACFFF31C",
" X c #6C63A22AC4A9",
".X c #8D4FA34C0000",
"XX c #9F529AB55BCC",
"oX c #C99099D56670",
"OX c #F1EAA7605BC7",
"+X c #FF61AB3F56B1",
"@X c yellow",
"#X c #FFFFFFFF20C1",
"$X c #FFFFFFFF3BB0",
"%X c #FFFFE4BC62FB",
"&X c #8420874687ED",
"*X c #84128F979952",
"=X c #8C9C9C96875F",
"-X c #8FD89FD38B5A",
";X c #839396DD9D59",
":X c #853C98D09F94",
">X c #980C95DE94C4",
",X c #9106972D9915",
"<X c #976C9E099EF5",
"1X c #9AF399E5994C",
"2X c #84539D90AA9E",
"3X c #8DA4A7BFB093",
"4X c #8C63ABF6B699",
"5X c #92ACA3EBA97F",
"6X c #94D9A0BCA9EB",
"7X c #90B7ADEFAB82",
"8X c #96A4ACC3AC4A",
"9X c #9A42A5EAAA21",
"0X c #9CB7A7E9AB61",
"qX c #A21B9C888C5A",
"wX c #A917A1A59EF9",
"eX c #A505B10D9A09",
"rX c #AE77B0C5934F",
"tX c #BECDAE01814B",
"yX c #A331AC46A9F0",
"uX c #AF99AC24AAFF",
"iX c #AB1DAE2FB146",
"pX c #ADF5B485B6B2",
"aX c #AAE1B5C6B96C",
"sX c #AEA9B66EBAAF",
"dX c #B193ADBCA34F",
"fX c #B838BBF8BD09",
"gX c #8F1BB23FC13C",
"hX c #913FB1D7C683",
"jX c #9639B35CC5ED",
"kX c #9739B6BEC2C6",
"lX c #98F9B873C26A",
"zX c #A5ABBA90C763",
"xX c #AAADE9A492B1",
"cX c #BC87C299C667",
"vX c #BB0EC262C6FF",
"bX c #C32FC14DC00F",
"nX c #D144C7ECB7CE",
"mX c #E15ED1AF9D1F",
"MX c #C439CCBCD046",
"NX c #CA47CC39C47E",
"BX c #CA05D4A8D9E6",
"VX c #EA6BFFFFFFFF",
"CX c #F763FBA7E786",
"ZX c #F859FAF2EC88",
"AX c #FFFFFFFFEBBC",
"SX c #FFFFFFFFEE9D",
"DX c gray100",
"FX c None",
/* pixels */
"%X} FXc.-.+XFXoXFX-XFXeX! FX@X7.",
"XXFX  <XDX- T.4XgX_.d.o FXl.6.FX",
"FXp.FX[., =.MXvXvXsXsXW.4 FXK FX",
") FX0.: +.iX*XQ./.~.6XjXv.9.FX3 ",
". FX: w !.gXR.A.). X*.D.[.B 2 FX",
"DX^ $ H @.}.{.V.x.P.%.~ B.h t.FX",
">XG # 7 U L.K.f.f.E R Y D Q s.b ",
"1.0 # > u.z.a.u.g.l C V 5 f { t.",
"-.t 1 d / E./.%.M.U.`.zX[ q P w.",
">.& 1 k T &.].3XlXyXqXtX/.6 t k.",
"&X .1 z n C.4X9XdXnXNXmX8Xk 4 VX",
"S.-.L g f <.wX,XpXBXlXY.s.N e FX",
"FXo. .u y J 2X0XuX1X,X;XM.v FX#.",
">.Z.FXx S y.v.J.5XbXfX/.i.FXxX3.",
"FX| O.FX= B Z r.b.2Xx.r DXp e.FX",
"FXG.FXN $.FX_ FXFXCXFXSX7XX FX* "
};
