/* XPM */
static char *knetwalk[] = {
/* columns rows colors chars-per-pixel */
"32 32 256 2",
"   c #02DA1F3134AE",
".  c #03F820C53726",
"X  c #055623663977",
"o  c #092326DA3C45",
"O  c #061E28953F1A",
"+  c #0C6C29483E2D",
"@  c #12D92BE13D72",
"#  c #27A02CA82E01",
"$  c #25712EEE32D2",
"%  c #27F2364B3CDE",
"&  c #39D03BBF3C11",
"*  c #313736B03879",
"=  c #435841093F3B",
"-  c #09882D5043AD",
";  c #06B82C74447A",
":  c #134F2F1342F7",
">  c #06EA31FD4A75",
",  c #09E732A84AF6",
"<  c #143731824419",
"1  c #1A03343C4446",
"2  c #123935954BFF",
"3  c #16A539ED4F24",
"4  c #1B423A054D5D",
"5  c #1B3D36C44AFE",
"6  c #0AA43A995455",
"7  c #09BB3C5F5710",
"8  c #14223C4D5532",
"9  c #29113B6944D9",
"0  c #24793ABC494C",
"q  c #3DB23FBB403D",
"w  c #0CF5420F5C8C",
"e  c #043142515FC4",
"r  c #11C643E55CEB",
"t  c #13BD402C5767",
"y  c #28C7404D4ED3",
"u  c #3CEA417E4304",
"i  c #3DB346F14BA0",
"p  c #2D8B49195553",
"a  c #24084A435AD3",
"s  c #29E045815747",
"d  c #31C44CAB5D50",
"f  c #355D49885487",
"g  c #35DB50645F9F",
"h  c #0B0F457C61C5",
"j  c #04454AB16C1A",
"k  c #09914A7267C0",
"l  c #13ED499562DC",
"z  c #1BB44C7A64A5",
"x  c #10EB4E596B43",
"c  c #1AA34EE569FD",
"v  c #0ED0505C6D2A",
"b  c #13E951886D0C",
"n  c #196652206BFF",
"m  c #1946523367AA",
"M  c #0A794F76719F",
"N  c #0C555BA27B0D",
"B  c #0F7457EC75D5",
"V  c #11A155AF721F",
"C  c #1BCE552471DF",
"Z  c #12CD5945761B",
"A  c #1C7C5A6A7556",
"S  c #13A45D1F7ACD",
"D  c #1D635C347AF4",
"F  c #155A565C7C9B",
"G  c #22B44C7C6324",
"H  c #37274F0660A5",
"J  c #2437545D6B61",
"K  c #287853226AA5",
"L  c #23C253DE6A63",
"P  c #34BA52A0656B",
"I  c #34C655AF6955",
"U  c #384B57FC6929",
"Y  c #21045A5D73D4",
"T  c #2C485B9472B5",
"R  c #23505CAE7970",
"E  c #25E3582C7731",
"W  c #387C5F007474",
"Q  c #0E4361D87FF3",
"!  c #17CE604B7B4D",
"~  c #241663F67DE0",
"^  c #2B4665037D63",
"/  c #392363577AF3",
"(  c #460B4A164AE1",
")  c #49C349EC4922",
"_  c #44944E965488",
"`  c #4DAC5329550C",
"'  c #449C5A206A68",
"]  c #454C5A2A69BC",
"[  c #44AD5F647057",
"{  c #5D7160F7625F",
"}  c #54575FF66914",
"|  c #465161747443",
" . c #4CA368E6775A",
".. c #55C96A7179F7",
"X. c #538C668F74F1",
"o. c #5F6A710E7561",
"O. c #649168AF6A14",
"+. c #67746A996B90",
"@. c #6D9E6FA2718A",
"#. c #617970567C04",
"$. c #7152751D7634",
"%. c #757C788F79ED",
"&. c #761E79B47AE5",
"*. c #C4C795D83131",
"=. c #9DAB9115742D",
"-. c #B8A796EB6E6C",
";. c #B10095767027",
":. c #B8B4B8B17E26",
">. c #C5C8A96C5CB4",
",. c #26F45E07817E",
"<. c #083266558A37",
"1. c #15EA62F18266",
"2. c #17B46AA48A33",
"3. c #166D75A39875",
"4. c #2DCE62B88330",
"5. c #237762CA8910",
"6. c #28A26B07867E",
"7. c #3B7A697D8530",
"8. c #34CD6871877D",
"9. c #2BEC72418C5B",
"0. c #2146705C8C56",
"q. c #3E42704D8B46",
"w. c #2C516D1F930C",
"e. c #30F86DD6932D",
"r. c #2482765994CD",
"t. c #2A467DAE9BF6",
"y. c #3375746F9C9C",
"u. c #379D76689806",
"i. c #1B487DC0A091",
"p. c #31327984A6A3",
"a. c #31297573A0C5",
"s. c #2B2976B6A5CF",
"d. c #453C6D2282BE",
"f. c #56C76FCE81CE",
"g. c #46CB7459885C",
"h. c #5167742E84CB",
"j. c #5A9176E2898A",
"k. c #5A9A7B838838",
"l. c #40347CCE9444",
"z. c #4B61796795E7",
"x. c #4C767CE09B58",
"c. c #63EA7BE7861B",
"v. c #6AE27A8285FC",
"b. c #681879738629",
"n. c #663D7F8790D1",
"m. c #36E6834B9E3A",
"M. c #3AF38845B8CC",
"N. c #32D987D9A50E",
"B. c #540080828FFF",
"V. c #5C8682E2969E",
"C. c #5AEA8B599D8A",
"Z. c #5A72879499CC",
"A. c #4AD0889E9D95",
"S. c #697A85138EE0",
"D. c #7C36804181A3",
"F. c #752A84178D73",
"G. c #62EC88D896A9",
"H. c #7427849F90F2",
"J. c #7BDE8AC495FE",
"K. c #7FA88F039B0A",
"L. c #787F92FC9CD2",
"P. c #46448000A45F",
"I. c #5B79927CA5FC",
"U. c #42FF8B23B84B",
"Y. c #524291E2BA28",
"T. c #583294EAB16C",
"R. c #65A98CCBA60A",
"E. c #6B3290E8A990",
"W. c #6C5C9820A7D7",
"Q. c #7B969CCCA9A1",
"!. c #76379869A53D",
"~. c #62129C35C014",
"^. c #79E0A60DB4C3",
"/. c #24AB8DE7D1E2",
"(. c #455695D2C8F7",
"). c #551399A2C4FC",
"_. c #5C869DDDC740",
"`. c #4C339F2BD3A9",
"'. c #65799D93C0F8",
"]. c #510EA4ADD94B",
"[. c #625CA1EFCA7C",
"{. c #7F4AB2BFD30E",
"}. c #58DFAE22E3D3",
"|. c #677BBA4FEE47",
" X c #8A5E8C538CFC",
".X c #82F489288B47",
"XX c #82C28BA6929C",
"oX c #8AA091FF92AC",
"OX c #8481931B9D6B",
"+X c #8D0295B29B01",
"@X c #91F694BB95DB",
"#X c #9CBA9D5C9D80",
"$X c #94E19AE3924E",
"%X c #AA92A3E0984B",
"&X c #B598A5348D19",
"*X c #8AFA99B0A31D",
"=X c #90659D81A74F",
"-X c #8E2CA0B8A6A2",
";X c #8870A1A2A88B",
":X c #953DA2BDA9FF",
">X c #9E8CA6E9AD6F",
",X c #9C17A4BDA7A2",
"<X c #8683A6F5B5FF",
"1X c #942CAB9EB650",
"2X c #95EDAC18B612",
"3X c #9334B16DBB6E",
"4X c #9BB0B1D7BA1A",
"5X c #AA1EAA25AA27",
"6X c #A523A805A8C0",
"7X c #B21BAF0DADF3",
"8X c #B0FAA8C4A5F3",
"9X c #B083B050B01E",
"0X c #A0E2AF83B400",
"qX c #A654B1ACB597",
"wX c #A101B59FBBD1",
"eX c #AE74BAA3BE06",
"rX c #ABA9B2D0B8B6",
"tX c #B59EB5ACB39B",
"yX c #B469B77BB971",
"uX c #BC52BC8DBCE1",
"iX c #B698BA56BAE0",
"pX c #D3ADB2968CB7",
"aX c #C04CBB26AB3B",
"sX c #C3C8BA38B6DE",
"dX c #D292C669819A",
"fX c #D5B5D2BCB139",
"gX c #E867D752B91E",
"hX c #8C1EAD10C285",
"jX c #87F0B1CFCC7C",
"kX c #9B63BA20C2ED",
"lX c #9123B5D6C10F",
"zX c #8776BBEADCE4",
"xX c #AF36BD0BC543",
"cX c #AD73BEA2CB2C",
"vX c #A70CBD22C05A",
"bX c #B20EBEB6C684",
"nX c #93B4C121D111",
"mX c #A203C1D1CEC3",
"MX c #BD2DC323C43D",
"NX c #BEABC7F4CB08",
"BX c #BC9FCEF3D5B6",
"VX c #BF47D32ADD8A",
"CX c #C38CC448C4B6",
"ZX c #C96CC519C3C6",
"AX c #D186CE96CD82",
"SX c #D844D349C2EE",
"DX c #CD60CFB2D11E",
"FX c #C354D4FEDC42",
"GX c #D218D0E0D0BF",
"HX c #EAABE320CE44",
"JX c #D9FFE3DEE832",
"KX c #DD02EC2FF4A0",
"LX c #E536E39EE3BC",
"PX c #E87DEA32EA66",
"IX c #F715F67CF50A",
"UX c None",
/* pixels */
"UXUXUXUXUXUXUXUXUXUXUXUXUXUXUXUXUXUXUXUXUXUXUXUXUXUXUXUXUXUXUXUX",
"UXUXUXUXUXUXUXUXUXUXUXUXUXUXUXUXUXUXUXUXUXUXUXUXUXUXUXUXUXUXUXUX",
"UXUXUXUXUXUXUXUXUXUXUXUXUXUXUXUXUXUXUXUXUXUXUXUXUXUXUXUXUXUXUXUX",
"UXUXUXUXUXUXUXUXUXUXUXUX6.W.lXkXkXkX<XC.5.UXUXUXUXUXUXUXUXUXUXUX",
"UXUXUXUXUXUXUXUXUXUX. s CXIXLXLXPXPXGXCXMX;Xl.UXUXUXUXUXUXUXUXUX",
"UXUXUXUXUXUXUXUX8 : } CXLXyX=X=X>X,X=X6XbXZX5Xc.w UXUXUXUXUXUXUX",
"UXUXUXUXUXUXUX- : H yXAXOXOXOXOXOXOXOX*X+XbXxXhXz.A UXUXUXUXUXUX",
"UXUXUXUXUXUX; . [ XX X=Xn.n.J.n.F.J.J.v.H.<XhX<X].F 1.UXUXUXUXUX",
"UXUXUXUXUX,   0 v.=XcXcXv.b.b.v.!.zXjXS.#.#.E.E.'./.,.l UXUXUXUX",
"UXUXUXUX7   - X.f.v.jXzXR.n.f.j.j.T.|.[...h.X.X.R.].E - UXUXUXUX",
"UXUXUXUX;   0 [ ' ' '.}.).Y.z.z.x.[ Y.).| | ' | h.Y.3 o 2.UXUXUX",
"UXUXUXK :   5 P H I `.`.U.`.(.7.d.7.7.P.U U P P ' d.8 8 w.UXUXUX",
"UXUXUX0 - X 1 0 5 E (.(./.U.E K e.E K E J K G I s P / ,.a.D UXUX",
"UXUXUXo   X o 2 < E p.(.a.y.w.c y.y.E C n z z G 8 3 4 4.7.R UXUX",
"UX%.y . X o o - r s.p.p.e.5.p.E e.w.E l Z ~ n w w > - U W / UXUX",
"$.@.f - X X - > C a.e.e.z.8.z 4.g.I r V 1.N j b w w , d ' / UXUX",
"%.{ 9 5 5 3 t 6 m q.4.4.g./ z a U ! 2.N.m.C.2XeX .k 3 f f f UXUX",
"%.{ % + o 2 a n c  .*X:XxX2X .o.o.I.Q.:XeXCXNXVX!.k w y ) % UXUX",
"$.O.$ + O > 7 k l H v.oXuXZXtX4X3X3X3X4X2XL.oXaX3XY e 4 = < UXUX",
"UXD.# @ - 6 r v Z l f p 0.m.B.^.nXmX4X$X=.;.*.>.mXh.x r 3 t UXUX",
"UX@X( $ > t l b ! ! i  .T.^.wXiXtX&X-.pXgXeX:.dXSXZ.V m t n UXUX",
"UX%.D.# 1 7 w v N <.9.iXCXsX5X@X%X%XPXKXBXFXfXgXHXV.k w 6 UXUXUX",
"UXUX&.{ # 1 r n S Q ^ qXMX@X$X#X+XJXKXBXFXJXvX!.u.S v r h UXUXUX",
"UXUXUX+.{ q % % % * u @.&. X,X:X#XMXMXuX<XA.3.<.N Z A l UXUXUXUX",
"UXUXUXUX_ ` ( & # & = u  X>X;XOXsX#X#X X X.Xh.S.F.^ Y UXUXUXUXUX",
"UXUXUXUXUXUX9 9 f a m Q 3X:X;X9XyX6X#X5X5X5X7XtXG.! UXUXUXUXUXUX",
"UXUXUXUXUXUXUXUXA 9.r.3.m.I.N.Z.8X7X9XrXiXfXCXL.^ UXUXUXUXUXUXUX",
"UXUXUXUXUXUXUXUXUXx ~ 9.r.3.N.3.C.qXAXAXDX0Xg.j UXUXUXUXUXUXUXUX",
"UXUXUXUXUXUXUXUXUXUXUXM D 2.2.r.2.!.xX-Xk.D UXUXUXUXUXUXUXUXUXUX",
"UXUXUXUXUXUXUXUXUXUXUXUXUXUXUXUXUXUXUXUXUXUXUXUXUXUXUXUXUXUXUXUX",
"UXUXUXUXUXUXUXUXUXUXUXUXUXUXUXUXUXUXUXUXUXUXUXUXUXUXUXUXUXUXUXUX",
"UXUXUXUXUXUXUXUXUXUXUXUXUXUXUXUXUXUXUXUXUXUXUXUXUXUXUXUXUXUXUXUX"
};
