/* XPM */
static char *knetwalk[] = {
/* columns rows colors chars-per-pixel */
"32 32 257 2",
"   c black",
".  c #000000000E4D",
"X  c #0ED60BE313C6",
"o  c #02DA1F3134AD",
"O  c #0DB724510742",
"+  c #05D724453A81",
"@  c #09BA276D3CAA",
"#  c #08DC26433BA0",
"$  c #15262BF339C1",
"%  c #1EDF281C2D15",
"&  c #25D62B882D1A",
"*  c #25712EEE32D2",
"=  c #289935233AC1",
"-  c #37023AD13BE3",
";  c #3A5A28B224F8",
":  c #000300BF43B3",
">  c #0000009A5714",
",  c #000011695673",
"<  c #000012A04EDD",
"1  c #0066060B6B6D",
"2  c #035A034F79F5",
"3  c #05C81B4372EF",
"4  c #095F2DA8443A",
"5  c #035C2B534690",
"6  c #087934744BA7",
"7  c #0C343BB35464",
"8  c #09093B6F5712",
"9  c #1B423A054D5D",
"0  c #1699357F4960",
"q  c #147C3DA755CA",
"w  c #11A3380F53D9",
"e  c #09A72877513D",
"r  c #000028DC7998",
"t  c #01283AE36A88",
"y  c #002A3DA175C6",
"u  c #000037E077A3",
"i  c #000028106607",
"p  c #27083A2845A2",
"a  c #3AF93FC34154",
"s  c #263F3FD6533D",
"d  c #00005BE60000",
"f  c #00007F4B0000",
"g  c #306A713F06B4",
"h  c #2150624C3494",
"j  c #309B4F033A0F",
"k  c #0CD0426B5CF3",
"l  c #043142515FC4",
"z  c #11C643E55CEB",
"x  c #14D350635152",
"c  c #0B0F457C61C5",
"v  c #086B4A5B6A53",
"b  c #057448B67739",
"n  c #0A075BD07A83",
"m  c #12544EB86AE3",
"M  c #1C844D086527",
"N  c #15924AC06497",
"B  c #16AE52C36B79",
"V  c #17F859F577BB",
"C  c #0F68506F6D08",
"Z  c #111761357F2E",
"A  c #29C648B3584F",
"S  c #3C79438C4671",
"D  c #349B4B3E58B1",
"F  c #2F5148585739",
"G  c #25384F316629",
"H  c #2646553A6C38",
"J  c #25725B7676CA",
"K  c #3439533F6672",
"L  c #36F8575669B2",
"P  c #380A59AC6DD9",
"I  c #2586642B7DC7",
"U  c #392363577AF3",
"Y  c #3A72772C6261",
"T  c #42343C482736",
"R  c #7B1200000000",
"E  c #435841093F3B",
"W  c #58627C7A0000",
"Q  c #54704ABF0004",
"!  c #458E49E54B0B",
"~  c #4CF052CE54BA",
"^  c #4BB8556B5B79",
"/  c #45145B3F6B78",
"(  c #46A658C06B1F",
")  c #45A85FAF7177",
"_  c #599E60116407",
"`  c #4B5F67AE7718",
"'  c #59B66216645A",
"]  c #54AA68807774",
"[  c #5F6A710E7561",
"{  c #61987A2440D7",
"}  c #65CA699F6AEB",
"|  c #678C6FFC76C7",
" . c #75AA784C78EF",
".. c #01AC03B18430",
"X. c #000000C18CBC",
"o. c #0191107685F7",
"O. c #00001E41951B",
"+. c #000015DCA73A",
"@. c #000029CD87B4",
"#. c #000024A3946F",
"$. c #000029739580",
"%. c #042638048850",
"&. c #008E3D7C93B7",
"*. c #00003D1F9D18",
"=. c #000034DF9A8F",
"-. c #00002BA9ABFA",
";. c #01AE38A7A2FC",
":. c #00000000DDD9",
">. c #00000000FF57",
",. c #000328B0C478",
"<. c #0026339BCFFA",
"1. c #061F30AEF3B8",
"2. c #00F544338590",
"3. c #002B43598B5B",
"4. c #076C4FAC8B8C",
"5. c #0135442E931F",
"6. c #052B44909814",
"7. c #0C8559AE874D",
"8. c #14B551979869",
"9. c #046848DEAB81",
"0. c #00955352A84A",
"q. c #06C6536ABAE0",
"w. c #1731687187F9",
"e. c #190B77379B5E",
"r. c #112D694C8DF1",
"t. c #17AA6F61AC5E",
"y. c #26075D748CB2",
"u. c #29F66799884F",
"i. c #2B6E6DA393E2",
"p. c #27F77774986B",
"a. c #39266A3A87A0",
"s. c #31656EED950C",
"d. c #37BC77529A57",
"f. c #2BEC72428C5B",
"g. c #31A77860A4FA",
"h. c #303374CDADA2",
"j. c #05C04A10C45A",
"k. c #046F5432D3FA",
"l. c #031A575AFD36",
"z. c #000050C6F3AA",
"x. c #000062A4EBE7",
"c. c #00006204FFFF",
"v. c #39CE60A4EC89",
"b. c #52CA2293B0F3",
"n. c #48A073C187E0",
"m. c #496D7A7595F1",
"M. c #594B7871881E",
"N. c #4F4C70E28EA5",
"B. c #4BBC7CE5AF0F",
"V. c #67997A098664",
"C. c #7C35804081A2",
"Z. c #663D7F8790D1",
"A. c #011EB96C0B53",
"S. c #3B5D82245BD6",
"D. c #794F87FA0000",
"F. c #5A5BA68E742D",
"G. c #36E6834B9E3A",
"H. c #38EC882AB3DC",
"J. c #000083D6FFFF",
"K. c #0000B73FFFFF",
"L. c #24AB8DE7D1E2",
"P. c #5AA389659B79",
"I. c #4F68849096CA",
"U. c #440D8886BAC8",
"Y. c #58539466A971",
"T. c #564B91C9B799",
"R. c #5125824EB67C",
"E. c #74B584078E26",
"W. c #789688529430",
"Q. c #6CDD8C259791",
"!. c #67198E0BA75B",
"~. c #785D9A2AA6FF",
"^. c #68F39733B05A",
"/. c #79E0A60DB4C3",
"(. c #455695D2C8F7",
"). c #4C339F2BD3A9",
"_. c #5A068AAAC353",
"`. c #557F9612C93F",
"'. c #4E60A57CD6ED",
"]. c #708599B2C1B3",
"[. c #70D3AA57CEC5",
"{. c #5AA7A915E714",
"}. c #DDAC61600000",
"|. c #B8B4B8B17E26",
" X c #AD1B947D70EB",
".X c #B68FE1C357E0",
"XX c #C4C795D83131",
"oX c #C5C8A96C5CB4",
"OX c #FDFDE0BB3F64",
"+X c yellow",
"@X c #FFFFEB9D3C98",
"#X c #FE31E19344DE",
"$X c #FA02F11A53E0",
"%X c #FD7CE4C973EA",
"&X c #FF6AEF7F6BA6",
"*X c #F0BCD9314837",
"=X c #89C38C258CD3",
"-X c #840F8F1D967E",
";X c #851493EC9E27",
":X c #8CEA95059890",
">X c #91F694BB95DB",
",X c #9B6B9CF29BA2",
"<X c #8B669A6CA5C7",
"1X c #95FCA06AA855",
"2X c #89FBA181A833",
"3X c #87C1A803B80E",
"4X c #9915A468AA24",
"5X c #954CAD58B6FB",
"6X c #9A2CB442BD1E",
"7X c #AE3FA4519490",
"8X c #ADA0AE35AE76",
"9X c #A765A862A89F",
"0X c #A503ADCCB82F",
"qX c #A98DB74EBB73",
"wX c #B1BAACF5AB48",
"eX c #B5A2B665B580",
"rX c #BC52BC8DBCE1",
"tX c #B442B8E8BB42",
"yX c #C04CBB26AB3B",
"uX c #896CB8A0DD05",
"iX c #9769B928C30B",
"pX c #8AD6ACA3CADA",
"aX c #8C37B57DEC9B",
"sX c #AEA0BD93C73B",
"dX c #ACDAB9B4CF61",
"fX c #A78EAEC5FFFF",
"gX c #8F159F69D1D7",
"hX c #BD82C631C854",
"jX c #BC9FCEF3D5B6",
"kX c #BFEFD47BDCC8",
"lX c #A203C1D1CEC3",
"zX c #BD14CE37EB5F",
"xX c #A62EFFFFFFFF",
"cX c #93B4C121D111",
"vX c #CBBAB667A1CA",
"bX c #D12BCA8EAE55",
"nX c #E866D752B91E",
"mX c #FF56E592846C",
"MX c #FFA7E6348D62",
"NX c #FFFFFFFF814A",
"BX c #FFF4F1ECB230",
"VX c #D292C669819A",
"CX c #C626C528C509",
"ZX c #D186CE96CD82",
"AX c #D52ED214C9D6",
"SX c #C9B9D1F0D6CE",
"DX c #CB6DD8D9E975",
"FX c #D945E360EB32",
"GX c #DD02EC2FF4A0",
"HX c #FFFFD2DCFFFF",
"JX c #F3A3E8E3D288",
"KX c #E718E720E799",
"LX c #EBDEED8BF319",
"PX c #FED8FF3DFF5A",
"IX c #F9A5F9CBF556",
"UX c #F0AEF6A5F3E1",
"YX c None",
/* pixels */
"OX#X#XYXBXBXYXPXPXPXPX2 o.> , 5 6 t , 1 $.*.YXYXYXYXYXYXYXYXYXYX",
"%XYX%XYXYXYXYXPXFXaXB.F..XYXYXYXYXYXYXHX$Xg o.6.d YXYXYXYXYXYXYX",
"MXYXmXYXYXIXYXIXIXIXJXYXX . : , i 3 > o X.YXdXYX9.5.YX6.YXYXYXYX",
"OXYXYXYXYXPXYXPXIXxXaX8.f.^.iXiXiXiX/.Z.u.i 2 v.}.>.%.YX@.YXYXYX",
"mXYXYX0.YXuXYXLX).u o F sXIXKXKXKXKXZXCXsX1Xd.t k.t.YX_.YX].YXYX",
"#XYXn.YXl.Q :.h.w @ _ CXKX8X1X<X9X1X1X4XsXCX9XV.q @.&.YX$.YX5.YX",
"%XYXYXc.X l.b 5 4 ( sXZX-X;X;X;X;X;X;X;X<XsXsXpXm.J 6.N.YX8.YX&.",
"YXYX<.O <.2.5 o ( W.=X>XW.Z.W.Z.Z.-XW.C.E.1XpX3X'.V y.U.3 YX%.YX",
"NX] e.  0.4 o F V.<XdXdXV.V.V.V.~.cX[.Q.V.| !.!.].L.y.N =.y.YX4.",
"%Xh.R J.8 o @ ) ] C.pXuX!.Z.M.M.M.^.{.`.] M.] ] !.'.J 4 n #.YX$.",
"dXO YXy 5 o p ( / / `.{.`.T.m.m.I.) T.`./ ) ( ) n.T.0 @ w.3.%.YX",
"   .<XG 0 o 9 D D L '.'.U.).(.` a.a.a.B.L L K K ( n.q w i.w.#.YX",
"8X=XV.9 4 o 0 s p H (.(.H.U.J H s.P H J H H G K A K P y.d.V 8.UX",
" . .D # o # @ 0 0 V H.U.g.h.i.M s.g.J B B M M G z 9 9 I a.J 8.gX",
" . .s + # 4 4 4 c g.g.g.i.u.g.J i.s.J m C I B k 7 6 4 L U P 7...",
" .| F $ o o 4 e H g.i.s.d.u.M u.n.K c B w.n v B k k w D / U r.X.",
" .' p 9 0 9 z 7 M a.u.I n.U G z L V w.G.G.P.5XqX` v 7 D ! D u.zX",
" ._ = @ o 0 x H G ` <X4XsX5X] | M.!./.2XqXhXhXjX~.v k p ! = y aX",
" .} * @ 4 6 8 v N K V.=XrXCXeX0X5X5X5X6X5X~.>XbX6XJ k 9 E 0 2.3 ",
"}  .* $ e w z C V N D A f.G.N./.cXlX6X,X X XXXoXlXn.m x 9 q _.LX",
"X >X~ * 6 z z C V Z S ` !.3X6XeXyX7X XVXnXsX|.|.bXP.C M q H `.BX",
"YX .F.& $ l z C n r.f.rXCXrX9X>X7X7XKXGXjXSXbXnXJXP.v k 7 y #.YX",
"YX.  .} & = z C V Z I qXCX>X:X,X:XFXFXjXSXFXsX!.d.n C N c 9.S PX",
"! YX; } ' a = p = - a } F.=X4X4X,XhXhXrX3XI.e.r.n V B N 3.5.YX3.",
"YXa YX& ! ~ ! - - - - S =X9X2X;XrX,X,X=X=X=XM.E.E.I J b 6.YX;.YX",
"_ YX- YX  p p p F A M Z 6X2X2X8XtX9X,X9X9X9XwXrXP.I b ;.x YXb YX",
"YX~ YX- ( YXk.b V f.p.r.G.Y.G.I.wXwX8XeXeXbXCXQ.I 2.*.B YXb YXYX",
"YXYX$ YX$ ; T ;.y C I f.p.e.e.G.P.0XZXZXZX6Xn.v y.B.  UXu YX%.YX",
"YXYXYXYXYXq.1.D.9.;.b b V w.i.p.r.~.qX<XP.V 4.*.].IXYXpXYX3.YXYX",
"YXYXYXYX3.YX4.6.YXY q.-.u y b b C y.b i 1 O.gXIXPXFXYXPXYXYXYXYX",
"YXYXYXYXYXYX;.YX5.;.YX+X'.l.1.-.,.+.<.fXIXg YXzXDXYXDXYXYXYXYXYX",
"YXYXYXYXYXYXYXYXYXb 5.=.r YX%.YXYXYX..YX2 #.R.LXPXPXYXPXYXYXYXYX"
};
