/* XPM */
static char *kolf___[] = {
/* columns rows colors chars-per-pixel */
"16 16 86 1",
"  c #000000",
". c #373737",
"X c #3E3E3E",
"o c #474747",
"O c #494949",
"+ c #4E4E4E",
"@ c #606060",
"# c #6B6B6B",
"$ c #8D8D8E",
"% c #939393",
"& c #939494",
"* c #949494",
"= c #969696",
"- c #A7A7A7",
"; c #A6A8A8",
": c #ACACAC",
"> c #AEAEAE",
", c #AEAFAF",
"< c #B2B2B2",
"1 c #B3B3B3",
"2 c #B6B6B6",
"3 c #B7B7B7",
"4 c #B8B8B8",
"5 c #B9B9B9",
"6 c #B9BBBC",
"7 c #BCBCBC",
"8 c #BEBEBE",
"9 c #C0C0C0",
"0 c #C2C2C2",
"q c #C3C3C4",
"w c #C7C7C7",
"e c #C9C9C9",
"r c #CACACA",
"t c #CBCBCB",
"y c #CCCCCC",
"u c #CDCDCE",
"i c #CECECE",
"p c #CFCFCF",
"a c #D1D1D1",
"s c #D3D3D3",
"d c #D2D3D4",
"f c #D3D3D4",
"g c #D4D4D4",
"h c #D5D7D7",
"j c #D6D6D7",
"k c #D7D7D8",
"l c #D8D8D9",
"z c #DADADC",
"x c #DBDCDC",
"c c #DCDCDD",
"v c #DCDDDD",
"b c #DDDEDF",
"n c #DFDFE0",
"m c #E1E1E1",
"M c #E2E3E4",
"N c #E5E5E5",
"B c #E6E6E6",
"V c #EBEBEC",
"C c #EDEDED",
"Z c #EDEDEE",
"A c #EDEDF0",
"S c #EEEFF0",
"D c #F0F0F1",
"F c #F1F1F2",
"G c #F3F3F4",
"H c #F3F4F5",
"J c #F4F4F4",
"K c #F4F5F5",
"L c #F4F4F6",
"P c #F5F5F6",
"I c #F5F5F7",
"U c #F5F6F7",
"Y c #F7F7F8",
"T c #F7F8F9",
"R c #F8F9FB",
"E c #F9F9FB",
"W c #F9FAFA",
"Q c #FAFAFC",
"! c #FAFBFC",
"~ c #FBFBFC",
"^ c #FAFBFD",
"/ c #FBFBFD",
"( c #FBFCFD",
") c #FCFCFD",
"_ c #FDFDFE",
"` c None",
/* pixels */
"``````,hl6``````",
"````$Z__(_H-````",
"````G_^^^^^W&```",
"```7HYYY^YLDh```",
"```pBFGYYLZBx```",
"```slmZZZVMkh#``",
"```0pfxbbzsrr```",
"```*rwppppq9-```",
"````<7775353+```",
"````.%,<<,*O````",
"``````X@@o``````",
"``````    ``````",
"```````  ```````",
"```````  ```````",
"```````  ```````",
"```````  ```````"
};
