/* XPM */
static char *kolf[] = {
/* columns rows colors chars-per-pixel */
"32 32 66 1",
"  c #010101",
". c #0C0C0D",
"X c #0F1010",
"o c #111111",
"O c #1B1C1C",
"+ c #1F2020",
"@ c #232425",
"# c #2C3144",
"$ c #31374B",
"% c #34384E",
"& c #454A5D",
"* c #4B4F63",
"= c #4E5165",
"- c #55596C",
"; c #5A5F74",
": c #616679",
"> c #67697A",
", c #767A8B",
"< c #7A7E8B",
"1 c #7E8393",
"2 c #808497",
"3 c #858A9A",
"4 c #898D9C",
"5 c #8C919D",
"6 c #8E92A1",
"7 c #9093A0",
"8 c #9499A5",
"9 c #959AA9",
"0 c #9C9FAF",
"q c #9CA0AB",
"w c #9EA2B1",
"e c #A1A3A9",
"r c #A1A5B3",
"t c #A5A9B6",
"y c #A8AAB6",
"u c #A7ABB8",
"i c #ABADBA",
"p c #ADB1BE",
"a c #B2B4C1",
"s c #B6B9C5",
"d c #B9BBC4",
"f c #BDBFCA",
"g c #BEC0CB",
"h c #C1C3CE",
"j c #C4C6D1",
"k c #C6C9D3",
"l c #C9CBD4",
"z c #CCCED8",
"x c #CFD1DC",
"c c #D2D4DD",
"v c #D6D9E2",
"b c #DBDDE5",
"n c #DEDFE8",
"m c #DDE0E5",
"M c #DEE1E9",
"N c #E4E6EB",
"B c #E5E9EE",
"V c #E9EAEE",
"C c #E7E9F0",
"Z c #EBEDF2",
"A c #EEF1F5",
"S c #F1F3F6",
"D c #F4F5F9",
"F c #F7F8FB",
"G c #F8F9FA",
"H c None",
/* pixels */
"HHHHHHHHHHHHH<458eHHHHHHHHHHHHHH",
"HHHHHHHHHH1dVGFFFSveHHHHHHHHHHHH",
"HHHHHHHH4hFFDFDFDDFFNeHHHHHHHHHH",
"HHHHHHH9CGFFFDDDDDDFFFyHHHHHHHHH",
"HHHHHH7NSFFDDDDSDDDDDZV8HHHHHHHH",
"HHHHHHlAFFDDSSDSDDADDDVb>HHHHHHH",
"HHHHH7VVFDDDSDSSSSDDFDZmyHHHHHHH",
"HHHHHpNZSDDSASSSSDSDDZCcv&HHHHHH",
"HHHHHvNDFDDDSASSSDDDGDCCN,HHHHHH",
"HHHH=mBBDDDASSSSADDDZAZcb0HHHHHH",
"HHHH;vcBBAAASSZZDZZASvvvcpHHHHHH",
"HHHH=bNmbbNZCZSCCCZNvcczcqHHHHHH",
"HHHH%cxMxvNvCvvbCvvxczcjk1HHHHHH",
"HHHHHdhgMzvzzbCzvxvxvfhhj-HHHHHH",
"HHHHH0hhkjzcCkxzxcbgfhffaHHHHHHH",
"HHHHH%gkvfcffkzvvsggfsss,HHHHHHH",
"HHHHHH1saafzkjhisggaaipy@HHHHHHH",
"HHHHHHHwfasaaaasappairi$HHHHHHHH",
"HHHHHHH@4suaupiapptwur$HHHHHHHHH",
"HHHHHHHHH*5wtywuwupw:@HHHHHHHHHH",
"HHHHHHHHHHO#:4664,&OHHHHHHHHHHHH",
"HHHHHHHHHHH.ooXoXX.HHHHHHHHHHHHH",
"HHHHHHHHHHH   . . .HHHHHHHHHHHHH",
"HHHHHHHHHHHH      HHHHHHHHHHHHHH",
"HHHHHHHHHHHH      HHHHHHHHHHHHHH",
"HHHHHHHHHHHHH     HHHHHHHHHHHHHH",
"HHHHHHHHHHHHH    HHHHHHHHHHHHHHH",
"HHHHHHHHHHHHH    HHHHHHHHHHHHHHH",
"HHHHHHHHHHHHH    HHHHHHHHHHHHHHH",
"HHHHHHHHHHHHH    HHHHHHHHHHHHHHH",
"HHHHHHHHHHHHH    HHHHHHHHHHHHHHH",
"HHHHHHHHHHHHHHHHHHHHHHHHHHHHHHHH"
};
