/* XPM */
static char *konquest___[] = {
/* columns rows colors chars-per-pixel */
"16 16 85 1",
"  c #000000",
". c #020000",
"X c #070600",
"o c #0A0001",
"O c #0E0000",
"+ c #050B26",
"@ c #0F1227",
"# c #121735",
"$ c #151B3E",
"% c #382124",
"& c #2E3234",
"* c #303248",
"= c #2F3351",
"- c #2E345A",
"; c #383D62",
": c #413E43",
"> c #386B6F",
", c #464941",
"< c #414158",
"1 c #50505B",
"2 c #5A5F5F",
"3 c #77685E",
"4 c #535561",
"5 c #484B71",
"6 c #635D64",
"7 c #7A6862",
"8 c #647B6D",
"9 c #697572",
"0 c #727979",
"q c #8C766A",
"w c #7D857E",
"e c #8B907D",
"r c #5A5E86",
"t c #71748D",
"y c #6F75A6",
"u c #578987",
"i c #7F9B92",
"p c #808A80",
"a c #81818B",
"s c #828390",
"d c #898A96",
"f c #8C8C97",
"g c #A49F84",
"h c #A1A482",
"j c #A6A09D",
"k c #B8B99E",
"l c #9596AD",
"z c #8B8FB6",
"x c #8B8FB9",
"c c #8F93B0",
"v c #9FA6AD",
"b c #BBB7A4",
"n c #BABAA0",
"m c #97C1A8",
"M c #C7C3A6",
"N c #C6C6AE",
"B c #9DA0C8",
"V c #ADAFCE",
"C c #B1B4CD",
"Z c #BEBCCB",
"A c #B9D7C2",
"S c #A6F0D9",
"D c #BEF6D5",
"F c #9EEEE5",
"G c #CCD0C1",
"H c #C8DCCE",
"J c #D9D2CF",
"K c #C6C7DA",
"L c #D2DDD1",
"P c #DADAD4",
"I c #DCDFD4",
"U c #D1D2E7",
"Y c #D3D9E1",
"T c #D3D4ED",
"R c #D0D3F6",
"E c #E4E1E4",
"W c #E1E2ED",
"Q c #EAEBF2",
"! c #EAFFFF",
"~ c #F4FBF3",
"^ c #F7FFFC",
"/ c #F7FFFF",
"( c #FDFFFC",
") c #FFFFFF",
"_ c None",
/* pixels */
"________________",
"________________",
"_r5_____________",
"<Rz=#@2du_______",
"_Tt__6H/!F>_____",
"_4U_%j~((/S_____",
"__sZqbI((/Dw____",
"___fEMkGLAm8____",
"____aQNhepw:+___",
"____.0YPng3o_$__",
"_____O,vWJ7__;-_",
"______.X&dKCcxy_",
"___________1lVB*",
"________________",
"________________",
"________________"
};
