/* XPM */
static char *konquest[] = {
/* columns rows colors chars-per-pixel */
"32 32 204 2",
"   c #150805",
".  c #140C0F",
"X  c #2C150F",
"o  c #261815",
"O  c #321914",
"+  c #2F2018",
"@  c #141823",
"#  c #231F22",
"$  c #281F24",
"%  c #202421",
"&  c #282520",
"*  c #3C2E2C",
"=  c #2E322E",
"-  c #3D342C",
";  c #2C2D32",
":  c #393830",
">  c #34343C",
",  c #3A3B3F",
"<  c #41281E",
"1  c #374039",
"2  c #3E483F",
"3  c #59463D",
"4  c #272B44",
"5  c #2D324A",
"6  c #31354B",
"7  c #37394E",
"8  c #353651",
"9  c #333957",
"0  c #33395B",
"q  c #363E62",
"w  c #563D49",
"e  c #3F4153",
"r  c #3E415A",
"t  c #3F4566",
"y  c #55444C",
"u  c #5A464C",
"i  c #484856",
"p  c #524F5A",
"a  c #4C5951",
"s  c #5A5C5F",
"d  c #6A4945",
"f  c #404463",
"g  c #454C75",
"h  c #5A5A70",
"j  c #695E65",
"k  c #46646F",
"l  c #5B6A60",
"z  c #636160",
"x  c #626E67",
"c  c #6E6A6A",
"v  c #7B6567",
"b  c #7F6862",
"n  c #796C6B",
"m  c #696972",
"M  c #796E76",
"N  c #70727E",
"B  c #7C7C7A",
"V  c #8C726A",
"C  c #957D72",
"Z  c #968876",
"A  c #97877E",
"S  c #535981",
"D  c #5E6184",
"F  c #5D628A",
"G  c #4C7E8A",
"H  c #597E80",
"J  c #6C6E87",
"K  c #65698D",
"L  c #7A7D83",
"P  c #636994",
"I  c #6D729E",
"U  c #75799D",
"Y  c #777CA0",
"T  c #7A7EA3",
"R  c #6C8784",
"E  c #788381",
"W  c #738B8B",
"Q  c #7C809D",
"!  c #7D81AB",
"~  c #60A9AD",
"^  c #6EADAC",
"/  c #6ABCBB",
"(  c #7EDED2",
")  c #828984",
"_  c #85898D",
"`  c #8C8D8A",
"'  c #968E8E",
"]  c #8D948F",
"[  c #979186",
"{  c #93958B",
"}  c #979A89",
"|  c #87899E",
" . c #8C9791",
".. c #8B9A91",
"X. c #949891",
"o. c #95929C",
"O. c #979F9E",
"+. c #AD9E88",
"@. c #92A198",
"#. c #A0A28A",
"$. c #AAAC8C",
"%. c #B1A88C",
"&. c #A2A398",
"*. c #ADAC9A",
"=. c #B3B692",
"-. c #B3B39A",
";. c #BCB29F",
":. c #BABB9A",
">. c #888AA7",
",. c #9394A3",
"<. c #8387B1",
"1. c #8D92BD",
"2. c #9599BF",
"3. c #95B3A3",
"4. c #9FA0B1",
"5. c #B6AEA6",
"6. c #ABB0AB",
"7. c #A0BDAC",
"8. c #A5A6B3",
"9. c #A7BFB0",
"0. c #C5BFA0",
"q. c #C5BFAD",
"w. c #9FC6B2",
"e. c #BEC0A9",
"r. c #A8C3B2",
"t. c #A1CAB3",
"y. c #B1C3B7",
"u. c #B6CBBB",
"i. c #C0C09F",
"p. c #CAC8A4",
"a. c #C5C5AD",
"s. c #CEC8A9",
"d. c #C5C5B3",
"f. c #C3C5BD",
"g. c #C8C6BF",
"h. c #C4CABF",
"j. c #CFCDB9",
"k. c #D2CFBE",
"l. c #969AC2",
"z. c #9A9DC2",
"x. c #A9ACCF",
"c. c #AEB0C5",
"v. c #B9B3C3",
"b. c #B6BACC",
"n. c #BDBECD",
"m. c #ABAED2",
"M. c #B7B9D7",
"N. c #BCBED4",
"B. c #B3B6D8",
"V. c #BBBDDA",
"C. c #96DFC8",
"Z. c #8FDDD0",
"A. c #BBC0C3",
"S. c #B3DDC4",
"D. c #BEC1DA",
"F. c #8DE5D3",
"G. c #ADE1C2",
"H. c #B3F0CE",
"J. c #B1EDDB",
"K. c #BFC1E1",
"L. c #B0F7EB",
"P. c #C1CEC0",
"I. c #CECEC4",
"U. c #D0D2C4",
"Y. c #D6D7CE",
"T. c #C1C3D6",
"R. c #C8C8D5",
"E. c #C6C8D9",
"W. c #D4D4DB",
"Q. c #DBDBDB",
"!. c #C1E3CD",
"~. c #DFE2D6",
"^. c #DFE3DA",
"/. c #D6EFDE",
"(. c #DAE9DC",
"). c #C7F2DD",
"_. c #CCF0D9",
"`. c #C7F9DB",
"'. c #CBCCE2",
"]. c #CFD1EB",
"[. c #D6D6E3",
"{. c #DDDEEA",
"}. c #D3D4F2",
"|. c #DBDCF3",
" X c #C2FDE8",
".X c #D7FFEC",
"XX c #DEE0F1",
"oX c #C3FEF2",
"OX c #DCFFF9",
"+X c #E7ECE1",
"@X c #E4E4EC",
"#X c #ECF2E6",
"$X c #EAF4E8",
"%X c #E6FBEC",
"&X c #E3E5F5",
"*X c #E2E4FE",
"=X c #EDEEFD",
"-X c #EDFFF6",
";X c #EFF1FF",
":X c #F3FDF2",
">X c #F3F3FF",
",X c #F4FCFF",
"<X c #FEFFFE",
"1X c None",
/* pixels */
"1X1X1X1X1X1X1X1X1X1X1X1X1X1X1X1X1X1X1X1X1X1X1X1X1X1X1X1X1X1X1X1X",
"1X1X1X1X1X1X1X1X1X1X1X1X1X1X1X1X1X1X1X1X1X1X1X1X1X1X1X1X1X1X1X1X",
"1X1X1X1X1X1X1X1X1X1X1X1X1X1X1X1X1X1X1X1X1X1X1X1X1X1X1X1X1X1X1X1X",
"1X1X1X1X1X1X1X1X1X1X1X1X1X1X1X1X1X1X1X1X1X1X1X1X1X1X1X1X1X1X1X1X",
"1X1X1X1X1X1X1X1X1X1X1X1X1X1X1X1X1X1X1X1X1X1X1X1X1X1X1X1X1X1X1X1X",
"1X1X1X4 1X1X1X1X1X1X1X1X1X1X1X1X1X1X1X1X1X1X1X1X1X1X1X1X1X1X1X1X",
"1XU l.l.1.T F f 1X1X1X1X1X1X1X1X1X1X1X1X1X1X1X1X1X1X1X1X1X1X1X1X",
"1Xl.V.|.M.l.Y F S g 5 1X1X1XE R H k 1X1X1X1X1X1X1X1X1X1X1X1X1X1X",
"1X>.|.|.l.F 1X1X1X@ 8 h ) 7.!.).J.Z./ G 1X1X1X1X1X1X1X1X1X1X1X1X",
"1Xi ].=Xm.w 1X1X1X1Xy ` y./.:X<X,XOXL.( ~ 1X1X1X1X1X1X1X1X1X1X1X",
"1X1X| =XXXJ 1X1X1Xw M 6.(.<X<X<X<X<X,XoXF.^ 1X1X1X1X1X1X1X1X1X1X",
"1X1X1Xc.,X'.1X1X1Xv ' P.$X<X<X<X<X<X<X,X XC.W 1X1X1X1X1X1X1X1X1X",
"1X1X1X1XT.<Xb.1Xd [ 5.g.^.<X<X<X<X<X<X<X.XH.r.1X1X1X1X1X1X1X1X1X",
"1X1X1X1X1XE.<Xv.V +.q.d.I.+X<X<X<X<X<X-X XG.t.z 1X1X1X1X1X1X1X1X",
"1X1X1X1X1X1Xn.<XR.0.q.a.q.U.~.#X:X:X%X_.S.t.3.c 1X1X1X1X1X1X1X1X",
"1X1X1X1X1X1X1X8.<X@Xk.p.:.q.d.f.P.P.u.r.3.3...m 1X1X1X1X1X1X1X1X",
"1X1X1X1X1X1X1X1Xo.;X>XY.e.=.-.*.&.X.]  .....B p q 4 1X1X1X1X1X1X",
"1X1X1X1X1X1X1X1X% L {.,X+Xd.=.$.#.} { { ` B z & 1X0 0 1X1X1X1X1X",
"1X1X1X1X1X1X1X1X. = x A.;X;XQ.e.:.:.-.*.[ v u 1X1X1Xq 0 1X1X1X1X",
"1X1X1X1X1X1X1X1X1Xo : a ..W.;X=XQ.k.0.%.Z V * 1X1X1X8 g f 1X1X1X",
"1X1X1X1X1X1X1X1X1X1XO - 3 l @.[.>X=XW.5.C 3 1X1X1X1X7 P S r 1X1X",
"1X1X1X1X1X1X1X1X1X1X1XX < : 1 a _ R.>X>X[.,.1X1X1X1XY ! F I 1X1X",
"1X1X1X1X1X1X1X1X1X1X1X1X  X + & + = s 8.&X,X=X].V.B.x.l.! ! K 1X",
"1X1X1X1X1X1X1X1X1X1X1X1X1X1X1X1X1X1X1X1X; L N.|.*X}.'.m.z.l.1.1X",
"1X1X1X1X1X1X1X1X1X1X1X1X1X1X1X1X1X1X1X1X1X1X1X, N 8.N.D.M.x.U 1X",
"1X1X1X1X1X1X1X1X1X1X1X1X1X1X1X1X1X1X1X1X1X1X1X1X1X1X1X; > ; 1X1X",
"1X1X1X1X1X1X1X1X1X1X1X1X1X1X1X1X1X1X1X1X1X1X1X1X1X1X1X1X1X1X1X1X",
"1X1X1X1X1X1X1X1X1X1X1X1X1X1X1X1X1X1X1X1X1X1X1X1X1X1X1X1X1X1X1X1X",
"1X1X1X1X1X1X1X1X1X1X1X1X1X1X1X1X1X1X1X1X1X1X1X1X1X1X1X1X1X1X1X1X",
"1X1X1X1X1X1X1X1X1X1X1X1X1X1X1X1X1X1X1X1X1X1X1X1X1X1X1X1X1X1X1X1X",
"1X1X1X1X1X1X1X1X1X1X1X1X1X1X1X1X1X1X1X1X1X1X1X1X1X1X1X1X1X1X1X1X",
"1X1X1X1X1X1X1X1X1X1X1X1X1X1X1X1X1X1X1X1X1X1X1X1X1X1X1X1X1X1X1X1X"
};
