/* XPM */
static char *kpat[] = {
/* columns rows colors chars-per-pixel */
"32 32 189 2",
"   c #1A1A21",
".  c #1D1D23",
"X  c #031D35",
"o  c #031E35",
"O  c #0A233B",
"+  c #0B243B",
"@  c #202027",
"#  c #222229",
"$  c #26262C",
"%  c #313137",
"&  c #3C3C42",
"*  c #0B396B",
"=  c #0D3B6C",
"-  c #0E3B6D",
";  c #103D6E",
":  c #113E6E",
">  c #123E6F",
",  c #174272",
"<  c #1A4574",
"1  c #1D4876",
"2  c #1F4977",
"3  c #224C79",
"4  c #244D7A",
"5  c #254E7B",
"6  c #27507C",
"7  c #2C537F",
"8  c #2C547E",
"9  c #2C547F",
"0  c #494D4B",
"q  c #48484D",
"w  c #4B4F4D",
"e  c #4C504E",
"r  c #4D524F",
"t  c #4A4A50",
"y  c #4F4F54",
"u  c #4D5150",
"i  c #4E5250",
"p  c #4E5350",
"a  c #4F5351",
"s  c #4C5152",
"d  c #505352",
"f  c #505553",
"g  c #505554",
"h  c #515554",
"j  c #525555",
"k  c #525655",
"l  c #545755",
"z  c #545756",
"x  c #575A59",
"c  c #58585D",
"v  c #5C5C61",
"b  c #5F5F64",
"n  c #516577",
"m  c #77777B",
"M  c #2E5680",
"N  c #305781",
"B  c #315882",
"V  c #325983",
"C  c #335A83",
"Z  c #365C85",
"A  c #375D86",
"S  c #385D86",
"D  c #395E87",
"F  c #3A5F87",
"G  c #3B6088",
"H  c #3D6189",
"J  c #3F638A",
"K  c #41648C",
"L  c #42658C",
"P  c #42668D",
"I  c #43678D",
"U  c #44688E",
"Y  c #45688E",
"T  c #46698F",
"R  c #466A8F",
"E  c #476A90",
"W  c #496B91",
"Q  c #4C6E92",
"!  c #4D6F93",
"~  c #4E6F94",
"^  c #4F7094",
"/  c #507195",
"(  c #517295",
")  c #527296",
"_  c #527396",
"`  c #537397",
"'  c #547497",
"]  c #557598",
"[  c #567698",
"{  c #577699",
"}  c #587799",
"|  c #59789A",
" . c #59799A",
".. c #59799B",
"X. c #5C7B9C",
"o. c #5F7D9E",
"O. c #607F9F",
"+. c #617F9F",
"@. c #6481A1",
"#. c #6582A2",
"$. c #6682A2",
"%. c #6683A2",
"&. c #6783A3",
"*. c #6784A3",
"=. c #6884A3",
"-. c #6B87A5",
";. c #6C87A6",
":. c #6D88A6",
">. c #6D89A6",
",. c #6E89A7",
"<. c #718CA9",
"1. c #738EAA",
"2. c #738EAB",
"3. c #748EAB",
"4. c #7791AD",
"5. c #7892AD",
"6. c #7992AD",
"7. c #7992AE",
"8. c #7B94AF",
"9. c #7F97B1",
"0. c #8E8E91",
"q. c #939396",
"w. c #959598",
"e. c #8895A2",
"r. c #8D9AA4",
"t. c #8098B2",
"y. c #8199B2",
"u. c #8299B3",
"i. c #839AB4",
"p. c #849BB4",
"a. c #859CB5",
"s. c #879EB6",
"d. c #98A4AF",
"f. c #8AA0B8",
"g. c #8FA4BB",
"h. c #91A6BD",
"j. c #93A7BD",
"k. c #A2A2A5",
"l. c #AFAFB1",
"z. c #B9B9BB",
"x. c #BABABC",
"c. c #BDBDBF",
"v. c #98ABC0",
"b. c #9BADC2",
"n. c #9BAEC2",
"m. c #A0B2C5",
"M. c #B5C3D2",
"N. c #B7C5D3",
"B. c #D7D7D8",
"V. c #DDDDDE",
"C. c #DEDEDE",
"Z. c #DFDFDF",
"A. c #E0E0E0",
"S. c #E2E2E2",
"D. c #E2E2E3",
"F. c #E3E3E3",
"G. c #E3E3E4",
"H. c #E4E4E4",
"J. c #E5E5E5",
"K. c #E7E7E7",
"L. c #E8E8E8",
"P. c #E9E9E9",
"I. c #EAEAEA",
"U. c #EBEBEB",
"Y. c #ECECEC",
"T. c #EDEDED",
"R. c #EDEEEE",
"E. c #E9EDF0",
"W. c #E9EDF1",
"Q. c #EAEDF1",
"!. c #EAEEF1",
"~. c #EBEEF2",
"^. c #ECEFF2",
"/. c #ECEFF3",
"(. c #F2F2F2",
"). c #F8F9FA",
"_. c #F9F9FA",
"`. c #F8F9FB",
"'. c #FAFAFA",
"]. c #FAFAFB",
"[. c #FAFBFB",
"{. c #FBFBFB",
"}. c #FAFBFC",
"|. c #FBFBFC",
" X c #FBFCFC",
".X c #FBFCFD",
"XX c #FCFCFC",
"oX c #FDFDFD",
"OX c None",
/* pixels */
"OXOXOXOXOXOXOXOXOXOXOXOXOXOXOXOXOXOXOXOXOXOXOXOXOXOXOXOXOXOXOXOX",
"OXOXOXOXOXOXOXOXOXOXOXOXd w w w w w w w w w w w w w w w a OXOXOX",
"OXOXOXOXOXOXOXOXOXOXOXd P.XX{.{.{.{.{.{.{.{.{.{.{.{.{.XXT.a OXOX",
"OXOXOXOXOXOXOXOXOXOXOXd XXJ.J.J.J.J.J.J.J.J.J.J.J.J.J.J.).z OXOX",
"OXOXOXX X X X X X X X f {.C.C.C.C.C.C.C.C.C.C.C.C.C.C.C.{.x OXOX",
"OXOXX r.).).).).).).).l '.C.C.C.C.C.C.C.C.C.C.C.C.C.C.C.).x OXOX",
"OXOXX ~.+.] , < < , +.f '.C.C.C.C.C.C.C.C.C.C.C.C.C.C.C.{.x OXOX",
"OXOXX ~.) 5 ) =.&.( 5 d '.C.C.C.C.C.C.C.C.C.C.C.C.C.C.C.{.x OXOX",
"OXOXX ~.>.M.} P K X.N.h ).C.C.C.C.C.C.C.C.C.C.C.C.C.C.C.).x OXOX",
"OXOXX ~.m.1 ;.] ] &.3 h {.C.C.C.C.C.C.F.L.J.C.C.C.C.C.C.{.x OXOX",
"OXOXX ~.] 6 Q 9.4.) 3 h {.C.C.C.C.C.A.C.& B.F.C.C.C.C.C.{.x OXOX",
"OXOXX ~.7 s.<.=.#.3.p.h ).C.C.C.C.C.T.c   q I.C.C.C.C.C.).x OXOX",
"OXOXX ~.] D 2.) } 2.F h ).C.C.C.C.P.0.      m I.C.C.C.C.{.x OXOX",
"OXOXX W.f.P M H F 7 U h ).C.C.C.J.z..         l.J.C.C.C.{.x OXOX",
"OXOXX R.3 W 7.G F 7.U f {.C.C.C.P.y           t I.C.C.C.).x OXOX",
"OXOXX ~.7.*.v.p.s.b.+.h {.C.C.C.P.b   @ % #   v I.C.C.C.{.x OXOX",
"OXOXX W.] G 9.' ' t.Z d ).C.C.C.A.J.k.x.$ c.k.A.A.A.C.C.).x OXOX",
"OXOXX W.*.[ M *.=.9 | l {.C.C.C.C.A.P.q.  w.K.A.C.C.C.C.{.x OXOX",
"OXOXX ~.| | ; * = ; @.f {.V.C.C.C.C.A.P.F.K.F.C.C.C.C.C.{.x OXOX",
"OXOXX ~.' , C ^ ) N > d '.C.C.C.C.C.C.C.C.C.C.C.C.C.C.C.).x OXOX",
"OXOXX ~.) u.W I P Q p.h {.C.C.C.C.C.C.C.C.C.C.C.C.C.C.C.{.x OXOX",
"OXOXX R.b.#.| L I } &.h {.C.C.C.C.C.C.C.C.C.C.C.C.C.C.C.{.x OXOX",
"OXOXX ~.2.- #.j.g.+.- h ).C.C.C.C.C.C.C.C.C.C.C.C.C.C.C.).x OXOX",
"OXOXX ~.N u.3.>.=.4.7.h {.C.C.C.C.C.C.C.C.C.C.C.C.C.C.C.{.x OXOX",
"OXOXX ~.U ^ u.' ] u.Q f ).C.C.C.C.C.C.C.C.C.C.C.C.C.C.C.).x OXOX",
"OXOXX ~.j.U P E U P W f {.H.H.J.H.H.J.J.H.J.J.J.H.H.J.J.XXz OXOX",
"OXOXX ~.M C ' Z V ] V a Y.XXXXXXXXXXXXXXXXXXXXXXXXXXXXXX(.r OXOX",
"OXOXX ~.#.2.f.| ] j.,.n r 0 w 0 0 w 0 0 0 w 0 0 0 0 w 0 r OXOXOX",
"OXOXX d.XX{..X{.XX.X.X).).).}.}.).XXXXXXe.X OXOXOXOXOXOXOXOXOXOX",
"OXOXOXX + + + + + + + + + O O + + + + + X X OXOXOXOXOXOXOXOXOXOX",
"OXOXOXOXOXOXOXOXOXOXOXOXOXOXOXOXOXOXOXOXOXOXOXOXOXOXOXOXOXOXOXOX",
"OXOXOXOXOXOXOXOXOXOXOXOXOXOXOXOXOXOXOXOXOXOXOXOXOXOXOXOXOXOXOXOX"
};
