/* XPM */
static char *kreversi[] = {
/* columns rows colors chars-per-pixel */
"32 32 257 2",
"   c #000100",
".  c #010E00",
"X  c #061800",
"o  c #0A1D00",
"O  c #0A1600",
"+  c #101800",
"@  c #0F2500",
"#  c #112200",
"$  c #162B00",
"%  c #192C00",
"&  c #211D26",
"*  c #213900",
"=  c #23350A",
"-  c #2E2E2D",
";  c #323926",
":  c #3C3547",
">  c #3B3052",
",  c #244700",
"<  c #2E5400",
"1  c #324C0A",
"2  c #304A06",
"3  c #315300",
"4  c #395C01",
"5  c #375606",
"6  c #453B55",
"7  c #445429",
"8  c #436B03",
"9  c #577B19",
"0  c #4F6031",
"q  c #5E7736",
"w  c #51495F",
"e  c #50504F",
"r  c #535352",
"t  c #5B5B5A",
"y  c #59585B",
"u  c #554F63",
"i  c #5D536F",
"p  c #5D694A",
"a  c #655F6F",
"s  c #645973",
"d  c #626E4F",
"f  c #616162",
"g  c #676073",
"h  c #6F7070",
"j  c #757476",
"k  c #7B7B7A",
"l  c #766C85",
"z  c #796F89",
"x  c #7C7784",
"c  c #7D7091",
"v  c #4A8A00",
"b  c #508700",
"n  c #55830C",
"m  c #578F00",
"M  c #588608",
"N  c #5C8D02",
"B  c #5A8416",
"V  c #5B8518",
"C  c #5D8B15",
"Z  c #559000",
"A  c #5A9203",
"S  c #5D920B",
"D  c #5D9B00",
"F  c #5F9013",
"G  c #5F8527",
"H  c #608F17",
"J  c #61950A",
"K  c #619D00",
"L  c #62990A",
"P  c #629313",
"I  c #629218",
"U  c #6A9B1B",
"Y  c #689A16",
"T  c #648928",
"R  c #658038",
"E  c #6B9924",
"W  c #6B9726",
"Q  c #719D2C",
"!  c #71933B",
"~  c #749B37",
"^  c #6AA30E",
"/  c #6CAA0B",
"(  c #66A300",
")  c #6CA414",
"_  c #6EA41C",
"`  c #6FA813",
"'  c #72AE0E",
"]  c #71A61D",
"[  c #71AB13",
"{  c #75AB1B",
"}  c #70A616",
"|  c #75B114",
" . c #79B31B",
".. c #74A22B",
"X. c #76AA21",
"o. c #79AC27",
"O. c #7BAC2C",
"+. c #74A826",
"@. c #7BA33C",
"#. c #7EAC33",
"$. c #7AA536",
"%. c #7EB624",
"&. c #7FB230",
"*. c #6F8846",
"=. c #758C4C",
"-. c #749143",
";. c #778065",
":. c #7CA340",
">. c #7FA840",
",. c #807591",
"<. c #80AE2E",
"1. c #81AE35",
"2. c #81AB3C",
"3. c #80B32C",
"4. c #86BC2D",
"5. c #82B133",
"6. c #83B13B",
"7. c #8AB63D",
"8. c #88BA34",
"9. c #8BBC3B",
"0. c #84B833",
"q. c #808677",
"w. c #8E9A7B",
"e. c #899876",
"r. c #849664",
"t. c #83A64B",
"y. c #82AB42",
"u. c #85AC49",
"i. c #89AD4D",
"p. c #81A647",
"a. c #86A952",
"s. c #88AD50",
"d. c #8BAC59",
"f. c #84B140",
"g. c #88B149",
"h. c #8DBB41",
"j. c #8AB548",
"k. c #8CB251",
"l. c #8FB05A",
"z. c #90AF5C",
"x. c #91BC46",
"c. c #93BE4B",
"v. c #91B45B",
"b. c #97BE58",
"n. c #95BA58",
"m. c #90AE66",
"M. c #94B465",
"N. c #97B867",
"B. c #98B666",
"V. c #9AB966",
"C. c #9DBD6A",
"Z. c #97B26C",
"A. c #9BB571",
"S. c #9DB971",
"D. c #95A974",
"F. c #A0BE73",
"G. c #A3BB7B",
"H. c #A0B67C",
"J. c #87C628",
"K. c #8EC333",
"L. c #92D22F",
"P. c #96C250",
"I. c #9DC953",
"U. c #9CC357",
"Y. c #95C348",
"T. c #9EC462",
"R. c #A0C95B",
"E. c #A4DC4A",
"W. c #A9D95C",
"Q. c #A7CE68",
"!. c #A3CA65",
"~. c #A4C373",
"^. c #ADCC7C",
"/. c #A6C278",
"(. c #AAD16D",
"). c #ACD173",
"_. c #B2DF6A",
"`. c #B0D27D",
"'. c #ABE058",
"]. c #B7E66C",
"[. c #BCE57F",
"{. c #C0E77F",
"}. c #C4EF7E",
"|. c #C3F377",
" X c #848582",
".X c #888987",
"XX c #898889",
"oX c #87858A",
"OX c #8B8593",
"+X c #8A8693",
"@X c #908C97",
"#X c #929889",
"$X c #9283AD",
"%X c #9B93A8",
"&X c #9B8AB6",
"*X c #98A684",
"=X c #A6BD83",
"-X c #A9BF85",
";X c #A7B98A",
":X c #AEB79D",
">X c #ADBB98",
",X c #B0BC9E",
"<X c #ADB4A4",
"1X c #B0B5A6",
"2X c #B9B4C2",
"3X c #A9C184",
"4X c #AEC886",
"5X c #AEC490",
"6X c #B0C88C",
"7X c #B5C69C",
"8X c #B6CF90",
"9X c #B9CC9C",
"0X c #B5D386",
"qX c #B8D688",
"wX c #BBDB89",
"eX c #B8D687",
"rX c #BDD299",
"tX c #BBCCA2",
"yX c #BAC5A8",
"uX c #BED1A3",
"iX c #BCE283",
"pX c #C6BFD1",
"aX c #C3D89F",
"sX c #C1C9B2",
"dX c #C1D4A4",
"fX c #C4DAA0",
"gX c #C9DDAB",
"hX c #C9D7B4",
"jX c #C2E589",
"kX c #C7EA8D",
"lX c #D4E2BD",
"zX c #D2E3B6",
"xX c #D6F0AA",
"cX c #CFCAD8",
"vX c #CED6C0",
"bX c #DBD9DD",
"nX c #D8DED0",
"mX c #DCECC0",
"MX c #D9E6C4",
"NX c #DEE2D9",
"BX c #E4DCEE",
"VX c #E4D9F7",
"CX c #ECF8D8",
"ZX c #E8E8E6",
"AX c #ECECEC",
"SX c #E7E7E6",
"DX c #EDEAF2",
"FX c #F3EBFD",
"GX c #F3E3FF",
"HX c #F0F1EF",
"JX c #F3F9E9",
"KX c #F3F3F3",
"LX c #F6F8F5",
"PX c #FDF2FF",
"IX c #FEFEFE",
"UX c #F6F5F6",
"YX c None",
/* pixels */
"YXYXYXYXYXYXYXYXYXYXYXYXYXYXYXYXYXYXYXYXYXYXYXYXYXYXYXYXYXYXYXYX",
"YXYXYXYXYXYXYXYXYXYXYXYXYXYXYXYXYXYXYXYXYXYXYXYXYXYXYXYXYXYXYXYX",
"YX  o X X o o o o o X @ o o o # o o o o # o o o o o o o X @   YX",
"YXB xX0XeXeXeXqXeXwXwXwXwXwXjXiXjXjXwXwXwXwXwXwXwXeX`.^.qXkX4 YX",
"YXT JX7XtXtXtXtXtXtXtXtXuXaX,X<X<X7XaXdXtXtXtXtXtXtXtXyXhXCX< YX",
"YXT MXH.=X=X=X=X-X3X;X4X4X.X+X@X@XOXw.`.3X3X3X3X3X3X3X=X5XmX3 YX",
"YX~ lXA.S.G.H.G.G././.`.;.x .X.X.XXXl Z.^.G.G.G.G.G.S.S.=XmX8 YX",
"YX@.hXm.A.A.A.S.S.S.S.~.u k k k k k a j ).F.F.C.S.S.S.A.A.lXn YX",
"YXg.dXd.M.M.M.N.Z.N.C.T.: e t f f t 6 d (.N.N.N.V.N.Z.M.M.zXP YX",
"  k.9Xt.d.l.d.d.v.v.n.T.; w t e e f > q Q.v.v.M.v.v.d.d.d.gXU YX",
"  b.6X:.a.s.s.k.k.k.k.U.! & s x x a ; Y.c.k.j.k.s.k.s.u.p.gX+.YX",
"  U.3X~ t.>.u.g.u.u.g.j.I.T ; f f 7 2.P.g.g.j.j.u.u.u.u.>.dXo.YX",
"  !./.Q :.>.@.2.>.y.>.f.f.Y.9.W ..9.Y.2.f.f.f.y.f.2.>.>.$.rX3.  ",
"  Q.V.E +._ ] { o.#.#.#.#.o./ ` ` ` #.6.#.#.6.] L S L Y E 8X0.  ",
"  (.v.K ! w.#Xe...| O.#.` _ yXNXnXG.L { #.#.D @.hXNXhXa.v 4X9.  ",
". (.&.q &X%X%X%X$X-.| ^ ..PXIXIXIXIXbXL { K Z.IXIXIXIXIX;Xc.9.  ",
"o ].@.z XX X.Xq.oXc } D bXIXKXKXKXLXIX-XD U PXIXHXUXHXIXIX-XJ.O ",
"# ].=.u h j k j h i E / BXUXHXUXUXHXPXsXK i.PXHXKXKXUXHXFXyXJ.% ",
"# |.R : r y f t y 6 U [ cXDXZXHXAXSXFX:X( @.VXZXAXAXAXSXBX>XL.$ ",
"$ }.E & g r e e s -  ./ w.PXLXLXLXPXVX-. .U 1XPXUXLXLXIXpXt.E.% ",
"$ {.8., > x l ,.6 8 K.3.M 2XIXIXIXPX#XJ 7.| q BXIXIXIXGXq h.W.$ ",
"* [.O.[ 8 7 p 0 B 4.1.1.3.n r.yX:X*.J 8.1.7.[ 9 *XyX*X9 Z T.W.* ",
"3 wX..} 3.| )  .4.<.O.<.1.8.) N A { 9.5.1.1.5.3.A b m [ ) V.W.< ",
"4 jXo.[ X.O.3.3.5.5.7.h.x.c.I.I.I.U.P.P.c.x.9.7.9.9.8.&.) U.].4 ",
"2 _ C I I E W Q $.$.>.k.l.v.V.C././.F.N.M.k.s.i.p.~ ~ W T B Y 1 ",
"2 U V P I I F P F J S L A A A A m m A A A A S S S J F P F C U 5 ",
"= U V V V V V V V V V V V V V V V V V V V V V V V V V V V V U = ",
"                                                                ",
"YXYXYXYXYXYXYXYXYXYXYXYXYXYXYXYXYXYXYXYXYXYXYXYXYXYXYXYXYXYXYXYX",
"YXYXYXYXYXYXYXYXYXYXYXYXYXYXYXYXYXYXYXYXYXYXYXYXYXYXYXYXYXYXYXYX",
"YXYXYXYXYXYXYXYXYXYXYXYXYXYXYXYXYXYXYXYXYXYXYXYXYXYXYXYXYXYXYXYX",
"YXYXYXYXYXYXYXYXYXYXYXYXYXYXYXYXYXYXYXYXYXYXYXYXYXYXYXYXYXYXYXYX"
};
