/* XPM */
static char *kreversi[] = {
/* columns rows colors chars-per-pixel */
"32 32 161 2",
"   c #5A0000",
".  c #630000",
"X  c #6C0100",
"o  c #730100",
"O  c #7C0200",
"+  c #1D0A55",
"@  c #220E5C",
"#  c #24115A",
"$  c #29165E",
"%  c #2A185E",
"&  c #2F1D62",
"*  c #2D1668",
"=  c #311F67",
"-  c #311D69",
";  c #341B70",
":  c #3A1F77",
">  c #362469",
",  c #3C2A6C",
"<  c #3F2C71",
"1  c #422F73",
"2  c #442A7A",
"3  c #4A2F7F",
"4  c #423072",
"5  c #4F3C7D",
"6  c #523F7F",
"7  c #51407E",
"8  c #840200",
"9  c #8A0200",
"0  c #840906",
"q  c #930300",
"w  c #9D0400",
"e  c #9F0805",
"r  c #9C0F0C",
"t  c #96110E",
"y  c #8E1715",
"u  c #921513",
"i  c #9D1714",
"p  c #9A1B18",
"a  c #A20400",
"s  c #AA0400",
"d  c #A50804",
"f  c #AA0A05",
"g  c #A70C09",
"h  c #B20500",
"j  c #BA0500",
"k  c #B30904",
"l  c #BF0903",
"z  c #B20E09",
"x  c #BC120D",
"c  c #AD1E1A",
"v  c #BE1914",
"b  c #B71F1B",
"n  c #BF1E18",
"m  c #B3211E",
"M  c #BD241F",
"N  c #BA2420",
"B  c #B52D2A",
"V  c #C20600",
"C  c #CD0600",
"Z  c #D20700",
"A  c #DC0700",
"S  c #CD1E19",
"D  c #D41610",
"F  c #D61912",
"G  c #E20901",
"H  c #E3160F",
"J  c #E21912",
"K  c #E5211A",
"L  c #CE2520",
"P  c #CE2923",
"I  c #C0312D",
"U  c #DD322C",
"Y  c #DC3630",
"T  c #D33C37",
"R  c #E52A23",
"E  c #E62F28",
"W  c #E13F3A",
"Q  c #CB4946",
"!  c #D65A57",
"~  c #E55954",
"^  c #DC605C",
"/  c #E9615D",
"(  c #DC6563",
")  c #DD6F6F",
"_  c #DD7676",
"`  c #E56361",
"'  c #E96865",
"]  c #E26C69",
"[  c #E3706F",
"{  c #EA706D",
"}  c #E57875",
"|  c #EC7873",
" . c #EB7C7A",
".. c #EB817E",
"X. c #442683",
"o. c #462986",
"O. c #4D3381",
"+. c #4E328B",
"@. c #533A85",
"#. c #553C89",
"$. c #583F89",
"%. c #584687",
"&. c #5C438C",
"*. c #5E4C8B",
"=. c #5E4492",
"-. c #604A8E",
";. c #605287",
":. c #65548C",
">. c #644B92",
",. c #6A5397",
"<. c #6C5C93",
"1. c #6D5599",
"2. c #6D5899",
"3. c #705E97",
"4. c #735C9D",
"5. c #706293",
"6. c #74619B",
"7. c #7A6E9A",
"8. c #765FA0",
"9. c #7761A0",
"0. c #7964A2",
"q. c #7C69A3",
"w. c #7D67A8",
"e. c #806CA7",
"r. c #826EA9",
"t. c #897CA6",
"y. c #8673AA",
"u. c #8A76AE",
"i. c #8B77B0",
"p. c #8E7BB1",
"a. c #917DB4",
"s. c #8E81AA",
"d. c #9087AA",
"f. c #9482B5",
"g. c #9986B9",
"h. c #9C8ABC",
"j. c #9D91B7",
"k. c #9F91BE",
"l. c #A08EBF",
"z. c #E58787",
"x. c #EB9293",
"c. c #A18EC0",
"v. c #A594C3",
"b. c #AA9BC5",
"n. c #AC9DC8",
"m. c #B0A5C5",
"M. c #B2A2CC",
"N. c #B5AACD",
"B. c #BBADD2",
"V. c #BFB1D6",
"C. c #C3B6D7",
"Z. c #C1B3D8",
"A. c #C6BADA",
"S. c #CBBEDF",
"D. c #CCC0DD",
"F. c #CFC3E1",
"G. c #D4CAE4",
"H. c #DDD5E9",
"J. c #E4DEEE",
"K. c #E6E0EF",
"L. c None",
/* pixels */
"L.L.L.L.L.L.L.L.L.L.L.L.L.L.L.L.L.L.L.L.L.L.L.L.L.L.L.L.L.L.L.L.",
"L.L.L.L.L.L.L.L.L.L.L.L.L.L.L.L.L.L.L.L.L.L.L.L.L.L.L.L.L.L.L.L.",
"L.L.L.L.L.L.L.L.L.L.L.L.L.L.L.L.L.L.L.L.L.L.L.L.L.L.L.L.L.L.L.L.",
"L.L.L.L.L.L.L.L.L.L.L.L.L.o.+.o.X.L.L.L.L.L.L.L.L.L.L.L.L.L.L.L.",
"L.L.L.L.L.L.L.L.L.L.=.1.w.a.h.f.w.#.: L.L.L.L.L.L.L.L.L.L.L.L.L.",
"L.L.L.L.L.L.L.L.#.6.a.f.g.h.c.v.n.n.,.; L.L.L.L.L.L.L.L.L.L.L.L.",
"L.L.L.L.L.L.L.$.e.a.a.f.g.l.v.M.N.V.Z.*.* L.L.L.L.L.L.L.L.L.L.L.",
"L.L.L.L.L.L.$.y.u.i.i.a.h.6.$ 4 y.D.G.B.- L.L.L.L.L.L.L.L.L.L.L.",
"L.L.L.L.L.L.9.e.r.y.i.a.<.+ + # = V.H.K.:.@ L.L.L.L.L.L.L.L.L.L.",
"L.L.L.L.L.$.w.0.q.r.u.a.6 + # 4 %.y.H.K.j.+ L.L.L.L.L.L.L.L.L.L.",
"L.L.L.L.2 4.4.8.8.0.y.a.4 + > *.q.j.H.H.b.+ L.L.P L.L.L.L.L.L.L.",
"L.L.L.L.O.1.,.,.1.0.y.a.q.+ < 6.k.N.G.G.s.+ L.L.Y Z L.L.L.L.L.L.",
"L.L.L.L.@.>.-.-.1.0.u.a.h.*.@.0.n.A.F.F.5.+ L.L.~ D S L.L.L.L.L.",
"L.L.L.L.#.&.$.-.1.8.r.a.h.v.n.n.V.A.S.N.& L.L.L.} L v L.L.L.L.L.",
"L.L.L.L.@.@.&.-.,.9.r.i.g.c.n.M.B.C.C.:.+ L.L.M ..x s N L.L.L.L.",
"L.L.L.L.O.@.&.-.1.4.e.i.f.c.b.M.B.m.;.L.L.L.L.[ ( s w r L.L.L.L.",
"L.L.L.L.O.@.&.>.1.0.e.u.f.t.s.d.7.L.L.L.L.m ( [ m a q 8 L.L.L.L.",
"L.L.L.L.3 @.-.>.4.6.y.<.$ L.L.L.t B Q ^ ] z.} B a q 8 o L.L.L.L.",
"L.L.L.L.O.@.=.,.4.0.<.+ L.L.i ` x. . . .} ! z a q 8 o X L.L.L.L.",
"L.L.L.L.L.$.-.,.4.q.% L.L.L.{ ' R G A C j h a q 8 O X . L.L.L.L.",
"L.L.L.L.L.$.>.,.4.2.+ L.L.T / H G A C j h a q 9 O X   X L.L.L.L.",
"L.L.L.L.L.L.>.1.8.:.+ L.L.W E G A j w e f q 9 O X     8 L.L.L.L.",
"L.L.L.L.L.L.>.1.9.<.+ L.L.U K A j 9 9 8 u 9 O X .     L.L.L.L.L.",
"L.L.L.L.L.L.L.1.0.q.# L.L.S J Z a 8 q q p O o .     8 L.L.L.L.L.",
"L.L.L.L.L.L.L.L.0.y.7 + L.f F V k r g c y o .     o L.L.L.L.L.L.",
"L.L.L.L.L.L.L.L.L.e.y.> + L.l j s e t 0 o .     O L.L.L.L.L.L.L.",
"L.L.L.L.L.L.L.L.L.L.L.6., + L.V w q 8 o .   o L.L.L.L.L.L.L.L.L.",
"L.L.L.L.L.L.L.L.L.L.L.L.L.L.+ L.L.h w a L.L.L.L.L.L.L.L.L.L.L.L.",
"L.L.L.L.L.L.L.L.L.L.L.L.L.L.L.L.L.L.L.L.L.L.L.L.L.L.L.L.L.L.L.L.",
"L.L.L.L.L.L.L.L.L.L.L.L.L.L.L.L.L.L.L.L.L.L.L.L.L.L.L.L.L.L.L.L.",
"L.L.L.L.L.L.L.L.L.L.L.L.L.L.L.L.L.L.L.L.L.L.L.L.L.L.L.L.L.L.L.L.",
"L.L.L.L.L.L.L.L.L.L.L.L.L.L.L.L.L.L.L.L.L.L.L.L.L.L.L.L.L.L.L.L."
};
