/* XPM */
static char *kreversi___[] = {
/* columns rows colors chars-per-pixel */
"16 16 107 2",
"   c #590000",
".  c #5E0000",
"X  c #6A0100",
"o  c #6C0100",
"O  c #6F0100",
"+  c #770605",
"@  c #780200",
"#  c #7C0100",
"$  c #1D0A55",
"%  c #220F58",
"&  c #24125B",
"*  c #2B1961",
"=  c #362368",
"-  c #38266B",
";  c #3E2B6F",
":  c #402D71",
">  c #402679",
",  c #483675",
"<  c #4C337E",
"1  c #4C3979",
"2  c #800200",
"3  c #860200",
"4  c #870604",
"5  c #880200",
"6  c #8C0F0C",
"7  c #9B0400",
"8  c #9E0400",
"9  c #9F0501",
"0  c #9B100D",
"q  c #A20400",
"w  c #A40501",
"e  c #AF0500",
"r  c #A40A06",
"t  c #A91714",
"y  c #BA1510",
"u  c #BF1712",
"i  c #BE211B",
"p  c #D60700",
"a  c #C7110B",
"s  c #C31A16",
"d  c #C41B15",
"f  c #E0130C",
"g  c #C62823",
"h  c #DC352F",
"j  c #CD3935",
"k  c #C53F3D",
"l  c #E42E28",
"z  c #E2433E",
"x  c #DF4A46",
"c  c #DA5350",
"v  c #D55957",
"b  c #E75452",
"n  c #4F3482",
"m  c #513783",
"M  c #574584",
"N  c #5C438C",
"B  c #5D448D",
"V  c #5E458E",
"C  c #5E4F89",
"Z  c #5F488C",
"A  c #604F88",
"S  c #6E5D8F",
"D  c #614794",
"F  c #604890",
"G  c #614990",
"H  c #654C93",
"J  c #654E94",
"K  c #685095",
"L  c #6F5F94",
"P  c #6F5E97",
"I  c #6E5899",
"U  c #715B99",
"Y  c #70599B",
"T  c #735E9B",
"R  c #715A9C",
"E  c #725A9C",
"W  c #715A9F",
"Q  c #735C9E",
"!  c #74649A",
"~  c #76669C",
"^  c #7660A0",
"/  c #7B65A3",
"(  c #7C67A4",
")  c #7C67A6",
"_  c #7E6AA4",
"`  c #7F6AA6",
"'  c #8673AB",
"]  c #8773AD",
"[  c #8974AE",
"{  c #8A75AE",
"}  c #8976AE",
"|  c #8878AD",
" . c #8D7AB0",
".. c #8C7BB0",
"X. c #8D7AB1",
"o. c #8E7AB1",
"O. c #9883B9",
"+. c #998BBB",
"@. c #9D8ABD",
"#. c #AC9FC4",
"$. c #AF9FC8",
"%. c #B0A0CB",
"&. c #B9ADD2",
"*. c #C3B7D6",
"=. c #DCD4E9",
"-. c #DDD4EA",
";. c None",
/* pixels */
";.;.;.;.;.;.;.;.;.;.;.;.;.;.;.;.",
";.;.;.;.;.;.;.;.;.;.;.;.;.;.;.;.",
";.;.;.;.D ) o.O.W > ;.;.;.;.;.;.",
";.;.;.J ] o.X.P $.+.;.;.;.;.;.;.",
";.;.;._ _ [ : $ C -.- ;.;.;.;.;.",
";.;.V I E } ; = | -.A ;.s ;.;.;.",
";.;.N V E } X.~ &.*.& ;.h y ;.;.",
";.;.m V I [ @.$.#.L ;.j g t ;.;.",
";.;.n G Q _ ! S ;.k c v 9 4 ;.;.",
";.;.< H ^ 1 ;.x b z s q 3 X ;.;.",
";.;.;.K T % i l p e w 5 O . ;.;.",
";.;.;.Z / * u f 7 2 6 O   @ ;.;.",
";.;.;.;.U M ;.a r 0 +   X ;.;.;.",
";.;.;.;.;.;., ;.9 # X ;.;.;.;.;.",
";.;.;.;.;.;.;.;.;.;.;.;.;.;.;.;.",
";.;.;.;.;.;.;.;.;.;.;.;.;.;.;.;."
};
