/* XPM */
static char *ksame[] = {
/* columns rows colors chars-per-pixel */
"32 32 252 2",
"   c #1A1B1B",
".  c #1E2122",
"X  c #212424",
"o  c #272929",
"O  c #2E3031",
"+  c #363737",
"@  c #373839",
"#  c #3C3D3D",
"$  c #096227",
"%  c #0D652B",
"&  c #156032",
"*  c #196034",
"=  c #0B7F36",
"-  c #177B33",
";  c #1A7D34",
":  c #1F7F3F",
">  c #23663F",
",  c #206F3C",
"<  c #25703E",
"1  c #1F6E41",
"2  c #256B40",
"3  c #2C6D45",
"4  c #316146",
"5  c #32664A",
"6  c #346D4D",
"7  c #39694F",
"8  c #2D7E43",
"9  c #327956",
"0  c #3D7A5A",
"q  c #414343",
"w  c #444C4B",
"e  c #494A4B",
"r  c #4D4F50",
"t  c #445550",
"y  c #4D5253",
"u  c #545657",
"i  c #535758",
"p  c #565B5B",
"a  c #5A5D5E",
"s  c #4D665D",
"d  c #416D58",
"f  c #57635F",
"g  c #506D5E",
"h  c #417258",
"j  c #48725F",
"k  c #595E60",
"l  c #4D6F60",
"z  c #5D6363",
"x  c #556862",
"c  c #5E6968",
"v  c #477762",
"b  c #487767",
"n  c #4C7C65",
"m  c #4B7968",
"M  c #577769",
"N  c #5A7569",
"B  c #507B6B",
"V  c #5B7E73",
"C  c #616465",
"Z  c #646768",
"A  c #656B6B",
"S  c #696C6D",
"D  c #66706E",
"F  c #69706F",
"G  c #6A6E70",
"H  c #6C7172",
"J  c #6C7C78",
"K  c #717576",
"L  c #737778",
"P  c #757A7A",
"I  c #797C7D",
"U  c #268838",
"Y  c #229438",
"T  c #289D3D",
"R  c #238043",
"E  c #2E8B4C",
"W  c #398A49",
"Q  c #3A9D4C",
"!  c #3F8C53",
"~  c #3D9459",
"^  c #2CA645",
"/  c #17966F",
"(  c #2D8261",
")  c #20866D",
"_  c #368464",
"`  c #388B62",
"'  c #3E8968",
"]  c #3E9966",
"[  c #2E8979",
"{  c #3D8775",
"}  c #3A8E78",
"|  c #229176",
" . c #3C9871",
".. c #39BD61",
"X. c #44845B",
"o. c #458A5A",
"O. c #488D58",
"+. c #4B985D",
"@. c #4BAF59",
"#. c #488362",
"$. c #488D66",
"%. c #448169",
"&. c #538069",
"*. c #439961",
"=. c #479068",
"-. c #539564",
";. c #55986F",
":. c #408772",
">. c #488771",
",. c #4D8970",
"<. c #4B8D7B",
"1. c #538A74",
"2. c #598B77",
"3. c #508D79",
"4. c #469175",
"5. c #549373",
"6. c #569079",
"7. c #5F9A7F",
"8. c #608575",
"9. c #6F827B",
"0. c #628A7B",
"q. c #6B897D",
"w. c #71837D",
"e. c #619B78",
"r. c #5FBD6B",
"t. c #5FAB73",
"y. c #50BC7B",
"u. c #69BC6E",
"i. c #6DB073",
"p. c #69BE71",
"a. c #42C569",
"s. c #5DCE75",
"d. c #66C270",
"f. c #65C27E",
"g. c #73C27A",
"h. c #7B7F80",
"j. c #3B9D8F",
"k. c #3FA289",
"l. c #35BB95",
"z. c #5C9A85",
"x. c #519F8B",
"c. c #778480",
"v. c #7C8182",
"b. c #7F8C87",
"n. c #609586",
"m. c #679B89",
"M. c #749389",
"N. c #7A958A",
"B. c #77998E",
"V. c #739B90",
"C. c #7F9E96",
"Z. c #5FA089",
"A. c #5AB287",
"S. c #4AAB9B",
"D. c #66A282",
"F. c #65A986",
"G. c #62A088",
"H. c #6AA48E",
"J. c #75B683",
"K. c #7CB38C",
"L. c #6EAB92",
"P. c #62B493",
"I. c #69B399",
"U. c #77B093",
"Y. c #7BBD95",
"T. c #74B399",
"R. c #79B29B",
"E. c #4BB7AE",
"W. c #65B9A9",
"Q. c #76BBA2",
"!. c #56C691",
"~. c #5ACE9D",
"^. c #6CC88D",
"/. c #7ED78B",
"(. c #6CCA98",
"). c #53CCA6",
"_. c #56C0B6",
"`. c #52CAB3",
"'. c #7FCCAA",
"]. c #7CD3AC",
"[. c #7DC9B6",
"{. c #7FD3B9",
"}. c #7CD2C2",
"|. c #818485",
" X c #848788",
".X c #868A8A",
"XX c #8A8D8D",
"oX c #83938E",
"OX c #8C8F91",
"+X c #8E9292",
"@X c #839F98",
"#X c #8D9D98",
"$X c #929495",
"%X c #909896",
"&X c #949798",
"*X c #969B9B",
"=X c #9A9B9C",
"-X c #80BE8A",
";X c #8FA39D",
":X c #95A19E",
">X c #99A19F",
",X c #9F9FA0",
"<X c #9EA3A2",
"1X c #A2A4A5",
"2X c #A6AAAA",
"3X c #AAACAD",
"4X c #A6B4AF",
"5X c #ADAFB0",
"6X c #ADB2B2",
"7X c #B0B1B1",
"8X c #B5B7B8",
"9X c #BABBBC",
"0X c #89C489",
"qX c #8BCC8A",
"wX c #84C09F",
"eX c #8AC699",
"rX c #90C696",
"tX c #98CF93",
"yX c #81D792",
"uX c #8EDB96",
"iX c #80D89D",
"pX c #8DDA9B",
"aX c #9AD295",
"sX c #8CC5A1",
"dX c #8AC8A3",
"fX c #92C5A6",
"gX c #86D7AD",
"hX c #91DAAD",
"jX c #9FDDAA",
"kX c #82D6B3",
"lX c #88D3B3",
"zX c #81D4BB",
"xX c #9DDCB1",
"cX c #A2CEAE",
"vX c #A4D6A5",
"bX c #AADAA2",
"nX c #A4DEAD",
"mX c #AADEBC",
"MX c #B5DBB5",
"NX c #B2DBB8",
"BX c #BEDFBD",
"VX c #B8E3B1",
"CX c #B6E0BB",
"ZX c #C2E2B4",
"AX c #C8E2B7",
"SX c #C3E3BD",
"DX c #8FD6C4",
"FX c #AADCC4",
"GX c #C1C2C3",
"HX c #C3E3C2",
"JX c #D6E7C2",
"KX c None",
/* pixels */
"KXKXKXKXKXKXKXKXKXKXKXKXKXKXKXKXKXKXKXKXKXKXKXKXKXKXKXKXKXKXKXKX",
"KXKX7X,X=X&X$X$XKXKXKXKXKX|.G G A C k KXKXKXKXKXKXKXKXKXKXKXKXKX",
"KX3XK 6X%XM.3X|.$XKXKXKXKXZ =XOXV OX Xp KXKXKXKXKXKXKXKXKXKXKXKX",
"KX7XI m.fXQ.:.&XOXKXKXKXKXC M.-X'._ .Xu KXKXKXKXKXKXKXKXKXKXKXKX",
"KX5XI U.SXzXj. XOXKXKXKXKXC z.HXkXl.b i KXKXKXKXKXKXKXKXKXKXKXKX",
"KX5XI n.[.E.[ $X+XKXKXKXKXC 2.].)./ P i KXKXKXKXKXKXKXKXKXKXKXKX",
"KX7XI 3X<.{ ;X+X$XKXKXKXXXC *X%.9 m .Xi KXKXKXKXKXKXKXKXKXKXKXKX",
"KX7XI FX9X9X8X4XP F S A Z OX$X$X+X.X.Xi KXKXKXKXKXKXKXKXKXKXKXKX",
"KX7XI 7Xz.z.@X6X6XV.m.6.,X*X+X1.5.B .Xu KXKXKXKXKXKXKXKXKXKXKXKX",
"KX7XI H.HXDXx.5X<XcXCXlX>.&X6.SXxXA.J u KXKXKXKXKXKXKXKXKXKXKXKX",
"KX7XP R.FX}.S.:XN.NXmXkX4.&XD.MXhX!.v u KXKXKXKXKXKXKXKXKXKXKXKX",
"KX7XP n.W.E.{ 3X2XG.'.P.2.&X8.Y.(.` v.p KXKXKXKXKXKXKXKXKXKXKXKX",
"KX7XP 9X:XM.6X3X2X<X0.oX&X$XOXv.B I .Xp u r e q # + O o X   KXKX",
"KX7XL 9X6X2X3X2X2X<X%X*X&X+XOX.Xw.h.I |.K D A S A A C z z z X KX",
"KX7XP V.T.I.6.2X1X7.sXF.q.+X9.-XeX$.L K #.Y.t.6 p y O.i.8 t O KX",
"KX7XL L.HXzXk.:XN.MXCX].' +X7.AXnX^.j H rXVX/.E i 5 ZXaX@.& O KX",
"KX6XK m.zX`.| >XoXdXlX)._ XX5.jXiXy.g H J.uXs.1 y 5 0Xp.T * O KX",
"KX6XL @X} ) 1.1X<X,.4.E q..XP =.] 9 H S 0 ~ 8 4 y w , ; $ w O KX",
"KX2XK I I I I I L L L K L XX|.v.I H H G Z z k y c z k k a a . KX",
"KXKX1X2X2X1X=X=X$X+XXX XXXC .XM 0 D H A z 7 5 r c + O o . KXKXKX",
"KXKXKXKXKXKXKXKXKXKXKXKXKXC B bXpX*.A A -.bXg.: c + KXKXKXKXKXKX",
"KXKXKXKXKXKXKXKXKXKXKXKXKXC ;.VXyX..5 x 0XbXd.- k + KXKXKXKXKXKX",
"KXKXKXKXKXKXKXKXKXKXKXKXKXC #.f.a.R s z ! r.^ % z + KXKXKXKXKXKX",
"KXKXKXKXKXKXKXKXKXKXKXKXKXC |.d 1 s c A c 2 > p k + KXKXKXKXKXKX",
"KXKXKXKXKXKXKXKXKXKXKXKXKXC v.K G A K a u r e e q KXKXKXKXKXKXKX",
"KXKXKXKXKXKXKXKXKXKXKXKXKXC P X.+.3 K i KXKXKXKXKXKXKXKXKXKXKXKX",
"KXKXKXKXKXKXKXKXKXKXKXKXKXC X.AXqXQ g u KXKXKXKXKXKXKXKXKXKXKXKX",
"KXKXKXKXKXKXKXKXKXKXKXKXKXC O.tXu.Y 7 u KXKXKXKXKXKXKXKXKXKXKXKX",
"KXKXKXKXKXKXKXKXKXKXKXKXKXC N W U $ H u KXKXKXKXKXKXKXKXKXKXKXKX",
"KXKXKXKXKXKXKXKXKXKXKXKXKXZ L S x S S p KXKXKXKXKXKXKXKXKXKXKXKX",
"KXKXKXKXKXKXKXKXKXKXKXKXKX|.K G A Z z KXKXKXKXKXKXKXKXKXKXKXKXKX",
"KXKXKXKXKXKXKXKXKXKXKXKXKXKXKXKXKXKXKXKXKXKXKXKXKXKXKXKXKXKXKXKX"
};
