/* XPM */
static char *ksame___[] = {
/* columns rows colors chars-per-pixel */
"16 16 120 2",
"   c #227A3A",
".  c #3E4041",
"X  c #3F4243",
"o  c #2C7B43",
"O  c #287C41",
"+  c #3A7751",
"@  c #46494A",
"#  c #454A4B",
"$  c #4B4E4F",
"%  c #43554F",
"&  c #4B4E50",
"*  c #435751",
"=  c #455A52",
"-  c #505253",
";  c #56595A",
":  c #575A5B",
">  c #4E645B",
",  c #51685C",
"<  c #50695E",
"1  c #467E58",
"2  c #5E6261",
"3  c #547A66",
"4  c #5F716A",
"5  c #5D736B",
"6  c #5B776B",
"7  c #626565",
"8  c #636566",
"9  c #606867",
"0  c #696B6C",
"q  c #696F6D",
"w  c #696D6F",
"e  c #6D6F6F",
"r  c #61706B",
"t  c #63756F",
"y  c #6E7071",
"u  c #6E7172",
"i  c #6C7E79",
"p  c #707273",
"a  c #727474",
"s  c #727777",
"d  c #767879",
"f  c #767979",
"g  c #7A7C7D",
"h  c #7B7D7E",
"j  c #318547",
"k  c #3C9659",
"l  c #479558",
"z  c #49A05E",
"x  c #4F936A",
"c  c #598779",
"v  c #48967C",
"b  c #668D7E",
"n  c #76817E",
"m  c #5FAF6C",
"M  c #5AAD70",
"N  c #64AF70",
"B  c #6FB676",
"V  c #62B27E",
"C  c #72BB79",
"Z  c #5A9386",
"A  c #5B9487",
"S  c #52988F",
"D  c #539F8F",
"F  c #678F80",
"G  c #689485",
"H  c #65928E",
"J  c #69928C",
"K  c #629D8F",
"L  c #78918B",
"P  c #669A92",
"I  c #739591",
"U  c #739592",
"Y  c #7D9690",
"T  c #7F9592",
"R  c #5FA288",
"E  c #6AAD86",
"W  c #65A28F",
"Q  c #68A28D",
"!  c #64B28C",
"~  c #6DB28A",
"^  c #71B880",
"/  c #71BB83",
"(  c #70BD89",
")  c #66A093",
"_  c #64A298",
"`  c #75A39A",
"'  c #75A59E",
"]  c #72AF9B",
"[  c #72BA9E",
"{  c #7FBD99",
"}  c #7BA6A0",
"|  c #74BFB0",
" . c #7FC284",
".. c #78C59C",
"X. c #7BC0A5",
"o. c #74C3A9",
"O. c #808283",
"+. c #868788",
"@. c #858C8C",
"#. c #8A8C8D",
"$. c #8A8D8E",
"%. c #80928D",
"&. c #929596",
"*. c #989A9B",
"=. c #999F9E",
"-. c #97A7A3",
";. c #9CA5A4",
":. c #A3A6A6",
">. c #ABADAE",
",. c #89C887",
"<. c #89CA9A",
"1. c #87D193",
"2. c #89CEA1",
"3. c #80D0A9",
"4. c #93D0A9",
"5. c #87CCB1",
"6. c #A6D9B7",
"7. c #A6D9BF",
"8. c #BEDFBD",
"9. c None",
/* pixels */
"9.9.9.9.9.9.9.9.9.9.9.9.9.9.9.9.",
"9.T D U 9.9.e A v p 9.9.9.9.9.9.",
"9.A 8.S 9.9.0 [ 3.5 9.9.9.9.9.9.",
"9.=.` ;.g a f L c u 9.9.9.9.9.9.",
"9.U | } ' X.T R ! q 9.9.9.9.9.9.",
"9.P 7._ ] 6.G { 2.5 9.9.9.9.9.9.",
"9.*.-.>.:.%.&.@.i s 2 : - # X 9.",
"9.H 5.) W 4.F ~ <.t / M * C j 9.",
"9.J o.K Q ..b E ( r / l = B   9.",
"9.#.#.+.O.h f n 5 q > = : # X 9.",
"9.9.9.9.9.9.0 V 1.<  .m $ 9.9.9.",
"9.9.9.9.9.9.0 x k 9 l O & 9.9.9.",
"9.9.9.9.9.9.0 3 + 8 9.9.9.9.9.9.",
"9.9.9.9.9.9.0 N ,.< 9.9.9.9.9.9.",
"9.9.9.9.9.9.u 1 o 7 9.9.9.9.9.9.",
"9.9.9.9.9.9.9.9.9.9.9.9.9.9.9.9."
};
