/* XPM */
static char *kshisen[] = {
/* columns rows colors chars-per-pixel */
"32 32 242 2",
"   c #3A2212",
".  c #432614",
"X  c #55311A",
"o  c #59361E",
"O  c #5C381E",
"+  c #5D3A21",
"@  c #623E24",
"#  c #547E15",
"$  c #654126",
"%  c #684327",
"&  c #654228",
"*  c #6A442A",
"=  c #6F482D",
"-  c #714A2F",
";  c #8C552F",
":  c #9F643B",
">  c #A46539",
",  c #AC6C3E",
"<  c #EF5A35",
"1  c #976640",
"2  c #AE6E41",
"3  c #B16F41",
"4  c #AF7042",
"5  c #A67249",
"6  c #B47344",
"7  c #BC7747",
"8  c #BD7847",
"9  c #B77748",
"0  c #B77849",
"q  c #BC7A4B",
"w  c #C17D4C",
"e  c #F36742",
"r  c #EB744D",
"t  c #F57E42",
"y  c #F1724D",
"u  c #FC6D51",
"i  c #E67D53",
"p  c #ED7951",
"a  c #FE7F61",
"s  c #51840C",
"d  c #5A9511",
"f  c #638B1E",
"g  c #64931B",
"h  c #689D1D",
"j  c #668420",
"k  c #6C8428",
"l  c #729A26",
"z  c #718535",
"x  c #7D9431",
"c  c #72A125",
"v  c #78A42C",
"b  c #7FA235",
"n  c #8D8E3C",
"m  c #86993F",
"M  c #8D9A3B",
"N  c #80A633",
"B  c #86A53B",
"V  c #8CA23E",
"C  c #848C41",
"Z  c #8A9B46",
"A  c #8B934D",
"S  c #979446",
"D  c #98954A",
"F  c #9B9754",
"G  c #AA8C4D",
"H  c #A5974D",
"J  c #AF9452",
"K  c #AB9954",
"L  c #B89459",
"P  c #B79A58",
"I  c #9FAA56",
"U  c #ADA556",
"Y  c #A6AE5B",
"T  c #AAA460",
"R  c #AFAA6A",
"E  c #BDA065",
"W  c #BDA068",
"Q  c #BFAA74",
"!  c #B9AE79",
"~  c #BBB072",
"^  c #C7814E",
"/  c #C48352",
"(  c #C98655",
")  c #CB8857",
"_  c #CE8B59",
"`  c #D38E5B",
"'  c #C4995E",
"]  c #D7905D",
"[  c #DB925E",
"{  c #F68243",
"}  c #F88046",
"|  c #F68B46",
" . c #F98349",
".. c #F38D4F",
"X. c #F98B4D",
"o. c #F59447",
"O. c #F49B45",
"+. c #F6924B",
"@. c #F69849",
"#. c #F89E4C",
"$. c #EF865E",
"%. c #ED895A",
"&. c #F48352",
"*. c #FB8851",
"=. c #F88659",
"-. c #E1945C",
";. c #F49652",
":. c #F99051",
">. c #FB9954",
",. c #FA9058",
"<. c #FB9E5E",
"1. c #F9A64E",
"2. c #F5AC4C",
"3. c #F5A252",
"4. c #FAA353",
"5. c #F9AE56",
"6. c #F7A35B",
"7. c #FBA259",
"8. c #F5AC59",
"9. c #F7B452",
"0. c #F9B156",
"q. c #F9B855",
"w. c #FAB35C",
"e. c #FABB5B",
"r. c #CB9B65",
"t. c #DC9563",
"y. c #DD9866",
"u. c #DE9B6A",
"i. c #EF8D65",
"p. c #FD8063",
"a. c #E49563",
"s. c #EA9365",
"d. c #E29A65",
"f. c #E99B66",
"g. c #ED906A",
"h. c #E19D6C",
"j. c #EA9F6A",
"k. c #F49365",
"l. c #FA9963",
"z. c #F2976A",
"x. c #F59A6A",
"c. c #E19F70",
"v. c #EC9C72",
"b. c #F99071",
"n. c #F79F75",
"m. c #F79F7D",
"M. c #FB9C7E",
"N. c #C4A165",
"B. c #CBA36F",
"V. c #D0A16D",
"C. c #C8A672",
"Z. c #C0AD72",
"A. c #D2A772",
"S. c #DCA372",
"D. c #C2B277",
"F. c #C7B57F",
"G. c #E3A06F",
"H. c #EEA36D",
"J. c #F8A062",
"K. c #FBA36E",
"L. c #FAA968",
"P. c #E3A273",
"I. c #E9A375",
"U. c #E6A779",
"Y. c #EAA579",
"T. c #E5A97C",
"R. c #EAAA7D",
"E. c #F3A672",
"W. c #F4AA75",
"Q. c #FBA57B",
"!. c #F3AC7C",
"~. c #FAAD7D",
"^. c #FCB176",
"/. c #F7B17E",
"(. c #F9B27E",
"). c #FFB97F",
"_. c #FAC65E",
"`. c #F7CE5D",
"'. c #F9CB5E",
"]. c #F7D75D",
"[. c #F8D25E",
"{. c #F7DE5E",
"}. c #F9C660",
"|. c #F9D461",
" X c #F8DD62",
".X c #FAE666",
"XX c #F8F267",
"oX c #DAB081",
"OX c #D3B987",
"+X c #DEB78B",
"@X c #D8BA8A",
"#X c #DEBB90",
"$X c #E6AA80",
"%X c #EAAD82",
"&X c #FEA386",
"*X c #F3AB83",
"=X c #F7AA89",
"-X c #E7B287",
";X c #EBB287",
":X c #E6B489",
">X c #EDB48B",
",X c #F2B383",
"<X c #FBB583",
"1X c #FDBA84",
"2X c #F2B38A",
"3X c #FBB489",
"4X c #F6BA8E",
"5X c #FEBC8A",
"6X c #F7AE90",
"7X c #EEBB93",
"8X c #FAB494",
"9X c #F2BB94",
"0X c #F9BE92",
"qX c #F3B799",
"wX c #FCB598",
"eX c #F4BE99",
"rX c #F9BC9C",
"tX c #F7BFA2",
"yX c #FFC38C",
"uX c #E2C39C",
"iX c #EAC39E",
"pX c #FEC593",
"aX c #FFC894",
"sX c #F4C29C",
"dX c #FDC59B",
"fX c #FFCB9C",
"gX c #F5C4A1",
"hX c #F9C5A4",
"jX c #F7CAA7",
"kX c #FECCA4",
"lX c #F3CCAA",
"zX c #FBCCAB",
"xX c #F7D0AD",
"cX c #FFD1AB",
"vX c #FCCFB1",
"bX c #F6D2B3",
"nX c #FBD3B5",
"mX c #FDD6BA",
"MX c #FED9BE",
"NX c #FFDCC2",
"BX c #FFE0C8",
"VX c None",
/* pixels */
"VXVXVXVXVXVXVXVXVXVXVXVXVXVXVXVXVXVXVXVXVXVXVXVXVXVXVXVXVXVXVXVX",
"VXVXVXVXVXVXVXVXVXVXVXVXVXVXVXVXVXVXVXVXVXVXVXVXVXVXVXVXVXVXVXVX",
"VXVXVXVXVXVXVXVXVXVXVXVXVXVXVXVXVXVX- - = = - = - = = = = - VXVX",
"VX^.aXfXfXfXfXfXfXpXfXpXpXpX1X1 5 yXfXfXkXfXfXfXfXfXfXfXfXaX^.VX",
"= yXMXBXNXNXNXNXNXNXNXMXmXNXfX` [ kXBXBXBXNXBXMXNXNXNXNXMXMXyX= ",
"* pXBXNXMXMXMXMXmXmXmXmXnXmXkX/ ] cXNXMXMXMXmXMXmXmXmXnXnXnXyX% ",
"% yXMXMXmXmXmXmXnXnXnXnXnXnXdX/ _ cXMXmXmXbXmXnXnXnXlXnXnXnXyX% ",
"* yXMXMXnXnXnXnXnXnXvXbXbXmXdX/ _ kXMXNX! A mXnXnXuXz lXzXxX1X$ ",
"& 5X&XwXmXnXnXnXnXbXvXbX8X&X3X/ ) kXmXnXZ j uXnXnXR s F.nXzX1X& ",
"& yXp.p.zX3X1X~.Q.1X(.rXb.u 4X/ ) dXnXnXI N iXcXnX~ c OXzXhX1X& ",
"@ 5XzX3XrXK.q.7.X.e.7.*X=XgX0Xq ) dXxXnXY B iXzXzXD.b @XhXgX<X$ ",
"@ 1XzXgXxXtXl.>.*.7.Q.jXgXqX0X/ ( dXzXlXZ f +XzXzXU s Q kXsX(.$ ",
"@ 5X=X<.6XwXL.7.>.e.W.qXx.l.2Xq / 0XzXzXQ F hXsXgX+Xn iXsXeX/.$ ",
"@ 5X<Xq.,.l..Xe.*..X_.=.7.w.*Xq / 0XhXsXsXsXsXsXsXsX9X9X9X7X~.@ ",
"@ <X~.0.5.5._.e.|.w.'.3.0.6.*X8 / 0XgXsXsXsXeX9X7X9X9X9X7X9XW.$ ",
"@ <Xn.}  .X.X. XXXq.X. .{ &.R.8 w 4XsX9XsXrX7X7X7X7XeX>X>X>XW.+ ",
"@ (.E.q.1.0.[.0.e.0.].#.9.8.Y.9 q 4X9X9XoXC.9X>X7X-XN.>X;X;XW.+ ",
"+ ~.E.1.k.z.`.q.o. X8.i.;.3.I.9 w 2X7X0XD k %X>X2XE # A.>X%XI.+ ",
"+ ~.*Xz.;X:X&.{ t | g.-Xj.i.I.9 q ;X>X;Xx g B.2X>XS d K ,XR.H.@ ",
"+ W.>X:X>Xv.+.@.t 2.%.T.T.$XI.6 q *X>X2XU V T.%X%Xr.b A.T.U.H.O ",
"+ I.;XR.Y...2.o.t 2.O.%.P.T.P.6 q R.;XR.M l B.R.T.H h P Y.P.j.+ ",
"+ H.%.y I.c.f.g.s.a.a.h.r r d.3 8 Y.%XR.n j S.U.Y.J # r.I.c.f.o ",
"+ H.e p U.P.U.P.S.c.S.P.i < -.6 9 U.U.U.r.L I.P.P.u.G u.u.u.d.O ",
"o f.P.I.S.c.c.c.h.u.u.u.y.t.a., 6 H.P.G.P.I.u.u.u.u.h.u.y.t.a.O ",
"o G.G.G.S.h.u.y.y.y.y.t.t.t.t., 6 G.G.G.h.u.u.u.y.y.y.t.t.t.[ o ",
"o f.h.h.y.y.y.y.t.[ [ [ ] ] [ , 9 h.u.u.y.y.y.t.t.t.[ [ ` ] -.O ",
"o f.d.t.d.-.t.t.[ [ [ [ ] ] [ > , f.d.d.d.t.a.[ [ [ [ [ [ [ -.X ",
"VX: ^ ^ w w w w w 8 w q 8 8 6 .   , 6 6 6 6 6 6 4 , 6 , , , ; VX",
"VXVXVXVXVXVXVXVXVXVXVXVXVXVXVXVXVXVXVXVXVXVXVXVXVXVXVXVXVXVXVXVX",
"VXVXVXVXVXVXVXVXVXVXVXVXVXVXVXVXVXVXVXVXVXVXVXVXVXVXVXVXVXVXVXVX",
"VXVXVXVXVXVXVXVXVXVXVXVXVXVXVXVXVXVXVXVXVXVXVXVXVXVXVXVXVXVXVXVX",
"VXVXVXVXVXVXVXVXVXVXVXVXVXVXVXVXVXVXVXVXVXVXVXVXVXVXVXVXVXVXVXVX"
};
