/* XPM */
static char *kspaceduel___[] = {
/* columns rows colors chars-per-pixel */
"16 16 66 1",
"  c #535353",
". c #5D5B57",
"X c #5C5A5C",
"o c #6B6B5D",
"O c #736C55",
"+ c #776E58",
"@ c #616161",
"# c #686363",
"$ c #6B6969",
"% c #6D6969",
"& c #727366",
"* c #777575",
"= c #886B2E",
"- c #DC6800",
"; c #827D7D",
": c #807F7F",
"> c #FFAC00",
", c #FFAD00",
"< c #FAD326",
"1 c #FBDC29",
"2 c #526BBA",
"3 c #5970BA",
"4 c #407CDB",
"5 c #457DD9",
"6 c #3E97DE",
"7 c #3B99DE",
"8 c #4DBBEC",
"9 c #53B8E9",
"0 c #78D3F7",
"q c #72D4F9",
"w c #858383",
"e c #8A8A8C",
"r c #918F94",
"t c #949391",
"y c #B1ACAA",
"u c #B1B0B3",
"i c #B3B2B2",
"p c #B4B3B4",
"a c #B4B5B6",
"s c #B8B5B5",
"d c #B7B8B7",
"f c #C0BFBF",
"g c #D0D0AB",
"h c #D8D5AD",
"j c #C8CDD5",
"k c #CDCFD4",
"l c #C5D0D7",
"z c #CAD1D8",
"x c #D0DCDE",
"c c #D4DCDD",
"v c #DDDDDD",
"b c #E0E0DD",
"n c #E9E8D8",
"m c #E0E0E0",
"M c #E6E5E0",
"N c #E7E5E3",
"B c #E9E7E7",
"V c #EEEBEA",
"C c #EFEDED",
"Z c #F5F3E4",
"A c #F6F5F3",
"S c #F7F6F5",
"D c #F3F8F8",
"F c #FAFAFA",
"G c #FAFAFC",
"H c None",
/* pixels */
"HHHHHHHHHHHHHHHH",
"HHHHHHH-HHHHHHHH",
"HHHHHHH>>HHHHHHH",
"HHHHHHH<1HHHHHHH",
"HHHHHHHhg=HHHHHH",
"HHHHHHoda&HHHHHH",
"HHHOevM32bmt+HHH",
"HHHnFSk54jAGZ.HH",
"HHHpwBz67lVtuXHH",
"HHH@H%c98x;H HHH",
"HHHHHHy0qsHHHHHH",
"HHHHHH#DD*HHHHHH",
"HHHHHHHBCHHHHHHH",
"HHHHHHHufHHHHHHH",
"HHHHHHH$:HHHHHHH",
"HHHHHHHHHHHHHHHH"
};
