/* XPM */
static char *kspaceduel[] = {
/* columns rows colors chars-per-pixel */
"32 32 222 2",
"   c #000000",
".  c #1F1D1D",
"X  c #232323",
"o  c #292E34",
"O  c #313131",
"+  c #323030",
"@  c #333131",
"#  c #373737",
"$  c #3D3B3B",
"%  c #403F3F",
"&  c #3E4349",
"*  c #484747",
"=  c #4C4A4A",
"-  c #515158",
";  c #5A5858",
":  c #5B5A5A",
">  c #5D5D5D",
",  c #636161",
"<  c #646262",
"1  c #6E6D6D",
"2  c #6B6971",
"3  c #717070",
"4  c #797979",
"5  c #7D7B7B",
"6  c #7F7E7E",
"7  c #E0580E",
"8  c #EC5E0D",
"9  c #F1661F",
"0  c #FD691A",
"q  c #CD643D",
"w  c #8B6177",
"e  c #9A6B74",
"r  c #A66C77",
"t  c #B87A70",
"y  c #CA6545",
"u  c #FF8E3A",
"i  c #FF8C3C",
"p  c #888A70",
"a  c #93947E",
"s  c #AA9D7C",
"d  c #EAA357",
"f  c #ECA55B",
"g  c #D6896E",
"h  c #E8C663",
"j  c #FFD764",
"k  c #FFDD61",
"l  c #F0D671",
"z  c #F9D770",
"x  c #FFE474",
"c  c #1C3C99",
"v  c #1A3A9D",
"b  c #3758AB",
"n  c #5C6C82",
"m  c #637186",
"M  c #70768E",
"N  c #7B7E8D",
"B  c #4A66A7",
"V  c #033DDF",
"C  c #094BC8",
"Z  c #215CC5",
"A  c #0D6EDA",
"S  c #0B44E6",
"D  c #0063E1",
"F  c #2377FF",
"G  c #3CBEC7",
"H  c #0B95E2",
"J  c #0095E8",
"K  c #3A88FF",
"L  c #1CBBE6",
"P  c #44BECC",
"I  c #53BCC8",
"U  c #4CBBFF",
"Y  c #33CAD6",
"T  c #3BD8D8",
"R  c #04C2EA",
"E  c #46D8D8",
"W  c #51D8D8",
"Q  c #56D8D8",
"!  c #78CDD1",
"~  c #64D3D5",
"^  c #6DD8D8",
"/  c #75D8D8",
"(  c #7ED8D8",
")  c #6CCCFF",
"_  c #5AFFFF",
"`  c #62ECFF",
"'  c #72FFFF",
"]  c #888480",
"[  c #888686",
"{  c #8E8D8D",
"}  c #939393",
"|  c #999797",
" . c #999999",
".. c #9A999A",
"X. c #9D9C9C",
"o. c #9E9D9D",
"O. c #A09E9E",
"+. c #A69D9E",
"@. c #AE9E9E",
"#. c #A8A186",
"$. c #ABA699",
"%. c #ACB092",
"&. c #9A9AA1",
"*. c #9B9BA2",
"=. c #8F9CBD",
"-. c #A2A1A1",
";. c #A5A3A3",
":. c #A2A3A6",
">. c #A7A6A6",
",. c #A8A7A8",
"<. c #AAA9A9",
"1. c #A9A8AA",
"2. c #ACABAB",
"3. c #AEADAD",
"4. c #AFAFAF",
"5. c #B6A9A9",
"6. c #BFAEAE",
"7. c #B1B1A4",
"8. c #B7B0A6",
"9. c #BBB7A7",
"0. c #B4B2AD",
"q. c #B8B7A8",
"w. c #BBB6AE",
"e. c #B1B0B0",
"r. c #B2B1B1",
"t. c #B3B2B2",
"y. c #B6B3B5",
"u. c #B6B5B5",
"i. c #BBB3B3",
"p. c #B8B5B5",
"a. c #B8B7B7",
"s. c #B2BFBF",
"d. c #BFBBB9",
"f. c #BCBBBB",
"g. c #BDBCBC",
"h. c #D1B787",
"j. c #C1BDA2",
"k. c #C1BAAF",
"l. c #C6BEB0",
"z. c #C0BFBF",
"x. c #BFC1A2",
"c. c #CCCC97",
"v. c #D3CD96",
"b. c #FFD582",
"n. c #FFE787",
"m. c #FFEB8B",
"M. c #FFE993",
"N. c #C6C0B6",
"B. c #C3C2BC",
"V. c #C8C1BE",
"C. c #C8CABF",
"Z. c #F0EFBF",
"A. c #FAF3BB",
"S. c #9EA9C2",
"D. c #B3B5C7",
"F. c #B9BBC9",
"G. c #C1BDC0",
"H. c #80D8D8",
"J. c #AFC8C8",
"K. c #B9C0C0",
"L. c #BDC2C2",
"P. c #B9C0D2",
"I. c #82FAFF",
"U. c #C1C0C0",
"Y. c #C2C1C0",
"T. c #C3C2C1",
"R. c #C3C1C2",
"E. c #C3C2C2",
"W. c #C5C2C0",
"Q. c #C4C3C3",
"!. c #C6C2C2",
"~. c #C6C4C2",
"^. c #C5C5C5",
"/. c #C6C6C6",
"(. c #CBC2C2",
"). c #C3CDCD",
"_. c #CBCACA",
"`. c #CFCFCF",
"'. c #D1CFCF",
"]. c #D3D5CF",
"[. c #CDCDD0",
"{. c #C2C6D8",
"}. c #D1D1D1",
"|. c #D2D2D0",
" X c #D3D2D0",
".X c #D2D2D2",
"XX c #D3D3D3",
"oX c #D4D6D2",
"OX c #D3D3D6",
"+X c #D4D4D4",
"@X c #D5D5D5",
"#X c #D4D4D6",
"$X c #D6D6D6",
"%X c #D7D7D7",
"&X c #D8D3D3",
"*X c #D6D6DA",
"=X c #D6D8D8",
"-X c #D8D8D8",
";X c #D8D8DA",
":X c #DBDBDB",
">X c #D9D9DC",
",X c #DDDDDE",
"<X c #DEDEDE",
"1X c #E5E6D2",
"2X c #E9ECD0",
"3X c #E1E1E1",
"4X c #E1E1E2",
"5X c #E2E2E2",
"6X c #E1E1E4",
"7X c #E4E4E4",
"8X c #E6E6E6",
"9X c #E6E6E8",
"0X c #E9E9E9",
"qX c #F0F0EF",
"wX c #F0F0F0",
"eX c #F6F6F6",
"rX c #F7F7F7",
"tX c #F8F8F8",
"yX c #FAFAFA",
"uX c #FBFBFB",
"iX c #FFFFFF",
"pX c None",
/* pixels */
"pXpXpXpXpXpXpXpXpXpXpXpXpXpXpXpXpXpXpXpXpXpXpXpXpXpXpXpXpXpXpXpX",
"pXpXpXpXpXpXpXpXpXpXpXpXpXpXpX8 7 pXpXpXpXpXpXpXpXpXpXpXpXpXpXpX",
"pXpXpXpXpXpXpXpXpXpXpXpXpXpXpX0 9 pXpXpXpXpXpXpXpXpXpXpXpXpXpXpX",
"pXpXpXpXpXpXpXpXpXpXpXpXpXpXq u i y pXpXpXpXpXpXpXpXpXpXpXpXpXpX",
"pXpXpXpXpXpXpXpXpXpXpXpXpXpXd k j f w pXpXpXpXpXpXpXpXpXpXpXpXpX",
"pXpXpXpXpXpXpXpXpXpXpXpXpXe z m.M.x t pXpXpXpXpXpXpXpXpXpXpXpXpX",
"pXpXpXpXpXpXpXpXpXpXpXpXpXr b.C.L.n.g pXpXpXpXpXpXpXpXpXpXpXpXpX",
"pXpXpXpXpXpXpXpXpXpXpXpXpXs A.S.=.Z.h.pXpXpXpXpXpXpXpXpXpXpXpXpX",
"pXpXpXpXpXpXpXpXpXpXpXpXpX%.2X{.P.1Xx.pXpXpXpXpXpXpXpXpXpXpXpXpX",
"pXpXpXpXpXpXpXpXpXpXpXpXpXp ].F.D.oXa pXpXpXpXpXpXpXpXpXpXpXpXpX",
"pXpXpXpXpXpXpXpXpXpXpXpXo 7.:.m n &.q.& pXpXpXpXpXpXpXpXpXpXpXpX",
"pXpXpXpXpXpXpXpXpXpX} >XiXB.N c v M 0.iX4X| pXpXpXpXpXpXpXpXpXpX",
"pXpXpXpXpX- l #.*XtXrXeXrXw.B V S b 8.qXtXeXuX6X$.h ] pXpXpXpXpX",
"pXpXpXpXpX2 c.j.[.:X:X:XoXk.Z F K C k. X:X:X>X$X9.v.&.pXpXpXpXpX",
"pXpXpXpXpX1 4X,.e.:X,X:XB.N.A U ) D z.B.#X,X:XU...,X>.pXpXpXpXpX",
"pXpXpXpXpX3 wX1.e.8X$X*X!.V.H ` I.J G.B.XX7XeX`.-.9X2.pXpXpXpXpX",
"pXpXpXpXpX> 4XX   ; $X$X!.V.L _ ' R G.(.oX0X5     $X[ pXpXpXpXpX",
"pXpXpXpXpX+ $XpXpXpX. t.p.q.I ! / P y.p.u.* pXpXpX^.< pXpXpXpXpX",
"pXpXpXpXpXpX!.pXpXpXpX4 ].@.Y H.H.Y +._. .pXpXpXpX;.$ pXpXpXpXpX",
"pXpXpXpXpXpXpXpXpXpXpX+ ,.5.! W Q ~ k.1.* pXpXpXpXpXpXpXpXpXpXpX",
"pXpXpXpXpXpXpXpXpXpXpXpX# :X).E T J.=X= pXpXpXpXpXpXpXpXpXpXpXpX",
"pXpXpXpXpXpXpXpXpXpXpXpXpXB.$XF.s.&XoX# pXpXpXpXpXpXpXpXpXpXpXpX",
"pXpXpXpXpXpXpXpXpXpXpXpXpXo.-X-X*X-Xt.pXpXpXpXpXpXpXpXpXpXpXpXpX",
"pXpXpXpXpXpXpXpXpXpXpXpXpX; ].-X%X'.w pXpXpXpXpXpXpXpXpXpXpXpXpX",
"pXpXpXpXpXpXpXpXpXpXpXpXpX+ '.F.g.%X+ pXpXpXpXpXpXpXpXpXpXpXpXpX",
"pXpXpXpXpXpXpXpXpXpXpXpXpXpX4.f.y.U.pXpXpXpXpXpXpXpXpXpXpXpXpXpX",
"pXpXpXpXpXpXpXpXpXpXpXpXpXpX< 4.o.{ pXpXpXpXpXpXpXpXpXpXpXpXpXpX",
"pXpXpXpXpXpXpXpXpXpXpXpXpXpXpXU./.@ pXpXpXpXpXpXpXpXpXpXpXpXpXpX",
"pXpXpXpXpXpXpXpXpXpXpXpXpXpXpXO.oXpXpXpXpXpXpXpXpXpXpXpXpXpXpXpX",
"pXpXpXpXpXpXpXpXpXpXpXpXpXpXpXpXpXpXpXpXpXpXpXpXpXpXpXpXpXpXpXpX",
"pXpXpXpXpXpXpXpXpXpXpXpXpXpXpXpXpXpXpXpXpXpXpXpXpXpXpXpXpXpXpXpX",
"pXpXpXpXpXpXpXpXpXpXpXpXpXpXpXpXpXpXpXpXpXpXpXpXpXpXpXpXpXpXpXpX"
};
