/* XPM */
static char *ksquares[] = {
/* columns rows colors chars-per-pixel */
"32 32 38 1",
"  c black",
". c #010000",
"X c #010100",
"o c #030000",
"O c #040000",
"+ c #050000",
"@ c #060000",
"# c #070700",
"$ c #0D0000",
"% c #0F0000",
"& c #0E0E00",
"* c #100000",
"= c #110000",
"- c #130000",
"; c #101000",
": c #121200",
"> c #141400",
", c #151500",
"< c #240000",
"1 c #290000",
"2 c #5E0000",
"3 c #6C0000",
"4 c #6F0000",
"5 c #535300",
"6 c #E10000",
"7 c #E40000",
"8 c #FD0000",
"9 c red",
"0 c #B8B800",
"q c #BDBD00",
"w c #C2C200",
"e c #C8C800",
"r c #CDCD00",
"t c #CECE00",
"y c #D0D000",
"u c #D3D300",
"i c yellow",
"p c None",
/* pixels */
"ppppppppppppppppppppppp<%*479999",
"ppppppppppppppppppppppp<*-479999",
"       pppppppppppppppp*%*468899",
"                          124444",
"                             +++",
"  #:,&                      ++++",
"ppyrrrqpppppppppppppppp     pppp",
"ppiiiiipppppppppppppppp     pppp",
"ppiiiiipppppppppppppppp     pppp",
"ppiiiiipppppppppppppppp     pppp",
"ppiiiiipppppppppppppppp     pppp",
"ppiiiiipppppppppppppppp     pppp",
"ppiiiiipppppppppppppppp     pppp",
"ppiiiiipppppppppppppppp     pppp",
"ppiiiiippppppppppppppppp    pppp",
"ppiiiiippppppppppppppppp    pppp",
"ppiiiiippppppppppppppppp    pppp",
"ppiiiiippppppppppppppppp    pppp",
"ppiiiiippppppppppppppppp    pppp",
"ppiiiiippppppppppppppppp    pppp",
"ppiiiiippppppppppppppppp    pppp",
"ppiiiiippppppppppppppppp    pppp",
"ppiiiiippppppppppppppppp    pppp",
"ppiiiiippppppppppppppppp     ppp",
"ppuew05ppppppppppppppppp     ppp",
"p :,:#                       ppp",
"p                            ppp",
"p                            ppp",
"pp                           ppp",
"pp    pppppppppppppppppppppppppp",
"pp    pppppppppppppppppppppppppp",
"pp    pppppppppppppppppppppppppp"
};
