/* XPM */
static char *ksquares[] = {
/* columns rows colors chars-per-pixel */
"32 32 139 2",
"   c #47735A",
".  c #50735F",
"X  c #645B72",
"o  c #666A6B",
"O  c #656270",
"+  c #697170",
"@  c #64707D",
"#  c #6F737A",
"$  c #319A57",
"%  c #339B5A",
"&  c #399E5D",
"*  c #3CA05F",
"=  c #42915D",
"-  c #43A363",
";  c #48A466",
":  c #4BA568",
">  c #4EA86A",
",  c #51A66A",
"<  c #53AA6D",
"1  c #57AC70",
"2  c #5BAD72",
"3  c #5FB175",
"4  c #60AF76",
"5  c #62B176",
"6  c #66B379",
"7  c #6BB57C",
"8  c #5D6F82",
"9  c #567395",
"0  c #637180",
"q  c #6B7784",
"w  c #627488",
"e  c #796192",
"r  c #7F6B96",
"t  c #7E6699",
"y  c #647B99",
"u  c #806C96",
"i  c #80679A",
"p  c #836A9D",
"a  c #8762A2",
"s  c #866DA1",
"d  c #886EA2",
"f  c #8A71A6",
"g  c #8E74A9",
"h  c #9177AC",
"j  c #9379AE",
"k  c #967CB2",
"l  c #997EB5",
"z  c #70B780",
"x  c #74BA83",
"c  c #7BBD86",
"v  c #7FBE89",
"b  c #5F86B6",
"n  c #5F87BA",
"m  c #6283AA",
"M  c #6F8EB3",
"N  c #6087BA",
"B  c #648BBD",
"V  c #688FBF",
"C  c #718FB5",
"Z  c #6990BF",
"A  c #7291B6",
"S  c #7794B8",
"D  c #7A99BE",
"F  c #698FC0",
"G  c #6D92C2",
"H  c #7196C5",
"J  c #7498C6",
"K  c #7E9DC2",
"L  c #769AC8",
"P  c #7A9DCA",
"I  c #7EA0CD",
"U  c #89B097",
"Y  c #89B198",
"T  c #9486A5",
"R  c #9C99A3",
"E  c #9F97AB",
"W  c #9A80B7",
"Q  c #9E83BA",
"!  c #A097AB",
"~  c #A286BE",
"^  c #A799B6",
"/  c #A89AB6",
"(  c #9EA0A0",
")  c #9CB1A5",
"_  c #8EA2BA",
"`  c #9BA8B7",
"'  c #90A5BF",
"]  c #96A8BC",
"[  c #A2A2A6",
"{  c #A3B8AB",
"}  c #ABA5B2",
"|  c #A1A9B0",
" . c #A1ADBB",
".. c #ACB8B1",
"X. c #B6BABD",
"o. c #84C18C",
"O. c #89C38F",
"+. c #8CC492",
"@. c #91C794",
"#. c #94C996",
"$. c #97CA99",
"%. c #9DCC9C",
"&. c #9CC3AB",
"*. c #A2CFA0",
"=. c #A5D0A2",
"-. c #ACD3A6",
";. c #A58AC2",
":. c #A98DC6",
">. c #AD91CA",
",. c #B295CF",
"<. c #B296D0",
"1. c #B79AD4",
"2. c #82A0C4",
"3. c #81A3CE",
"4. c #89A6CF",
"5. c #93A8C1",
"6. c #84A5D1",
"7. c #87A9D2",
"8. c #8BACD5",
"9. c #90AFD5",
"0. c #90AFD8",
"q. c #97B2D6",
"w. c #94B3DA",
"e. c #99B7DD",
"r. c #9BB9DF",
"t. c #A1B6D1",
"y. c #A2B8D2",
"u. c #A3BEDD",
"i. c #9EBBE0",
"p. c #A1BDE2",
"a. c #BFC2C4",
"s. c #ADC2DD",
"d. c #B4C2D5",
"f. c #B2C5DE",
"g. c #B4C8E3",
"h. c #DDDEDC",
"j. c #E2E3E1",
"k. c #EDEDEB",
"l. c None",
/* pixels */
"l.l.l.l.l.l.l.l.l.l.l.l.l.l.l.l.l.l.l.l.l.l.l.l.l.l.l.l.l.l.l.l.",
"l. .2.K K D D A M M M A A M M M M S l.l.l.l.l.l.l.l.l.l.l.l.l.l.",
"l.5.u.w.w.8.8.7.I J J G G G F B B n ] l.l.l.l.l.l.l.l.l.l.l.l.l.",
"l._ g.I L L H G F n n n B B B F m 0 # l.l.l.l.l.l.l.l.l.l.l.l.l.",
"l._ s.G J H G G F B n F F G G G 0 k.k.+ ) ) ) ) ) ) ) ) ) ) l.l.",
"l._ s.B B G G F B F F F G H H H w h.j.  $ $ $ $ $ $ $ $ $ $ $ ) ",
"l.5.u.B n n B B F F G H J P P P J ` { , c x 7 5 & $ * % ; - $ Y ",
"l._ 7.G B n n B F G H H P P I I I t.&.- c x 7 5 2 - - > > 3 % Y ",
"l.5.6.G V N N V Z H L P I I 6.6.3.t.&.$ & 6 6 5 2 1 > 1 3 5 $ Y ",
"l._ q.G B B V V H L P 3.6.6.7.7.7.t.&.* $ & < 2 2 2 2 5 6 z & Y ",
"l._ 8.V B B V H H P P 4.7.8.0.0.9.t.&.< 2 - ; 1 2 2 5 7 x x & Y ",
"l._ 4.B N B Z H P I 3.7.8.0.0.q.w.t.&.< 6 5 < 2 3 6 7 x c o.& U ",
"l._ J B N V Z J P I 6.8.w.w.e.e.q.y.&.< 6 6 6 6 6 x c c o.+.* Y ",
"l._ Z N B V H L P 3.7.8.w.e.i.i.i.q.&.< 7 6 6 7 x c o.+.@.$.& U ",
"l._ G N B Z H L P 6.7.9.w.e.p.p.r.y.&.< 7 7 z c c O.+.#.$.=.* Y ",
"l._ V N B G H L I 6.8.9.w.i.i.i.e.t.&.< 7 x c c +.@.$.%.=.-.* U ",
"l._ N N @ @ y L J I 3.6.7.8.9.8.D | ..= 6 7 x c c Y o.@.#.o.% Y ",
"l. .N 9 X.j.h.y.d.d.d.d.d.d.d.d.X.k.k.. $ $ $ $ $ $ % % % $ % ) ",
"l.l.l.l.R k.[ ^ / / / / / / / / R j.j.o l.l.l.l.l.l.l.l.l.l.l.l.",
"l.l.l.l.l.O r ;.Q W j t t t a p t X # l.l.l.l.l.l.l.l.l.l.l.l.l.",
"l.l.l.l.l.u s :.;.Q k j p p f g h e E l.l.l.l.l.l.l.l.l.l.l.l.l.",
"l.l.l.l.l.u e t l l k k h g h j j e E l.l.l.l.l.l.l.l.l.l.l.l.l.",
"l.l.l.l.l.u t e t g k j h h j W l e ! l.l.l.l.l.l.l.l.l.l.l.l.l.",
"l.l.l.l.l.u f k p s g j j j W Q Q e E l.l.l.l.l.l.l.l.l.l.l.l.l.",
"l.l.l.l.l.u f W j g g j k W Q ~ ;.e E l.l.l.l.l.l.l.l.l.l.l.l.l.",
"l.l.l.l.l.u f l l j j k Q Q ~ ;.:.e E l.l.l.l.l.l.l.l.l.l.l.l.l.",
"l.l.l.l.l.u d k j k l Q Q ;.:.>.>.e E l.l.l.l.l.l.l.l.l.l.l.l.l.",
"l.l.l.l.l.r s l l l Q ~ ;.:.>.,.>.e E l.l.l.l.l.l.l.l.l.l.l.l.l.",
"l.l.l.l.l.u s W W Q ~ ;.>.>.<.1.1.e E l.l.l.l.l.l.l.l.l.l.l.l.l.",
"l.l.l.l.l.u e g h j k l W Q Q ~ k e ! l.l.l.l.l.l.l.l.l.l.l.l.l.",
"l.l.l.l.l.T e e e e e e e e e e e e } l.l.l.l.l.l.l.l.l.l.l.l.l.",
"l.l.l.l.l.l.l.l.l.l.l.l.l.l.l.l.l.l.l.l.l.l.l.l.l.l.l.l.l.l.l.l."
};
