/* XPM */
static char *ksquares-16[] = {
/* columns rows colors chars-per-pixel */
"16 16 25 1",
"  c black",
". c #040000",
"X c #050500",
"o c #090000",
"O c #0E0000",
"+ c #1F0000",
"@ c #101000",
"# c #1B1B00",
"$ c #1C1C00",
"% c #310000",
"& c #340000",
"* c #360000",
"= c #212100",
"- c #515100",
"; c #DC0000",
": c #F20000",
"> c #F30000",
", c #B3B300",
"< c #C6C600",
"1 c #CCCC00",
"2 c #D0D000",
"3 c #EFEF00",
"4 c #F3F300",
"5 c yellow",
"6 c None",
/* pixels */
"          .O*;::",
"            o%*+",
"=$X             ",
"3442           6",
"55556666       6",
"55556666       6",
"55556666       6",
"55556666       6",
"55556666       6",
"55556666       6",
"55556666       6",
"1<,-            ",
"#@              ",
"                ",
"                ",
"   6666666666666"
};
