/* XPM */
static char *ksquares___[] = {
/* columns rows colors chars-per-pixel */
"16 16 152 2",
"   c #439060",
".  c #459162",
"X  c #469263",
"o  c #489063",
"O  c #489363",
"+  c #4A9264",
"@  c #499464",
"#  c #619675",
"$  c #41A262",
"%  c #43A363",
"&  c #45A363",
"*  c #4FA86A",
"=  c #50A96C",
"-  c #53AB6D",
";  c #56AC6F",
":  c #58AC70",
">  c #59AD71",
",  c #59AE71",
"<  c #5CAE73",
"1  c #5EAF74",
"2  c #5EAF75",
"3  c #62B177",
"4  c #65B379",
"5  c #67B37A",
"6  c #6CB67D",
"7  c #6CB67E",
"8  c #796B8A",
"9  c #796C8B",
"0  c #7B6E8C",
"q  c #7F758F",
"w  c #80758F",
"e  c #866DA1",
"r  c #876DA1",
"t  c #886FA4",
"y  c #8A71A6",
"u  c #8B71A6",
"i  c #8F7CA4",
"p  c #8E74AA",
"a  c #8F76AB",
"s  c #9076AB",
"d  c #9176AC",
"f  c #9277AD",
"g  c #937FAA",
"h  c #9078AC",
"j  c #9278AE",
"k  c #9379AE",
"l  c #9379AF",
"z  c #957AB0",
"x  c #957BB1",
"c  c #967BB2",
"v  c #977EB3",
"b  c #987EB4",
"n  c #69AE83",
"m  c #71AF86",
"M  c #72B287",
"N  c #72B981",
"B  c #78BC85",
"V  c #7ABC86",
"C  c #7BBD86",
"Z  c #72B388",
"A  c #72B389",
"S  c #5F85B4",
"D  c #6183AD",
"F  c #7289A3",
"G  c #7289A4",
"H  c #758BA5",
"J  c #768FA9",
"K  c #6087BA",
"L  c #6289BB",
"P  c #638ABC",
"I  c #648ABC",
"U  c #648BBC",
"Y  c #658BBC",
"T  c #658BBD",
"R  c #658CBC",
"E  c #678CBD",
"W  c #688FBF",
"Q  c #6A90BF",
"!  c #6B90BF",
"~  c #7B93B0",
"^  c #7E95B2",
"/  c #698FC0",
"(  c #6B90C1",
")  c #6C92C1",
"_  c #6C92C2",
"`  c #6D92C2",
"'  c #6D93C2",
"]  c #7095C4",
"[  c #7497C7",
"{  c #7498C6",
"}  c #769AC8",
"|  c #789BC9",
" . c #799CC9",
".. c #7A9CC8",
"X. c #7B9EC8",
"o. c #7E9FCB",
"O. c #7D9FCC",
"+. c #7EA1CD",
"@. c #92889E",
"#. c #86929D",
"$. c #929198",
"%. c #98979C",
"&. c #80BF8A",
"*. c #89AA97",
"=. c #93A19A",
"-. c #9580AB",
";. c #9987AC",
":. c #8E9BA8",
">. c #9B80B7",
",. c #9C87B4",
"<. c #9D82B9",
"1. c #9E83BB",
"2. c #8D9DB0",
"3. c #8E9EB0",
"4. c #8F9FB3",
"5. c #A387BF",
"6. c #8FA0B3",
"7. c #90A0B5",
"8. c #91A0B7",
"9. c #87C28E",
"0. c #8FC693",
"q. c #95C998",
"w. c #A3D0A0",
"e. c #A589C1",
"r. c #AB8FC8",
"t. c #AD90CA",
"y. c #88A4C6",
"u. c #81A3CD",
"i. c #8EAACF",
"p. c #95A8C0",
"a. c #95ACCC",
"s. c #98AFCF",
"d. c #83A4D0",
"f. c #85A6D1",
"g. c #87A9D2",
"h. c #89A9D3",
"j. c #8EABD1",
"k. c #8DACD3",
"l. c #8EAED6",
"z. c #92AED2",
"x. c #90AFD8",
"c. c #96B1D4",
"v. c #9BB1D1",
"b. c #9CB3D2",
"n. c #98B2D5",
"m. c #96B3D8",
"M. c #95B3DB",
"N. c #98B7DD",
"B. c #ADB8C4",
"V. c #A3BDDE",
"C. c #A1BEE3",
"Z. c None",
/* pixels */
"Z.^ ~ J F G G G H Z.Z.Z.Z.Z.Z.Z.",
"6.V.m.k. .( Q R D #.Z.Z.Z.Z.Z.Z.",
"3.j.` ( T P ( ( :.=.o o o o o # ",
"8.u.K L R ( { } y.M V 5 % & *   ",
"8.o.T P ( } +.d.i.n % < , , 5   ",
"3.X.S / [ +.g.x.z.M : - 2 6 V X ",
"3.R P `  .f.x.N.c.Z 5 5 N &.0.X ",
"3.R T ] +.h.M.C.c.Z 6 V 9.q.w.@ ",
"Z.S :.p.a.s.v.b.B.*.- : , 3 3 + ",
"Z.Z.$.;.,.g i g @.%.Z.Z.Z.Z.Z.Z.",
"Z.Z.q t <.x u a r Z.Z.Z.Z.Z.Z.Z.",
"Z.Z.q r r x s b u Z.Z.Z.Z.Z.Z.Z.",
"Z.Z.w s s x b e.a Z.Z.Z.Z.Z.Z.Z.",
"Z.Z.w s x <.e.t.x Z.Z.Z.Z.Z.Z.Z.",
"Z.Z.w u v 1.e.r.s Z.Z.Z.Z.Z.Z.Z.",
"Z.Z.Z.0 9 8 0 8 0 Z.Z.Z.Z.Z.Z.Z."
};
