/* XPM */
static char *ksudoku___[] = {
/* columns rows colors chars-per-pixel */
"16 16 75 1",
"  c #000000",
". c #0D0D0D",
"X c #343434",
"o c #383838",
"O c #393939",
"+ c #414141",
"@ c #464646",
"# c #4D4D4D",
"$ c #4F4F4F",
"% c #565656",
"& c #595959",
"* c #5A5A5A",
"= c #5C5C5C",
"- c #5D5D5D",
"; c #5F5F5F",
": c #616161",
"> c #646464",
", c #656565",
"< c #6A6A6A",
"1 c #6E6E6E",
"2 c #707070",
"3 c #757575",
"4 c #787878",
"5 c #7A7A7A",
"6 c #7D7D7D",
"7 c #838383",
"8 c #848484",
"9 c #858585",
"0 c #878787",
"q c #8B8B8B",
"w c #8C8C8C",
"e c #8D8D8D",
"r c #8F8F8F",
"t c #909090",
"y c #929292",
"u c #949494",
"i c #989898",
"p c #999999",
"a c #9A9A9A",
"s c #9B9B9B",
"d c #9C9C9C",
"f c #9D9D9D",
"g c #9E9E9E",
"h c #A0A0A0",
"j c #A1A1A1",
"k c #A4A4A4",
"l c #AAAAAA",
"z c #ACACAC",
"x c #B3B3B3",
"c c #B4B4B4",
"v c #B6B6B6",
"b c #BBBBBB",
"n c #BCBCBC",
"m c #BDBDBD",
"M c #BEBEBE",
"N c #BFBFBF",
"B c #C1C1C1",
"V c #C2C4C4",
"C c #C8C8C8",
"Z c #D2D2D2",
"A c #D6D6D6",
"S c #D7D7D7",
"D c #DCDCDC",
"F c #E2E2E2",
"G c #EBEDED",
"H c #F1F1F1",
"J c #F2F2F2",
"K c #F4F4F4",
"L c #F6F6F6",
"P c #F8F8F8",
"I c #FAFAFA",
"U c #FBFBFB",
"Y c #FDFDFD",
"T c #FFFFFF",
"R c None",
/* pixels */
"RR  RRRRRRRRRRRR",
"R XL;5rTIRRRRRRR",
"R.BTg+iIr$RRRRRR",
"RrX,@OiTn$RRRRRR",
"RTTHg3rLF*RRRRRR",
"Rc,:%HyLxSRRRRRR",
"Riikkl1BCnRRRRRR",
"Rquy9q*ikrRRRRRR",
"RTTTTTzFi;RRRRRR",
"RTTTTTcTZ*RRRRRR",
"RRTTTTnDORRRRRRR",
"RR175q6kgRRRRRRR",
"RRRiSHnGRRRRRRRR",
"RRR17RVRRRRRRRRR",
"RRRRRRRRRRRRRRRR",
"RRRRRRRRRRRRRRRR"
};
