/* XPM */
static char *ksudoku[] = {
/* columns rows colors chars-per-pixel */
"32 32 117 2",
"   c #000000",
".  c #0C0C0C",
"X  c #121212",
"o  c #161816",
"O  c #1D1D1D",
"+  c #222222",
"@  c #262926",
"#  c #2C2D2D",
"$  c #2E3232",
"%  c #323232",
"&  c #363938",
"*  c #3B3C3C",
"=  c #39433F",
"-  c #3E4646",
";  c #434343",
":  c #454C4A",
">  c #4C4C4C",
",  c #4B5454",
"<  c #4E5B55",
"1  c #535353",
"2  c #535853",
"3  c #535E58",
"4  c #595B5A",
"5  c #51625B",
"6  c #5C6460",
"7  c #5C6B65",
"8  c #5C6C69",
"9  c #636363",
"0  c #6B6B6B",
"q  c #647A73",
"w  c #6A7F79",
"e  c #767676",
"r  c #737F79",
"t  c #7B7B7B",
"y  c #668A7B",
"u  c #6D867E",
"i  c #5FBE99",
"p  c #7B8B87",
"a  c #719287",
"s  c #74988A",
"d  c #7C948C",
"f  c #60BF97",
"g  c #60BE9A",
"h  c #6DB692",
"j  c #76AB99",
"k  c #7FA697",
"l  c #78AF99",
"z  c #7BBEA5",
"x  c #5EC09A",
"c  c #60C099",
"v  c #6CC5A3",
"b  c #77C3A5",
"n  c #7EC2A9",
"m  c #7ACBAC",
"M  c #848484",
"N  c #8B8B8B",
"B  c #929292",
"V  c #9B9B9B",
"C  c #82AE9D",
"Z  c #94A39D",
"A  c #92ABA3",
"S  c #9EB5AD",
"D  c #9BB9B1",
"F  c #A3A3A3",
"G  c #ABABAB",
"H  c #A1B2B2",
"J  c #B2B2B2",
"K  c #B4BBB9",
"L  c #BABBBB",
"P  c #86D1B5",
"I  c #89D2B6",
"U  c #97CBB6",
"Y  c #9DC2B6",
"T  c #9EC9BA",
"R  c #95D8BE",
"E  c #9ED3BE",
"W  c #98DABF",
"Q  c #A4C0B4",
"!  c #A1C6BA",
"~  c #96D9C0",
"^  c #98D9C1",
"/  c #A4CFC0",
"(  c #ADC3C0",
")  c #A4DEC9",
"_  c #B3CAC5",
"`  c #BAC3C0",
"'  c #B6DAD0",
"]  c #A4E0C9",
"[  c #B1E4D1",
"{  c #BEEBDA",
"}  c #C2C2C2",
"|  c #C4C8C6",
" . c #C3CECC",
".. c #CBCBCB",
"X. c #D3D3D3",
"o. c #D2D8D6",
"O. c #DCDDDC",
"+. c #C3ECDD",
"@. c #C8EDDE",
"#. c #CCEAE1",
"$. c #D3EAE2",
"%. c #D8EAE1",
"&. c #DCEDEC",
"*. c #D7F3E7",
"=. c #DDF3EC",
"-. c #E4E4E4",
";. c #E0EBE0",
":. c #EBEBEB",
">. c #EDF3ED",
",. c #E3F1F1",
"<. c #EAF6F3",
"1. c #EEF8F5",
"2. c #F3F4F4",
"3. c #F7F9F7",
"4. c #F3F9F8",
"5. c #FEFEFE",
"6. c None",
/* pixels */
"6.6.6.6.          6.6.6.6.6.6.6.6.6.6.6.6.6.6.6.6.6.6.6.6.6.6.6.",
"6.6.6.                6.+ O 6.6.6.6.6.6.6.O O 6.6.6.6.6.6.6.6.6.",
"6.6.      ; 5.5.N   % 5.e e 5.5.5.5.5.5.6.+ O 6.6.6.6.6.6.6.6.6.",
"6.6.    4 5.5.5.5.1   | B B 5.5.} N V 5.6.O + 6.6.6.6.6.6.6.6.6.",
"6.6.    L 5.5.5.5.e   M B B 5.-.4 9 o # 6.O O 6.6.6.6.6.6.6.6.5.",
"6.6.o   M 5.5.5.5.;   9 N B 5.5.5.5.N O 6.+ O 6.6.6.6.6.6.6.5.&.",
"6.6.} . . F 2.-.e     1 B B 5.5.O.1 + N 5.X X 6.6.6.6.6.6.5.&.%.",
"6.6.5.X.&       # t   0 N B 5.5.3.} ; % 5.  . 6.6.6.6.6.5.&.%.%.",
"6.6.5.5.5.:.X.O.5.M   F N N 5.5.5.5.-.X 5.    6.6.6.6.5.&.%.%.#.",
"6.6.5.5.5.5.5.5.:.o o 2.t N 5.} e M % ; 5.    6.6.6.5.&.%.$.#.#.",
"6.6.5.B L -.o.G O . L 5.M N 5.3.L B J 5.5.    6.6.5.&.%.%.#.#.@.",
"6.6.5.1         ; ..5.5.N B 5.5.5.5.5.5.5.    6.5.&.%.%.#.#.@.+.",
"6.6.5.5.2.....2.5.5.5.5.N V 5.5.5.5.5.5.5.    5.&.%.%.#.#.@.{ [ ",
"6.O ; 1 1 1 1 1 > > 4 9 ; > M N B B N 0 %     # 2 r Z ( @.{ [ ) ",
"6.O # % % # # + X . o + o + ; > 4 4 > * X   . # : 7 p S { [ ^ ~ ",
"6.6.5.5.5.5.5.5.5.5.5.5.V G 3.3.X.G X.-.t X @ H ( _ ' { [ ) R I ",
"6.6.5.5.5.5.5.5.5.5.5.5.F G 5.B 4 9 X 9 :.+ * #.#.#.{ [ ^ ~ I m ",
"6.6.5.5.5.5.5.5.5.5.5.5.G J 5.5.5.5.9 @ &.$ , #.#.{ [ ] ^ I m v ",
"6.6.5.5.5.5.5.5.5.5.5.5.G J 5.5.5.:.O 0 $.- 7 #.{ [ ] ~ m m v x ",
"6.6.5.5.5.5.5.5.5.5.5.5.J L 5.5.-.# 0 ,.$.< y { [ ^ ~ I m v x x ",
"6.6.5.5.5.5.5.5.5.5.5.5.J } 3.-.# B <.#.#.8 d [ ) ~ P m v x x i ",
"6.6.5.5.5.5.5.5.5.5.5.5.L | 5.t & & $ - +.u k ) ~ P m v x x i i ",
"6.6.5.:.:.2.2.3.3.3.5.5.} | 5.5.3.1.%.#.{ s C ~ P m v i x i i i ",
"6.6.B O O + O X   X O # # * , 4 6 4 5 q a y l P m v i i i i i i ",
"6.6.5.:.:.:.:.:.-.-.-.-.G J O.o. .Q ! T U l z m v i i i i i i i ",
"6.6.6.5.5.e @ O > 5.5.5.L | 1.<.*.+.[ ) W n b v i i i i i i i i ",
"6.6.6.5.5...:.1 % 5.5.3.K | 2.*.{ [ ] W I m v i i i i i i i i i ",
"6.6.6.6.5.5.5.; @ 3.5.3.K Q =.#.[ ) W I m v i i i i i i i i i i ",
"6.6.6.6.6.6.5.. X 1.>.,.Z S +.{ ) ^ I m v i i i i i i i i i i i ",
"6.6.6.6.6.6.6.. X %.$.#.A Y [ ] ^ I m v i i i i i i i i i i i h ",
"6.6.6.6.6.  . X o % 6 @.Y T ) ^ I P v c i i i i i i i i i i i 6.",
"6.6.6.6.6.* # * : 5 d @.! E ^ I m v c c i i i i i i i i i h 6.6."
};
