/* XPM */
static char *ksudoku[] = {
/* columns rows colors chars-per-pixel */
"32 32 166 2",
"   c #000000",
".  c #010101",
"X  c #050505",
"o  c #060606",
"O  c #080808",
"+  c #0C0C0C",
"@  c #0E0E0E",
"#  c #0F0F0F",
"$  c #101010",
"%  c #101212",
"&  c #111313",
"*  c #121212",
"=  c #131313",
"-  c #141414",
";  c #151515",
":  c #161616",
">  c #161816",
",  c #181818",
"<  c #191919",
"1  c #1B1B1B",
"2  c #1E1E1E",
"3  c #1F1F1F",
"4  c #202020",
"5  c #212121",
"6  c #222222",
"7  c #232323",
"8  c #262626",
"9  c #272727",
"0  c #2B2B2B",
"q  c #2D2D2D",
"w  c #2E2E2E",
"e  c #2F2F2F",
"r  c #2E3231",
"t  c #2F3333",
"y  c #303030",
"u  c #323232",
"i  c #343434",
"p  c #353535",
"a  c #363938",
"s  c #393939",
"d  c #3C3C3C",
"f  c #39433F",
"g  c #404040",
"h  c #414141",
"j  c #424242",
"k  c #434343",
"l  c #444444",
"z  c #454545",
"x  c #464646",
"c  c #4A4A4A",
"v  c #4C4C4C",
"b  c #4D4D4D",
"n  c #4E4E4E",
"m  c #4F4F4F",
"M  c #505050",
"N  c #525252",
"B  c #535353",
"V  c #545555",
"C  c #565656",
"Z  c #575757",
"A  c #585858",
"S  c #595959",
"D  c #5A5A5A",
"F  c #585F5D",
"G  c #5C5C5C",
"H  c #5C5F5D",
"J  c #5E6261",
"K  c #616161",
"L  c #626262",
"P  c #656565",
"I  c #676767",
"U  c #696969",
"Y  c #6D6D6D",
"T  c #757575",
"R  c #777777",
"E  c #787878",
"W  c #797979",
"Q  c #7A7A7A",
"!  c #7C7C7C",
"~  c #7D7D7D",
"^  c #808080",
"/  c #828282",
"(  c #838383",
")  c #858585",
"_  c #868686",
"`  c #878787",
"'  c #898989",
"]  c #8A8A8A",
"[  c #8B8B8B",
"{  c #8C8C8C",
"}  c #8D8D8D",
"|  c #8E8E8E",
" . c #8F8F8F",
".. c #909090",
"X. c #919191",
"o. c #929292",
"O. c #939393",
"+. c #949494",
"@. c #959595",
"#. c #969696",
"$. c #979797",
"%. c #9A9A9A",
"&. c #9C9C9C",
"*. c #A1A1A1",
"=. c #A5A5A5",
"-. c #A6A6A6",
";. c #A8A8A8",
":. c #A9A9A9",
">. c #AAAAAA",
",. c #ABABAB",
"<. c #AEAEAE",
"1. c #AFAFAF",
"2. c #B0B0B0",
"3. c #B0B2B2",
"4. c #B3B3B3",
"5. c #B4B4B4",
"6. c #B5B5B5",
"7. c #B8B8B8",
"8. c #B9B9B9",
"9. c #B8BCBA",
"0. c #BABCBC",
"q. c #BCBCBC",
"w. c #BDBDBD",
"e. c #BEBEBE",
"r. c #C0C0C0",
"t. c #C1C1C1",
"y. c #C2C2C2",
"u. c #C4C4C4",
"i. c #C7C7C7",
"p. c #C4C8C6",
"a. c #C8C8C8",
"s. c #CACACA",
"d. c #CECECE",
"f. c #CFCFCF",
"g. c #D2D2D2",
"h. c #D3D3D3",
"j. c #D4D4D4",
"k. c #D6D6D6",
"l. c #DADADA",
"z. c #D8DCDA",
"x. c #DEDEDE",
"c. c #DFDFDF",
"v. c #E2E2E2",
"b. c #E4E4E4",
"n. c #E5E5E5",
"m. c #E6E6E6",
"M. c #E7E7E7",
"N. c #E8E8E8",
"B. c #EAEAEA",
"V. c #EBEBEB",
"C. c #ECECEC",
"Z. c #EDEDED",
"A. c #EEEEEE",
"S. c #F0F0F0",
"D. c #F1F1F1",
"F. c #F2F2F2",
"G. c #F5F5F5",
"H. c #F6F6F6",
"J. c #F7F7F7",
"K. c #F9F9F9",
"L. c #FAFAFA",
"P. c #FBFBFB",
"I. c #FCFCFC",
"U. c #FDFDFD",
"Y. c #FFFFFF",
"T. c None",
/* pixels */
"T.T.T.T.T.T.T.T.T.T.T.T.T.T.T.T.T.T.T.T.T.T.T.T.T.T.T.T.T.T.T.T.",
"T.T.T.T.            T.T.T.T.T.T.T.T.T.T.T.T.T.T.T.T.T.T.T.T.T.T.",
"T.T.T.    T.T.Y.]   u Y.Q Q Y.Y.T.T.T.T.T.5 3 T.T.T.T.T.T.T.T.T.",
"T.T.    D Y.Y.Y.Y.C   s.o.o.Y.Y.y. .T.T.T.3 3 T.T.T.T.T.T.T.T.T.",
"T.T.    q.Y.Y.Y.Y.R   /  .o.Y.N.D P : T.T.3 5 T.T.T.T.T.T.T.T.T.",
"T.T.:   ) Y.Y.Y.Y.l   K o.#.Y.Y.Y.Y. .< T.3 5 T.T.T.T.T.T.T.T.T.",
"T.T.T.$ + =.D.m.R     C  .#.Y.Y.x.M 5 T.T.$ $ T.T.T.T.T.T.T.T.T.",
"T.T.Y.f.s       0 ~   U ] o.Y.Y.G.y.c i T.o o T.T.T.T.T.T.T.T.T.",
"T.T.Y.Y.Y.Z.g.x.Y./   *.)  .Y.Y.Y.Y.m.$ T.    T.T.T.T.T.T.T.T.T.",
"T.T.Y.Y.Y.Y.Y.Y.Z.: : G./ ] Y.y.R ] u h T.  T.T.T.T.T.T.T.T.T.T.",
"T.T.Y.#.q.v.l.:.5 O q.Y.)  .Y.G.8.#.6.T.T.  T.T.T.T.T.T.T.T.T.T.",
"T.T.Y.M         h s.Y.Y.) #.Y.Y.Y.Y.Y.T.T.  T.T.T.T.T.T.T.T.T.T.",
"T.T.Y.Y.D.g.f.Z.Y.Y.Y.Y. .%.Y.Y.Y.Y.Y.T.T.  T.T.T.T.T.T.T.T.T.T.",
"T.3 h M M C D M n n D P d n /  .#.o.) T.T.  T.T.T.T.T.T.T.T.T.T.",
"T.3 w i u w w 5 $ + < 5 < 7 h n D D M d T.  + T.T.T.T.T.T.T.T.T.",
"T.T.Y.Y.Y.Y.Y.Y.Y.Y.Y.Y.&.:.Y.L.g.1.k.T.T.T.T.T.T.T.T.T.T.T.T.T.",
"T.T.Y.Y.Y.Y.Y.Y.Y.Y.Y.Y.*.1.Y.#.D K : T.T.T.T.T.T.T.T.T.T.T.T.T.",
"T.T.Y.Y.Y.Y.Y.Y.Y.Y.Y.Y.=.3.Y.Y.Y.Y.K 7 T.T.T.T.T.T.T.T.T.T.T.T.",
"T.T.T.Y.Y.Y.Y.Y.Y.Y.Y.Y.,.8.Y.Y.Y.D.5 T.T.T.T.T.T.T.T.T.T.T.T.T.",
"T.T.T.Y.Y.Y.Y.Y.Y.Y.Y.Y.3.q.Y.Y.N.0 Y T.T.T.T.T.T.T.T.T.T.T.T.T.",
"T.T.T.Y.Y.Y.Y.Y.Y.Y.Y.Y.6.y.Y.x.w o.T.T.T.T.T.T.T.T.T.T.T.T.T.T.",
"T.T.T.Y.Y.Y.Y.Y.Y.Y.Y.Y.8.i.Y.! i a r f T.T.T.T.T.T.T.T.T.T.T.T.",
"T.T.T.N.Z.D.G.J.L.P.Y.Y.r.i.Y.Y.T.T.T.T.T.T.T.T.T.T.T.T.T.T.T.T.",
"T.T.T.5 3 3 3 #   + 3 w w d M H J F T.T.T.T.T.T.T.T.T.T.T.T.T.T.",
"T.T.T.T.T.Z.Z.N.m.m.m.v.:.3.z.T.T.T.T.T.T.T.T.T.T.T.T.T.T.T.T.T.",
"T.T.T.T.T.Q 7 < c Y.Y.Y.0.p.T.T.T.T.T.T.T.T.T.T.T.T.T.T.T.T.T.T.",
"T.T.T.T.T.T.T.D u Y.Y.T.9.T.T.T.T.T.T.T.T.T.T.T.T.T.T.T.T.T.T.T.",
"T.T.T.T.T.T.T.l 0 T.T.T.T.T.T.T.T.T.T.T.T.T.T.T.T.T.T.T.T.T.T.T.",
"T.T.T.T.T.T.T.T.$ T.T.T.T.T.T.T.T.T.T.T.T.T.T.T.T.T.T.T.T.T.T.T.",
"T.T.T.T.T.T.T.T.& T.T.T.T.T.T.T.T.T.T.T.T.T.T.T.T.T.T.T.T.T.T.T.",
"T.T.T.T.T.T.T.$ > r T.T.T.T.T.T.T.T.T.T.T.T.T.T.T.T.T.T.T.T.T.T.",
"T.T.T.T.T.T.T.T.T.T.T.T.T.T.T.T.T.T.T.T.T.T.T.T.T.T.T.T.T.T.T.T."
};
