/* XPM */
static char *ksudoku-16[] = {
/* columns rows colors chars-per-pixel */
"16 16 137 2",
"   c black",
".  c gray1",
"X  c #040404",
"o  c gray2",
"O  c #060606",
"+  c gray5",
"@  c #111111",
"#  c gray7",
"$  c #151515",
"%  c #181A1A",
"&  c gray12",
"*  c #222222",
"=  c gray15",
"-  c gray16",
";  c #2C2C2C",
":  c #343434",
">  c gray22",
",  c #393939",
"<  c #3F3F3F",
"1  c #414141",
"2  c #464646",
"3  c #444949",
"4  c gray30",
"5  c gray31",
"6  c #4D534D",
"7  c #565656",
"8  c gray35",
"9  c #5A5A5A",
"0  c gray36",
"q  c #5D5D5D",
"w  c #5F5F5F",
"e  c gray38",
"r  c #646464",
"t  c #656565",
"y  c #676767",
"u  c #6A6A6A",
"i  c gray43",
"p  c #687570",
"a  c #6F7D7D",
"s  c gray44",
"d  c gray46",
"f  c #727D7A",
"g  c gray47",
"h  c gray48",
"j  c gray49",
"k  c #6C8279",
"l  c #5DBE9A",
"z  c #5FBF99",
"x  c #5FBF9A",
"c  c #5FBF9B",
"v  c #7F8A8A",
"b  c #60BE9A",
"n  c #66CC99",
"m  c #79CBAC",
"M  c #7ACCAD",
"N  c #7CCCAD",
"B  c #7DCCAC",
"V  c #7DCCAE",
"C  c #838383",
"Z  c #848484",
"A  c gray52",
"S  c gray53",
"D  c #8B8B8B",
"F  c gray55",
"G  c #8D8D8D",
"H  c gray56",
"J  c #86948F",
"K  c #909090",
"L  c #929292",
"P  c gray58",
"I  c #989898",
"U  c gray60",
"Y  c #9A9A9A",
"T  c #9B9B9B",
"R  c gray61",
"E  c #9D9D9D",
"W  c gray62",
"Q  c #89A49C",
"!  c #97AAAA",
"~  c #94BFB1",
"^  c #A0A0A0",
"/  c gray63",
"(  c #A4A4A4",
")  c #AAAAAA",
"_  c #ACACAC",
"`  c #AFAFAF",
"'  c #AAB6AA",
"]  c gray70",
"[  c #B4B4B4",
"{  c #B6B6B6",
"}  c #BBBBBB",
"|  c #BCBCBC",
" . c gray74",
".. c gray",
"X. c gray75",
"o. c #8CCCB2",
"O. c #92C0AE",
"+. c #95D8BE",
"@. c #98DABF",
"#. c #A5C1B8",
"$. c #96D8C0",
"%. c #96DAC0",
"&. c #98DAC1",
"*. c #B2D6C6",
"=. c #B0E4D1",
"-. c #B1E4D1",
";. c #B3E7D1",
":. c #B2E6D3",
">. c #B4E6D3",
",. c #C1C1C1",
"<. c #C2C4C4",
"1. c #C8C8C8",
"2. c #D2D2D2",
"3. c gray84",
"4. c #D7D7D7",
"5. c #D5DEDB",
"6. c gainsboro",
"7. c #DFDFDF",
"8. c #C6EDDF",
"9. c #C8EDDE",
"0. c #CFEAE4",
"q. c #D0EAE0",
"w. c #D8EBE2",
"e. c #E2E2E2",
"r. c #EBEDED",
"t. c #EAF4F4",
"y. c #ECF5F2",
"u. c #F1F1F1",
"i. c gray95",
"p. c #F4F4F4",
"a. c #F6F6F6",
"s. c #F8F8F8",
"d. c gray98",
"f. c #FBFBFB",
"g. c #FDFDFD",
"h. c gray100",
"j. c None",
/* pixels */
"j.          & j.j.j.& & j.j.j.j.",
"j.  : a.w h H h.a.h.& & j.j.j.j.",
"j.+ ,.h.W 1 I a.L 5 & & j.j.j.j.",
"j.H : t 2 , I h.| 5 = & j.j.j.h.",
"j.h.h.u.W d L a.e.9 = O j.j.h.w.",
"j.[ t e 7 u.L a.] 4.;   j.h.w.q.",
"& I I ( ( ) i ,.1.| =   @ ' q.8.",
"& D P L A D 9 I ( H @   6 ! 8.-.",
"j.h.h.h.h.h._ e.W 9 O 3 0.8.=.+.",
"j.h.h.h.h.h.[ h.2.9 < a 8.=.+.m ",
"j.h.h.h.h.h.,.6.: u p Q -.$.m z ",
"j.I i C h D j W W f k O.$.m z z ",
"j.h.6.W 2.a.} r.5.*.~ o.V x x x ",
"j.j._ u v h.,.y.9.;.+.M x x x x ",
"j.j.j.O $ t.J 9.>.&.V x x x x x ",
"j.j.    % S #.>.&.V z x x x x n "
};
