/* XPM */
static char *lskat___[] = {
/* columns rows colors chars-per-pixel */
"16 16 137 2",
"   c #420000",
".  c #4C0000",
"X  c #4D0B0B",
"o  c #560000",
"O  c #481414",
"+  c #4F1A1A",
"@  c #600101",
"#  c #6B0707",
"$  c #640A0A",
"%  c #6E0808",
"&  c #740505",
"*  c #7D0303",
"=  c #661C1C",
"-  c #572020",
";  c #572B2B",
":  c #5B3838",
">  c #602020",
",  c #672525",
"<  c #692020",
"1  c #712121",
"2  c #7A2121",
"3  c #673636",
"4  c #633E3E",
"5  c #7E3737",
"6  c #753C3C",
"7  c #783939",
"8  c #793E3E",
"9  c #6C4747",
"0  c #6A4B4B",
"q  c #754040",
"w  c #764747",
"e  c #784747",
"r  c #774A4A",
"t  c #795454",
"y  c #7E5858",
"u  c #7B6666",
"i  c #860101",
"p  c #8B0202",
"a  c #900202",
"s  c #970202",
"d  c #9A0202",
"f  c #920D0D",
"g  c #891212",
"h  c #841F1F",
"j  c #941010",
"k  c #9B1313",
"l  c #9C1C1C",
"z  c #832121",
"x  c #892323",
"c  c #8C2222",
"v  c #852B2B",
"b  c #8F2828",
"n  c #932121",
"m  c #942222",
"M  c #912F2F",
"N  c #9E2C2C",
"B  c #8D3636",
"V  c #963030",
"C  c #9D3030",
"Z  c #973939",
"A  c #9F3F3F",
"S  c #A52222",
"D  c #A82323",
"F  c #AA2222",
"G  c #AD2222",
"H  c #AF2222",
"J  c #AB3636",
"K  c #8E4949",
"L  c #815959",
"P  c #875F5F",
"I  c #965B5B",
"U  c #AA4C4C",
"Y  c #A25252",
"T  c #836C6C",
"R  c #936767",
"E  c #837070",
"W  c #897272",
"Q  c #917777",
"!  c #907878",
"~  c #977F7F",
"^  c #AB6060",
"/  c #A16969",
"(  c #A66969",
")  c #AC6969",
"_  c #B26969",
"`  c #B76969",
"'  c #BD6969",
"]  c #A67B7B",
"[  c #BC7272",
"{  c #C76565",
"}  c #C36969",
"|  c #938686",
" . c #9A8181",
".. c #9D8383",
"X. c #949292",
"o. c #A38989",
"O. c #B09090",
"+. c #B89090",
"@. c #B99191",
"#. c #BB9090",
"$. c #BB9292",
"%. c #BE9696",
"&. c #B49999",
"*. c #B69D9D",
"=. c #BF9898",
"-. c #AFA6A6",
";. c #B1A6A6",
":. c #B2A6A6",
">. c #B4A6A6",
",. c #B5A6A6",
"<. c #B7A6A6",
"1. c #B8A6A6",
"2. c #BAA7A7",
"3. c #B0A8A8",
"4. c #B4AFAF",
"5. c #B9AFAF",
"6. c #BFADAD",
"7. c #B7B1B1",
"8. c #B9B6B6",
"9. c #BDB4B4",
"0. c #B9B9B9",
"q. c #BCBBBB",
"w. c #C38F8F",
"e. c #C29D9D",
"r. c #C19E9E",
"t. c #C3A6A6",
"y. c #C0B7B7",
"u. c #C4BBBB",
"i. c #C7BFBF",
"p. c #CBC3C3",
"a. c #CDC5C5",
"s. c #D0C7C7",
"d. c #DCCCCC",
"f. c #D8D2D2",
"g. c #DCD9D9",
"h. c #E1E1E1",
"j. c None",
/* pixels */
"j.j.j.j.j.j.j.j.j.j.j.j.j.j.j.j.",
"j.j.q.5.9.9.u.p.p.a.s.f.j.j.j.j.",
"j.j.8.E u T W ! ~  ...6.j.j.j.j.",
"j.j.4.0 : 4 9 t y L P *.j.j.j.j.",
"j.j.3.; O + 3 r e q 6 O.j.j.j.j.",
"j.j.;.-   X w Q 8 7 = ] j.j.j.j.",
"j.j.;.> . , | X.R 5 $ / j.j.j.j.",
"j.j.;.< o o.0.0.7.K # ( j.j.j.j.",
"j.j.;.1 o I g.h.t.B & ) j.j.j.j.",
"j.j.<.2 % v $.d.Y M * _ j.j.j.j.",
"j.j.<.z h c Z ^ A n i ` j.j.j.j.",
"j.j.2.c V g n C N f a ' j.j.j.j.",
"j.j.2.b U p j l k s d } j.j.j.j.",
"j.j.2.w.[ J S F F H H { j.j.j.j.",
"j.j.j.e.e.=.%.$.$.+.$.&.j.j.j.j.",
"j.j.j.j.j.j.j.j.j.j.j.j.j.j.j.j."
};
