/* XPM */
static char *lskat[] = {
/* columns rows colors chars-per-pixel */
"32 32 182 2",
"   c #3D0202",
".  c #430000",
"X  c #4C0101",
"o  c #420B0B",
"O  c #490B0B",
"+  c #530000",
"@  c #5B0101",
"#  c #550808",
"$  c #5B0A0A",
"%  c #4C1515",
"&  c #461818",
"*  c #4C1C1C",
"=  c #521111",
"-  c #571B1B",
";  c #5E1A1A",
":  c #630202",
">  c #6C0202",
",  c #640D0D",
"<  c #6D0D0D",
"1  c #730202",
"2  c #7C0303",
"3  c #740A0A",
"4  c #780808",
"5  c #631313",
"6  c #6C1414",
"7  c #631B1B",
"8  c #701010",
"9  c #7B1A1A",
"0  c #522222",
"q  c #5B2121",
"w  c #522C2C",
"e  c #5D2E2E",
"r  c #5A3232",
"t  c #5D3E3E",
"y  c #642020",
"u  c #6B2222",
"i  c #6B2A2A",
"p  c #752121",
"a  c #7D2121",
"s  c #732929",
"d  c #792929",
"f  c #6B3333",
"g  c #613939",
"h  c #6C3E3E",
"j  c #743434",
"k  c #7A3232",
"l  c #743939",
"z  c #793C3C",
"x  c #644444",
"c  c #6B4343",
"v  c #674E4E",
"b  c #6D4C4C",
"n  c #754444",
"m  c #7B4545",
"M  c #744D4D",
"N  c #7A4C4C",
"B  c #6C5353",
"V  c #775656",
"C  c #7C5353",
"Z  c #745A5A",
"A  c #7A5D5D",
"S  c #776262",
"D  c #7D6161",
"F  c #7E6A6A",
"G  c #747475",
"H  c #7C7C7C",
"J  c #830303",
"K  c #8C0303",
"L  c #870D0D",
"P  c #8B0C0C",
"I  c #940303",
"U  c #9B0202",
"Y  c #960E0E",
"T  c #9B0D0D",
"R  c #821515",
"E  c #8A1212",
"W  c #861D1D",
"Q  c #8B1A1A",
"!  c #931414",
"~  c #9A1111",
"^  c #931B1B",
"/  c #9A1B1B",
"(  c #A20202",
")  c #AF1515",
"_  c #822121",
"`  c #8B2222",
"'  c #822D2D",
"]  c #8D2E2E",
"[  c #932222",
"{  c #9A2424",
"}  c #952B2B",
"|  c #9C2B2B",
" . c #823434",
".. c #8C3333",
"X. c #8D3939",
"o. c #953333",
"O. c #9B3232",
"+. c #943A3A",
"@. c #9D3C3C",
"#. c #A52222",
"$. c #AC2222",
"%. c #B12222",
"&. c #AC3A3A",
"*. c #804141",
"=. c #884949",
"-. c #934040",
";. c #9C4646",
":. c #924E4E",
">. c #9E4B4B",
",. c #835252",
"<. c #825C5C",
"1. c #8C5E5E",
"2. c #9C5151",
"3. c #A04848",
"4. c #B04141",
"5. c #B34F4F",
"6. c #AD5959",
"7. c #836363",
"8. c #8B6363",
"9. c #846B6B",
"0. c #8C6C6C",
"q. c #926E6E",
"w. c #847171",
"e. c #8D7474",
"r. c #8E7B7B",
"t. c #947373",
"y. c #937A7A",
"u. c #9B7D7D",
"i. c #A56060",
"p. c #A16F6F",
"a. c #B06363",
"s. c #AD7878",
"d. c #BC7373",
"f. c #C17575",
"g. c #878787",
"h. c #8D8D8D",
"j. c #958383",
"k. c #9D8585",
"l. c #9C8B8B",
"z. c #919191",
"x. c #9B9595",
"c. c #9B9B9B",
"v. c #A48585",
"b. c #A28C8C",
"n. c #B68282",
"m. c #A39494",
"M. c #AA9393",
"N. c #A09B9B",
"B. c #AC9B9B",
"V. c #B99393",
"C. c #B99C9C",
"Z. c #AEA5A5",
"A. c #AFAFAF",
"S. c #B3A2A2",
"D. c #BDBDBD",
"F. c #C29F9F",
"G. c #D59999",
"H. c #D99999",
"J. c #CCAEAE",
"K. c #D6A4A4",
"L. c #D4AEAE",
"P. c #DBAFAF",
"I. c #C4B5B5",
"U. c #CBB5B5",
"Y. c #CFBBBB",
"T. c #D9BBBB",
"R. c #C3C3C3",
"E. c #CFC5C5",
"W. c #D4C5C5",
"Q. c #DBC5C5",
"!. c #D3CBCB",
"~. c #D8CECE",
"^. c #D7D6D6",
"/. c #DCD4D4",
"(. c #DDDADA",
"). c #E1C7C7",
"_. c #E2DDDD",
"`. c #E4E3E3",
"'. c #E8E7E7",
"]. c #ECEAEA",
"[. c #F3F3F3",
"{. c None",
/* pixels */
"{.{.{.{.{.{.{.{.{.{.{.{.{.{.{.{.{.{.{.{.{.{.{.{.{.{.{.{.{.{.{.{.",
"{.{.{.{.{.{.{.{.{.{.{.{.{.{.{.{.{.{.{.{.{.{.{.{.{.{.{.{.{.{.{.{.",
"{.{.{.{.{.R.`._._._.`.`.'.`.'.'.'.'.'.'.].].].`.{.{.{.{.{.{.{.{.",
"{.{.{.{.{.(.9.r.r.j.j.l.l.l.x.m.m.B.B.B.B.S.S._.z.{.{.{.{.{.{.{.",
"{.{.{.{.{.^.w.F F w.w.e.r.r.u.j.k.l.b.v.l.b.M._.z.{.{.{.{.{.{.{.",
"{.{.{.{.{.^.S v B B Z Z S D 7.9.9.0.e.t.y.u.u./.h.{.{.{.{.{.{.{.",
"{.{.{.{.{.!.B t x x x b b V A <.7.<.7.8.8.0.q./.g.{.{.{.{.{.{.{.",
"{.{.{.{.{.!.t w w r r g c M C V V ,.C C ,.<.q.Q.{.{.{.{.{.{.{.{.",
"{.{.{.{.{.!.r & * 0 w e g n M C N N m N n m 1.W.{.{.{.{.{.{.{.{.",
"{.{.{.{.{.E.0     o % 0 h l N 1.n n m f j j ,.W.{.{.{.{.{.{.{.{.",
"{.{.{.{.{.W.0     . O - f N l.1.N l z l y u z Y.{.{.{.{.{.{.{.{.",
"{.{.{.{.{.W.q . . . = ; l j.z.k.z z j k 5 5 k U.{.{.{.{.{.{.{.{.",
"{.{.{.{.{.W.q . . # ; i t.z.h.x.1.*.d s , : p J.{.{.{.{.{.{.{.{.",
"{.{.{.{.{.W.; X X # 7 1.c.c.c.c.m.=.k  .6 : p U.{.{.{.{.{.{.{.{.",
"{.{.{.{.{.W.y + + $ j Z.A.A.A.A.A.M. . .< : a J.{.{.{.{.{.{.{.{.",
"{.{.{.{.{.W.u @ @ 5 v.R.R.R.R.R.R.R.p.' < > _ J.{.{.{.{.{.{.{.{.",
"{.{.{.{.{.W.p @ @ , d I.^.^.^.^.^.C.-.a 3 > _ J.{.{.{.{.{.{.{.{.",
"{.{.{.{.{.W.p : : <  .:.~.].].'.U.2..._ 4 1 W L.{.{.{.{.{.{.{.{.",
"{.{.{.{.{.W.p : > 8 X. .s.].[./.i.+...W 2 2 ` L.{.{.{.{.{.{.{.{.",
"{.{.{.{.{.Q.9 > > 9 X... .K.].n.>.+.} Q J 2 [ L.{.{.{.{.{.{.{.{.",
"{.{.{.{.{.Q._ > 1 ] ..] @.;.F.>.@.o.[ Q J J [ L.{.{.{.{.{.{.{.{.",
"{.{.{.{.{.Q._ 4 R >.W ` +.o.+.&.O.} ^ P J K { L.{.{.{.{.{.{.{.{.",
"{.{.{.{.{.Q._ 2 o.o.Q [ [ } | O.| { ^ K K I / P.{.{.{.{.{.{.{.{.",
"{.{.{.{.{.Q.` J @.} J P ^ [ { | { / Y K I I #.L.{.{.{.{.{.{.{.{.",
"{.{.{.{.{.Q.P E d.P K K ! ^ { / / T I I I U $.P.{.{.{.{.{.{.{.{.",
"{.{.{.{.{.Q.{ p.6.| I K I Y ~ ~ T I U U U U $.P.{.{.{.{.{.{.{.{.",
"{.{.{.{.{.).a.D.V.&./ I I I U I U U U ( ( ( %.P.{.{.{.{.{.{.{.{.",
"{.{.{.{.{.).5.T.f.4.&.#.#.$.$.$.$.$.%.%.%.%.) P.{.{.{.{.{.{.{.{.",
"{.{.{.{.{.^.K.K.K.K.G.G.G.G.G.G.H.H.H.H.H.H.H._.{.{.{.{.{.{.{.{.",
"{.{.{.{.{.{.H H G G G G G G G G G G G G G G G {.{.{.{.{.{.{.{.{.",
"{.{.{.{.{.{.{.{.{.{.{.{.{.{.{.{.{.{.{.{.{.{.{.{.{.{.{.{.{.{.{.{.",
"{.{.{.{.{.{.{.{.{.{.{.{.{.{.{.{.{.{.{.{.{.{.{.{.{.{.{.{.{.{.{.{."
};
