/* XPM */
static char *palapeli[] = {
/* columns rows colors chars-per-pixel */
"32 32 189 2",
"   c #0C7625",
".  c #007826",
"X  c #127A25",
"o  c #227722",
"O  c #05872B",
"+  c #0B8429",
"@  c #038A2C",
"#  c #088D2C",
"$  c #178327",
"%  c #1C8D2A",
"&  c #1D972F",
"*  c #258527",
"=  c #248728",
"-  c #21972D",
";  c #2A932B",
":  c #249B2F",
">  c #2A9B2D",
",  c #339B2C",
"<  c #3D9E2C",
"1  c #259834",
"2  c #2BA02F",
"3  c #33A12F",
"4  c #3AA52F",
"5  c #3FA82F",
"6  c #2EA435",
"7  c #2BA03B",
"8  c #31A534",
"9  c #37A833",
"0  c #3AAA37",
"q  c #36A43B",
"w  c #44A22D",
"e  c #4BA42D",
"r  c #41A82F",
"t  c #4DAC2F",
"y  c #53A72E",
"u  c #53AC2F",
"i  c #44AE31",
"p  c #49AB30",
"a  c #43AF39",
"s  c #54AF30",
"d  c #46B432",
"f  c #4CB232",
"g  c #4AB932",
"h  c #45B039",
"j  c #4CB33B",
"k  c #54B234",
"l  c #5CB430",
"z  c #52B73C",
"x  c #54B83D",
"c  c #5ABC3E",
"v  c #63B933",
"b  c #55C435",
"n  c #5AC736",
"m  c #5ECA35",
"M  c #62CC36",
"N  c #62C03F",
"B  c #6FCD3E",
"V  c #70CF3D",
"C  c #67D037",
"Z  c #6BD337",
"A  c #67D038",
"S  c #6DD239",
"D  c #70D23B",
"F  c #5FBF40",
"G  c #5FBD4B",
"H  c #5DB75D",
"J  c #61BF40",
"K  c #63BA48",
"L  c #69BE54",
"P  c #63BD5C",
"I  c #57B360",
"U  c #5AB660",
"Y  c #65BF60",
"T  c #65C241",
"R  c #6CC642",
"E  c #65CA46",
"W  c #6CCC42",
"Q  c #69C34B",
"!  c #68C84F",
"~  c #70CB41",
"^  c #6CD042",
"/  c #71D342",
"(  c #78D746",
")  c #67C752",
"_  c #69C057",
"`  c #6DCB54",
"'  c #6CC15D",
"]  c #6DC95C",
"[  c #73CF55",
"{  c #72C55F",
"}  c #73CC5B",
"|  c #78CF5F",
" . c #76D154",
".. c #7AD453",
"X. c #7ED851",
"o. c #7AD25B",
"O. c #73CB64",
"+. c #78CD65",
"@. c #78C669",
"#. c #77CC69",
"$. c #7BCB6E",
"%. c #7DD263",
"&. c #7DD068",
"*. c #7DCE72",
"=. c #80DA51",
"-. c #81D65D",
";. c #85DA5D",
":. c #89DC5C",
">. c #81C867",
",. c #83D662",
"<. c #87D866",
"1. c #8DDC67",
"2. c #83D46C",
"3. c #88D76B",
"4. c #8DDB6B",
"5. c #91DC6F",
"6. c #83CD74",
"7. c #83CC78",
"8. c #83D174",
"9. c #88D574",
"0. c #8DD972",
"q. c #83D079",
"w. c #8BD47C",
"e. c #94DC75",
"r. c #94DB7C",
"t. c #9BDE7F",
"y. c #93E06A",
"u. c #99E273",
"i. c #9DE27C",
"p. c #8CD282",
"a. c #92D384",
"s. c #96DA83",
"d. c #9ADC84",
"f. c #95D68B",
"g. c #9BDA8B",
"h. c #9CD992",
"j. c #A1DF8C",
"k. c #A2DD94",
"l. c #A4DC9A",
"z. c #A9DF9D",
"x. c #9FE182",
"c. c #A3E284",
"v. c #A5E28A",
"b. c #AAE58C",
"n. c #A6E194",
"m. c #ACE494",
"M. c #ADE39B",
"N. c #B2E895",
"B. c #B2E69D",
"V. c #B4E89B",
"C. c #A5DAA1",
"Z. c #ABDEA4",
"A. c #AEDFAA",
"S. c #B0DEA5",
"D. c #B0DFAD",
"F. c #AFE1A3",
"G. c #AEE0A8",
"H. c #B3E5A3",
"J. c #BBEAA6",
"K. c #B5E2AB",
"L. c #BAE6AE",
"P. c #BBE9A9",
"I. c #B6E2B2",
"U. c #BBE5B4",
"Y. c #BDE5BB",
"T. c #C1ECAC",
"R. c #C1E9B5",
"E. c #C0E6BD",
"W. c #C4E9BC",
"Q. c #C8EDB9",
"!. c #CDF0BF",
"~. c #C3E7C2",
"^. c #C9E7C7",
"/. c #C5E8C3",
"(. c #CAEBC4",
"). c #CBEACA",
"_. c #D2EECC",
"`. c #CEF0C2",
"'. c #D3EDD3",
"]. c #DAEFDB",
"[. c #D9F1D6",
"{. c #DDF2DC",
"}. c #E1F5D9",
"|. c #E3F4E3",
" X c #EBF7EC",
".X c #EEF8ED",
"XX c #EFF8F0",
"oX c #F2FAF3",
"OX c None",
/* pixels */
"OXOXOXOXOXOXOXOXOXOXOXOXOXOXOXOXv v v v v OXOXOXOXOXOXOXOXOXOXOX",
"OXOXOXOXOXOXOXOXOXOXOXOXOXOXv U.|.XX X|.^.>.l OXOXOXOXOXOXOXOXOX",
"OXOXOXOXOXOXOXOXOXOXOXOXOXv l.XX|.|.].'.).).L s OXOXOXOXOXOXOXOX",
"OXOXOXOXOXOXOXOXOXOXOXOXOXl Y |.{.'.'.^.~.C.i s OXOXOXOXOXOXOXOX",
"OXOXOXOXOXOXOXOXOXOXOXOXOXy d C.'.).^.E.Y.Y k OXOXOXOXOXOXOXOXOX",
"OXOXOXOXOXOXOXOXOXOXOXOXs s K I.).~.Y.I.A.7.k p p s p p p p OXOX",
"OXOXOXOXOXOXOXf K.D.S.S.I.l.[.(.E.Y.I.G.Z.A.Y.p.7.$.@.a.p.' p OX",
"OXOXOXOXOXOXe K .X|.{.[._.^./.Y.I.K.Z.C.h.h.f.f.p.7.*.$.#.O.p OX",
"OXOXOXOXOXOXe { |.[._._.(.W.U.I.G.G.M.h.g.f.p.w.8.*.#.O.] ] r OX",
"OXOXOXOXOXOXw 6.[._.(.W.U.I.L.F.M.l.h.g.s.p.9.8.&.+.O.` ) ] 5 OX",
"OXOXOXOXOXOXw p._.(.W.R.L.K.F.n.k.h.f.s.w.9.2.$.+.} ` ! ` ` 5 OX",
"OXOXOXOXOXOXw g.W.R.U.P.H.F.n.k.g.s.r.w.9.2.%.| } ` ` } E b 4 OX",
"OXOXOXOXOXOXr M.R.P.P.F.M.n.v.g.s.r.0.9.2.o.o.[ [  .E n b n 9 OX",
"OXOX< O.w.r t (.P.H.B.m.b.g.d.r.e.0.3.,.o.o.o. .A n m M m m 3 OX",
"OXOXj }.(.d.R.Q.B.B.m.v.x.d.e.e.4.<.,.o.-.../ M m 9 3 0 g d > OX",
"OX, g.Q.T.P.J.V.m.b.c.d.i.e.e.1.1.,.X./ A S M M d * OXo * * OXOX",
"OX, M.T.T.V.N.N.b.c.i.i.u.y.;.X./ Z Z Z S S Z Z 4 OXOXOXOXOXOXOX",
"OX, V.N.b.c.i.e.y.:.=.( S D D D D D D D D V S S > OXOXOXOXOXOXOX",
"OX, =.V D D V V D V D V S D D V D / D D V V V V 2 OXOXOXOXOXOXOX",
"OX; J B V V V ~ ~ ~ ~ ~ ~ ~ ~ ~ ~ ~ ~ ~ ~ ~ ~ ~ 9 OXOXOXOXOXOXOX",
"OX= z R B R R ~ R R R ~ R R R R R R R R R R R R F 1 % & q % OXOX",
"OXOX> c N z 8 T T R T T T T R T T T T T T T T T F ' ' F } & OXOX",
"OXOXOX- 1 % & Q v J J T J J T T T J J J T J J J F F G F v 8 OXOX",
"OXOXOXOXOXOX% ' F c F F F c c c c F c c c c c c c x F F F 0 + OX",
"OXOXOXOXOXOX$ P x x x x x x x x F F j F z z z z z z x x j 0 + OX",
"OXOXOXOXOXOXX H z j j j j j j j 0 j h j j j j j j j h j j 0 # OX",
"OXOXOXOXOXOXX H h h h h j a a h a a a a a a a a a 0 h a a 0 + OX",
"OXOXOXOXOXOX  I 0 0 0 0 0 0 0 0 0 0 0 0 0 0 0 q 0 q 0 0 9 9 @ OX",
"OXOXOXOXOXOX  1 8 8 8 8 8 6 6 6 7 8 8 6 6 6 6 6 6 6 6 6 6 1 @ OX",
"OXOXOXOXOXOXOX# # # # # # # # # @ @ @ @ @ @ @ @ @ @ @ @ @ @ . OX",
"OXOXOXOXOXOXOXOXOXOXOXOXOXOXOXOXOXOXOXOXOXOXOXOXOXOXOXOXOXOXOXOX",
"OXOXOXOXOXOXOXOXOXOXOXOXOXOXOXOXOXOXOXOXOXOXOXOXOXOXOXOXOXOXOXOX"
};
