/* XPM */
static char *palapeli___[] = {
/* columns rows colors chars-per-pixel */
"16 16 170 2",
"   c #0A8F2E",
".  c #12932E",
"X  c #14932E",
"o  c #13942F",
"O  c #19972F",
"+  c #1A972F",
"@  c #159530",
"#  c #169630",
"$  c #179630",
"%  c #189530",
"&  c #189630",
"*  c #1B9930",
"=  c #1F9830",
"-  c #229B30",
";  c #2BA030",
":  c #3AAA36",
">  c #3BAB36",
",  c #3BAA37",
"<  c #3AAB37",
"1  c #3CAB37",
"2  c #3CAC37",
"3  c #3EAC37",
"4  c #3DAB38",
"5  c #3DAC38",
"6  c #3EAC38",
"7  c #3FAB3D",
"8  c #40AE31",
"9  c #40AE32",
"0  c #43AD35",
"q  c #45AF38",
"w  c #46AF38",
"e  c #46B432",
"r  c #48B533",
"t  c #4DB134",
"y  c #48B634",
"u  c #4AB33A",
"i  c #4BB43B",
"p  c #4EB439",
"a  c #4CB43B",
"s  c #4CB53B",
"d  c #4DB53B",
"f  c #4FB53B",
"g  c #4DB53C",
"h  c #4EB43C",
"j  c #4DB63C",
"k  c #53BF34",
"l  c #54B93C",
"z  c #58BB3D",
"x  c #5BBB3E",
"c  c #59BC3E",
"v  c #5ABC3E",
"b  c #5BBC3E",
"n  c #5ABD3E",
"m  c #5BBC3F",
"M  c #5DBD3E",
"N  c #5EC93B",
"B  c #61C03F",
"V  c #62CA3B",
"C  c #69D139",
"Z  c #69D238",
"A  c #6FD23B",
"S  c #70D33A",
"D  c #70D23B",
"F  c #70D33B",
"G  c #73D63F",
"H  c #3AA742",
"J  c #57B642",
"K  c #52B941",
"L  c #5ABA4A",
"P  c #6ABE57",
"I  c #64C140",
"U  c #65C340",
"Y  c #65C241",
"T  c #66C340",
"R  c #66C241",
"E  c #67C341",
"W  c #66C440",
"Q  c #68CB49",
"!  c #70C941",
"~  c #70CB40",
"^  c #70CA41",
"/  c #70CB41",
"(  c #70C842",
")  c #70C942",
"_  c #72CC42",
"`  c #71C04A",
"'  c #6FD14A",
"]  c #70D443",
"[  c #79D746",
"{  c #6DC557",
"}  c #69C951",
"|  c #6CC25A",
" . c #6ECB59",
".. c #6EC95E",
"X. c #72CF56",
"o. c #75C45F",
"O. c #7AD650",
"+. c #7BD459",
"@. c #79D15E",
"#. c #79CF65",
"$. c #78CD6A",
"%. c #7DC96F",
"&. c #80D94F",
"*. c #88DD5A",
"=. c #83D663",
"-. c #88DA63",
";. c #83D469",
":. c #8CD96F",
">. c #87CF78",
",. c #84CD7D",
"<. c #88CD7C",
"1. c #8FCE7D",
"2. c #83D371",
"3. c #83D176",
"4. c #8CD775",
"5. c #8DD67C",
"6. c #94DE73",
"7. c #96DC7A",
"8. c #92E068",
"9. c #8ED582",
"0. c #95D387",
"q. c #96DB81",
"w. c #9FDF86",
"e. c #99D78A",
"r. c #99D48C",
"t. c #99D48F",
"y. c #98DA88",
"u. c #99D98E",
"i. c #9FDD8D",
"p. c #9CD690",
"a. c #A1DC91",
"s. c #A1DE94",
"d. c #A4DD9A",
"f. c #9FE180",
"g. c #A7E48B",
"h. c #A8E392",
"j. c #AFE796",
"k. c #A9E198",
"l. c #B1E69D",
"z. c #ABDAA1",
"x. c #A9DDA4",
"c. c #AADDA4",
"v. c #B3DEA8",
"b. c #B0DFAE",
"n. c #ACE1A0",
"m. c #AEE1A6",
"M. c #B3E1A6",
"N. c #B4E5A4",
"B. c #BAEAA3",
"V. c #B3E0AC",
"C. c #B2E1AE",
"Z. c #B6E5AC",
"A. c #BFEAAE",
"S. c #BAE5B3",
"D. c #BEE9B1",
"F. c #BDE6BA",
"G. c #C1E9B7",
"H. c #C7EEB5",
"J. c #C4E9BE",
"K. c #C0E5C0",
"L. c #C2E6C1",
"P. c #CBECC3",
"I. c #C8E9CA",
"U. c #CDEBCA",
"Y. c #CFEDCA",
"T. c #CEEBCD",
"R. c #D4EDD5",
"E. c #DBF1D7",
"W. c #E0F2E1",
"Q. c None",
/* pixels */
"Q.Q.Q.Q.Q.Q.Q.` v.z.1.Q.Q.Q.Q.Q.",
"Q.Q.Q.Q.Q.Q.Q.K.W.R.I.P Q.Q.Q.Q.",
"Q.Q.Q.Q.Q.Q.Q.,.T.K.C.t Q.Q.Q.Q.",
"Q.Q.Q.o.p.r.V.U.F.V.x.x.p.<.%.J ",
"Q.Q.Q.0.E.Y.J.S.m.d.u.9.3.$...L ",
"Q.Q.Q.e.P.G.Z.n.a.y.5.2.#. .} K ",
"Q.Q.Q.a.D.N.k.i.q.4.;.@.X.Q N e ",
"Q.M.>.A.l.h.w.7.:.=.+.' V e k 3 ",
"P H.B.j.g.g.6.-.O.] Z Z y Q.Q.Q.",
"o.8.*.&.] G D D F F A A 3 Q.Q.Q.",
"0 / D ( D ( / / / ( ( ( w Q.Q.Q.",
"; t w I B I E E E E E Y Y w l Q.",
"Q.Q.Q.j M M x x M c M c c c c = ",
"Q.Q.Q.q f d j j d i d d i i u - ",
"Q.Q.Q.H 3 3 6 6 4 2 2 : : : : * ",
"Q.Q.Q.@ O * & & @ @ @ @ @ o .   "
};
